/* XPM */
static const char *ibm5150[] = {
/* columns rows colors chars-per-pixel */
"32 32 256 2 ",
"   c None",
".  c #6C655D",
"X  c #787167",
"o  c #CAC3BA",
"O  c #D9D0C5",
"+  c #878078",
"@  c #A9A39B",
"#  c #47423C",
"$  c #5D564E",
"%  c #2C2A25",
"&  c #181721",
"*  c #27253F",
"=  c #403F4E",
"-  c #45CE2F",
";  c #2C991A",
":  c #21201E",
">  c #746A5F",
",  c black",
"<  c black",
"1  c black",
"2  c black",
"3  c black",
"4  c black",
"5  c black",
"6  c black",
"7  c black",
"8  c black",
"9  c black",
"0  c black",
"q  c black",
"w  c black",
"e  c black",
"r  c black",
"t  c black",
"y  c black",
"u  c black",
"i  c black",
"p  c black",
"a  c black",
"s  c black",
"d  c black",
"f  c black",
"g  c black",
"h  c black",
"j  c black",
"k  c black",
"l  c black",
"z  c black",
"x  c black",
"c  c black",
"v  c black",
"b  c black",
"n  c black",
"m  c black",
"M  c black",
"N  c black",
"B  c black",
"V  c black",
"C  c black",
"Z  c black",
"A  c black",
"S  c black",
"D  c black",
"F  c black",
"G  c black",
"H  c black",
"J  c black",
"K  c black",
"L  c black",
"P  c black",
"I  c black",
"U  c black",
"Y  c black",
"T  c black",
"R  c black",
"E  c black",
"W  c black",
"Q  c black",
"!  c black",
"~  c black",
"^  c black",
"/  c black",
"(  c black",
")  c black",
"_  c black",
"`  c black",
"'  c black",
"]  c black",
"[  c black",
"{  c black",
"}  c black",
"|  c black",
" . c black",
".. c black",
"X. c black",
"o. c black",
"O. c black",
"+. c black",
"@. c black",
"#. c black",
"$. c black",
"%. c black",
"&. c black",
"*. c black",
"=. c black",
"-. c black",
";. c black",
":. c black",
">. c black",
",. c black",
"<. c black",
"1. c black",
"2. c black",
"3. c black",
"4. c black",
"5. c black",
"6. c black",
"7. c black",
"8. c black",
"9. c black",
"0. c black",
"q. c black",
"w. c black",
"e. c black",
"r. c black",
"t. c black",
"y. c black",
"u. c black",
"i. c black",
"p. c black",
"a. c black",
"s. c black",
"d. c black",
"f. c black",
"g. c black",
"h. c black",
"j. c black",
"k. c black",
"l. c black",
"z. c black",
"x. c black",
"c. c black",
"v. c black",
"b. c black",
"n. c black",
"m. c black",
"M. c black",
"N. c black",
"B. c black",
"V. c black",
"C. c black",
"Z. c black",
"A. c black",
"S. c black",
"D. c black",
"F. c black",
"G. c black",
"H. c black",
"J. c black",
"K. c black",
"L. c black",
"P. c black",
"I. c black",
"U. c black",
"Y. c black",
"T. c black",
"R. c black",
"E. c black",
"W. c black",
"Q. c black",
"!. c black",
"~. c black",
"^. c black",
"/. c black",
"(. c black",
"). c black",
"_. c black",
"`. c black",
"'. c black",
"]. c black",
"[. c black",
"{. c black",
"}. c black",
"|. c black",
" X c black",
".X c black",
"XX c black",
"oX c black",
"OX c black",
"+X c black",
"@X c black",
"#X c black",
"$X c black",
"%X c black",
"&X c black",
"*X c black",
"=X c black",
"-X c black",
";X c black",
":X c black",
">X c black",
",X c black",
"<X c black",
"1X c black",
"2X c black",
"3X c black",
"4X c black",
"5X c black",
"6X c black",
"7X c black",
"8X c black",
"9X c black",
"0X c black",
"qX c black",
"wX c black",
"eX c black",
"rX c black",
"tX c black",
"yX c black",
"uX c black",
"iX c black",
"pX c black",
"aX c black",
"sX c black",
"dX c black",
"fX c black",
"gX c black",
"hX c black",
"jX c black",
"kX c black",
"lX c black",
"zX c black",
"xX c black",
"cX c black",
"vX c black",
"bX c black",
"nX c black",
"mX c black",
"MX c black",
"NX c black",
"BX c black",
"VX c black",
"CX c black",
"ZX c black",
"AX c black",
"SX c black",
"DX c black",
"FX c black",
"GX c black",
"HX c black",
"JX c black",
"KX c black",
"LX c black",
"PX c black",
"IX c black",
"UX c black",
/* pixels */
"              . . X o o O O O O O O O O O O O O O               ",
"            X + @ @ @ @ @ @ @ @ @ @ @ @ @ @ @ @ o O             ",
"            X @ @ @ @ @ @ @ @ @ @ @ @ @ @ @ @ @ @ O             ",
"            X @ . # # # # # # # $ $ $ $ # # # . @ O             ",
"            X @ $ % & & & & & & & & & % # X X # @ O             ",
"            X @ $ * = = = = = = = = = & # X % # @ O             ",
"            X @ # * = - ; - = - - ; = & # X X # @ O             ",
"            X @ # * = = ; ; ; ; = ; = & # X X # @ O             ",
"            X @ # * = - = - - = ; - = & # X & # @ O             ",
"            X @ # * = - - - = - - ; = & # X X # @ O             ",
"            X @ $ * = = = = = = = = = & # X & # @ O             ",
"            X @ $ % * * * * * * * * * % # X X # @ o             ",
"            X @ . # # # # # # # # # # # # # # . @ o             ",
"            X + @ @ @ @ @ @ @ @ @ @ @ @ @ @ @ @ @ o             ",
"            . X + + + + + + + + + + + + + + + + + o             ",
"              . . . . . . . . . . . . . . . . . .               ",
"              : : : % % : : : : : : : : % % : : :               ",
"          X X X X X X X X X X X X X X X X X X X X X X           ",
"        X X + + @ @ @ @ @ @ @ @ @ @ @ @ @ o @ @ o @ o O         ",
"        X @ @ @ @ @ @ @ @ : : : : : : : : : : : : : o O         ",
"        X @ % # @ @ @ @ @ % # # # # # # # # # # $ $ @ O         ",
"        X @ # % @ @ @ @ @ % # & : & # # # & : & # # @ O         ",
"        X @ @ @ @ @ @ @ @ % & * & * & # & * & * & # @ O         ",
"        X @ # . # . # . @ % # & : & # # # & : & # # @ O         ",
"        X @ # . # . # . @ % # # # # # # # # # # # # @ O         ",
"        $ $ X X X X X X X X X X X X X X X X X X X X X X         ",
"      $ + @ @ @ @ @ @ @ o @ @ o @ @ o @ @ o o o o o o o O       ",
"    $ + @ @ > > # # > > # # > > # # > > # # > > # > > @ @ O     ",
"  $ + @ @ > # # > > # # > > # # > > # # > > # # > > # # @ @ O   ",
"$ + @ @ # # > > # # > > # > > > > > > > > # > > # # > > # @ @ O ",
"$ X + @ @ @ @ @ @ @ @ @ @ @ @ @ @ @ @ @ @ @ @ @ @ @ @ @ @ @ @ X ",
"$ $ X X X X X X X X X X X X X X X X X X X X X X X X X X X X $ $ "
};
