/* XPM */
static const char *open[] = {
/* columns rows colors chars-per-pixel */
"64 64 80 1 ",
"  c #030E21",
". c #1E1C21",
"X c #252421",
"o c #232127",
"O c #252426",
"+ c #292725",
"@ c #2A2825",
"# c #2E2C27",
"$ c #23222A",
"% c #252328",
"& c #272528",
"* c #22212C",
"= c #24222C",
"- c #28262B",
"; c #29262C",
": c #2F2C2A",
"> c #2D2A2D",
", c #302D2A",
"< c #312F2F",
"1 c #32302A",
"2 c #32302D",
"3 c #35332F",
"4 c #37342F",
"5 c #2F2C3E",
"6 c #302D3F",
"7 c #363430",
"8 c #373434",
"9 c #383631",
"0 c #3B3735",
"q c #3B3833",
"w c #3C3833",
"e c #3F3A36",
"r c #35323D",
"t c #3F3B3B",
"y c #3F3A3C",
"u c #413D37",
"i c #433E38",
"p c #443F3A",
"a c #45403A",
"s c #43403D",
"d c #47423C",
"f c #4A453F",
"g c #517332",
"h c #333041",
"j c #494641",
"k c #4B4842",
"l c #504A44",
"z c #524C44",
"x c #59534D",
"c c #59544D",
"v c #5C564F",
"b c #625B52",
"n c #635C54",
"m c #665E57",
"M c #666057",
"N c #686056",
"B c #69625A",
"V c #6B655C",
"C c #6C645C",
"Z c #71675C",
"A c #746A5F",
"S c #6E6860",
"D c #726B63",
"F c #756D63",
"G c #756E66",
"H c #787066",
"J c #7A736A",
"K c #7C756C",
"L c #81786E",
"P c #817A70",
"I c #847D74",
"U c #28D90F",
"Y c #878076",
"T c #8D857B",
"R c #90887D",
"E c #9C968E",
"W c #A59E95",
"Q c #A9A39B",
"! c #ACA59D",
"~ c white",
/* pixels */
"              CJJJJJJJJJJJJJJJJJJJJJJJJJJJJJJJJJJJ              ",
"              DJJJJJJJJJJJJJJJJJJJJJJJJJJJJJJJJJJJ              ",
"            JJJJJJJJJJJJJJJJJJJJJJJJJJJJJJJJJJJJJJJJ            ",
"            JJJJJJJJJJJJJJJJJJJJJJJJJJJJJJJJJJJJJJJJ       ~    ",
"            JJ!!!!!!!!!!!!!!!!!!!!!!!!!!!!!!!!!!!!JJ            ",
"            JJ!!!!!!!!!!!!!!!!!!!!!!!!!!!!!!!!!!!!JJ            ",
"            JJ!!JJJJJJJJJJJJJJJJJJJJJJJJJJJJJJJJ!!JJ            ",
"    ~       JJ!!JJJJJJJJJJJJJJJJJJJJJJJJJJJJJJJJ!!JJ            ",
"            JJ!!JJe:&oooooooooo%&;;;;>3qilJJJJJJ!!JJ            ",
"            JJ!!JJ8-=****************$O:ezJJJJJJ!!JJ            ",
"            JJ!!JJrggggggggggggggggggg$&ezJgggJJ!!JJ            ",
"            JJ!!JJhggggggggggggggggggg*o0zJgggJJ!!JJ            ",
"            JJ!!JJ6ggggggggggggggggggg*o0zJJJJJJ!!JJ            ",
"            JJ!!JJ5ggggggggggggggggggg*o0zJJJJJJ!!JJ            ",
"            JJ!!JJ5gggg**gggg****ggggg*o0zJJJJJJ!!JJ            ",
"         ~  JJ!!JJ5ggggeegggg*gggegggg*o0zJJJJJJ!!JJ       ~    ",
"            JJ!!JJ5gggggggggg*gggegggg*o0zJgggJJ!!JJ            ",
"            JJ!!JJ5gggggggggg*gggegggg*o0zJgggJJ!!JJ            ",
"            JJ!!JJ5gggggggggg*gggegggg*o0zJJJJJJ!!JJ            ",
"            JJ!!JJ6gggg**gggg*gggegggg*o0zJJJJJJ!!JJ   ~        ",
"            JJ!!JJhggggeeggggeeeeggggg*o0zJgggJJ!!JJ            ",
"   ~        JJ!!JJrggggggggggggggggggg=&ezJgggJJ!!JJ            ",
"            JJ!!JJ8ggggggggggggggggggg-:ezJJJJJJ!!JJ            ",
"            JJ!!JJeggggggggggggggggggg<4ulJJJJJJ!!JJ            ",
"            JJ!!JJfetyyyyyyyyyyyyyyyyteuafJJJJJJ!!JJ            ",
"            JJ!!JJJJJJJJJJJJJJJJJJJJJJJJJJJJJJJJ!!JJ            ",
"            JJ!!JJJJJJJJJJJJJJJJJJJJJJJJJJJJJJJJ!!JJ            ",
"            JJ!!!!!!!!!!!!!!!!!!!!!!!!!!!!!!!!!!!!JJ            ",
"            JJJ!!!!!!!!!!!!!!!!!!!!!!!!!!!!!!!!!!!JJ            ",
"            JJJJJJJJJJJJJJJJJJJJJJJJJJJJJJJJJJJJJJJJ            ",
"              JJJJJJJJJJJJJJJJJJJJJJJJJJJJJJJJJJJJ              ",
"              xxxxxccvvccxxxxxxxxxxxxxxccvvccxxxxx              ",
"              2222239ww932222222222222239ww9322222              ",
"    ~         q77779eeee9777777777777779eeee97777q              ",
"          JJHJJJJJJJJJJJJJJJJJJJJJJJJJJJJJJJJJJJJJJJJJ          ",
"          JJJJJJJJJJJJJJJJJJJJJJJJJJJJJJJJJJJJJJJJJJJJ          ",
"        JJJJQQQQQQQQQQQEEEEEEEEEEEEEEEEQQQQQQQQQQQQQQQQQ        ",
"        JJJJQQQQQQQQQQQQQQQQQQQQQQQQQQQQQQQQQQQQQQQQQQQQ    ~   ",
"        HPQQQQQQQQQQQQQQQQkssssssssssssssdjjdssdjjdkQQQQ        ",
"        HIEQkkkkkQQQQQQQQQdX+@@@@@@@@@@@@@@@@@@@:,,kQQQQ        ",
"        HIQQ@@@@kQQQQQQQQQj#dddddddddddddddddddddddkQQQQ        ",
"  ~     JJQQ@UU@kQQQQQQQQQk1dddddddddddddddddddddddkQQQQ        ",
"        JJQQ@UU@kQQQQQQQQQk1dd..dd..dddddd..dd..dddkQQQQ        ",
"        JJQQ@@@@kQQQQQQQQQk:dd......ddppdd......dddkQQQQ        ",
"        JJQQQQQQQQQQQQQQQQk+..UU..UU..ee..UU..UU..dkQQQQ      ~ ",
"        JJQkkkkkkkkkkkkkQQk+..UU..UU..ee..UU..UU..dkQQQQ        ",
"        JJQ@@@@@@@@@@@@kQQk:dd......dddddd......dddkQQQQ        ",
"        JJQ@UU@@UU@@UU@kQQk1dd..dd..dddddd..dd..dddkQQQQ        ",
"        JJQ@UU@@UU@@UU@kQQk1ddddddddpddddddddddddddkQQQQ        ",
"        DJQ@@@@@@@@@@@@kQQk111111111111111111111111kQWQQ        ",
"        nmCSCCDDCCDDCCDJPKCMBVVVVVVVVVVVVVVVVVVVVVVDKYTR        ",
"        mBCGJJJJJJJJJJJJJJJJJJJJJJJJJJJJJJJJJJJJJJJJJJJJ        ",
"      vmGJJJJJJJJJJJJJJJJJJJJJJJJJJJJJJJJJJJJJJJJJJJJJJJJJ      ",
"      mDJUUJJJJJJJJJJJJJJJJJJJJJJJJJJJJJJJJJJJJJJJJJJJJJJJ      ",
"    vmGJJUUJJJJJzzzzJJJJzzzzJJJJzzzzJJJJzzzzJJJJzzzzJJJJJJJJ    ",
"    mJJJJJJJJJJJzzzzJJJJzzzzJJJJzzzzJJJJzzzzJJJJzzzzJJJJJJJJ    ",
"  vmJJJJJJJFzzzzbNNbzzzzbNNbzzzzbNNbzzzzbNNbzzzzbBZBzzzzJJJJJJ  ",
"  mJJJJJJJDbzzzzbNNbzzzzbBZBzzzzBAABzzzzBZBbzzzzbNNbzzzzJJJJJJ  ",
"vmJJJJJJzzzzbNNbzzzzbNNbzzzzBNNBzzzzBNNBzzzzbNNbzzzzbNNmzzzJJJJJ",
"vmJJJJJJzzzzJJJJzzzzJJJJzzzzLLLLzzzzLJJJzzzzHLLHzzzzHLLHzzzJJJJJ",
"vmJJJJJJJJJJJJJJJJJJJJJJJJJJJJJJJJJJJJJJJJJJJJJJJJJJJJJJJJJJJJJJ",
"vbJJJJJJJJJJJJJJJJJJJJJJJzzzzzzzzzzzzzzzzzJJJJJJJJJJJJJJJJJJJJJJ",
"vvbJJJJJJJJJJJJJJJJJJJJJJzzzzzzzzzzzzzzzzzJJJJJJJJJJJJJJJJJJJJJJ",
"vvvnJJJJJJJJJJJJJJJJJJJJJJJJJJJJJJJJJJJJJJJJJJJJJJJJJJJJJJJJJJJJ"
};
