/* XPM */
static const char *player[] = {
/* columns rows colors chars-per-pixel */
"64 64 77 1 ",
"  c #020202",
". c #090002",
"X c #01040A",
"o c #000C0F",
"O c #070610",
"+ c #121416",
"@ c #151618",
"# c #17181A",
"$ c #1A1A1B",
"% c #201F1F",
"& c #2B1F1C",
"* c #1C201F",
"= c #24211C",
"- c #2D2119",
"; c #030E21",
": c #0D1C25",
"> c #1F1F21",
", c #1E2225",
"< c #1C232C",
"1 c #232323",
"2 c #292423",
"3 c #242628",
"4 c #27282A",
"5 c #2D2D2D",
"6 c #343434",
"7 c #3B6614",
"8 c #17324B",
"9 c #3C3E41",
"0 c #3F4144",
"q c #284059",
"w c #154668",
"e c #414244",
"r c gray29",
"t c #4F5356",
"y c #525354",
"u c #5F5F5F",
"i c #6C6D6E",
"p c #717172",
"a c #7A7A7A",
"s c #768289",
"d c #808183",
"f c #908E8F",
"g c #8B9399",
"h c #B4B7BA",
"j c gray73",
"k c #BCBFC2",
"l c #CECFD1",
"z c #CED3D7",
"x c #CFD5DB",
"c c #D3D4D6",
"v c #D9D6D2",
"b c #D1D6D9",
"n c #D5D5D9",
"m c #D2D5DD",
"M c #D3D8DB",
"N c #D1D8DE",
"B c #D6DBDE",
"V c #D8DAD9",
"C c #DBDCDE",
"Z c #DDDDDD",
"A c #EDD3C1",
"S c #D8DDE1",
"D c #E1E2E4",
"F c #E6E6E6",
"G c #E5E7EC",
"H c #E6EAEB",
"J c #EBEFF0",
"K c #EDEEF0",
"L c #F4F6F5",
"P c #F6F8FA",
"I c #F9F8F9",
"U c #F8FCFB",
"Y c #FFFFF8",
"T c #FAFAFC",
"R c #FCFAFD",
"E c #FBFDFC",
"W c white",
/* pixels */
";;;;;;;;;;;;;;;;;;;;;;;;;;;;;;;;;;;;;;;;;;;;;;;;;;;;;;;;;;;;;;;;",
";;;;;;;;;;;;;;;;;;;;;;;;;;;;;;;;;;;;;;;;;;;;;;;;;;;;;;;;;;;;;;;;",
";;;;;;;;;;;W;;;;;;;;;;;;;;;;;;;;;;;;;;;;;;;;;;;;;;;;;;;;;;;;;;;;",
";;;;;;;;;;;;;;;;;;;;;;;;;;;;;;;;;;;;;;;;;;;;;;;;;;;;;;;;;;;;;;;;",
";;;;;;;;;;;;;;;;;;;;;;;;;;;;;;;;;;;;;;;;;;;;;;;;;;;;;;;;;;;;;;;;",
";;;;;;;;;;;;;;;;;;;;;;;;;;;;;;;W;;;;;;;;;;;;;;;;;;;;;;;;;;W;;;;;",
";;;;;;;;;;;;;;;;;;;;;;;;;;;;;;;;;;;;;;;;;;;;;;;;;;;;;;;;;;;;;;;;",
";;;;;;;;;;;;;;;;;;;;;;;;;;;;;;;;;;;;;;;;;;;;;;;;;;;;;;;;;;;;;;;;",
";;;;W;;;;;;;;;;;;;;;;;;;;;;;;;;;;;;;;;;;;;;;;;;;;A;;;;;;;;;;;;;;",
";;;;;;;;;;;;;;;;;;;;;;;;;;;;;;;;;;;;;;;;;;;;;;;;;;;;;;;;;;;;;;;;",
";;;;;;;;;;;;;;;;;;;;;;;;;;;11111111111;;;;;;;;;;;;;;;;;;W;;;;;;;",
";;;;;;;;;;;;;;;;;;;;;;;;;w1WWWWWWWWWWW1;;;;;;;;;;;;;;;;;;;;;;;;;",
";;;;;;;;;;;;;;;;;;;;;;;;;MWWWWWWWWWWWWI3;;;;;;;;;;;;;;;;;;;;;;;;",
";;;;;;;;;;;;;;;;;;;;qvv83WWW655556565WWc,;;;;;;;;;;;;;;;;;;;;;;;",
";;;;;;;;;;;;;;;;;;;-Wcm1WW   pp       1mn ;;;;;;;;;;;;;;;;;;;;;;",
";;;;;;;;;;;;;;;;;;&YE,11W5 ipi######   bb ;;;;;;;;;;;;;;;;;;;;;;",
";;;;;;;;;W;;;;;;;;,Wc;;2W5ip########## bb ;;;;;;;;;;;;;;;;;;;;;;",
";;;;;;;;;;;;;;;;;;;gG1f1W5e$$WW$$$WW$$@bx s;;;;;;;;;;;;;;;;;;;;;",
";;;;;;;;;;;;;;;;;;;1R*W1W5+@@W7@@@7W@@+bbXW;;;;;;;;;;;;;;;;;;;;;",
";;;;;;;;;;;;;;;;;;;;3,W1W5 ###########ubb W;;;;;;;;;;;;;;;;;;;;;",
";;;;;;;;;;;;;;;;;;;;;1Wb15   @@@@@##ii z bW;;;;;;;;;;;;;;;;;;;;;",
";;;;;;;;;;;;;;;;;;;;;<WNtDe9      ry ey,0bW;;;;;;;;;;;;;;;;;;;;;",
";;;;;;;;;;;;;;;;;;;;;<Wbbe1bbbbbbbbbbx bxbY;;;;;;;;;;;;;;;;;;;;;",
";;;;;;;;;;;;;;;;;;;;;<Wx1nm1111111    c  bI;;;;;;;;;;;;;;;;;;;;;",
";;;;;;;;;;;;;;;;;;;;;<11WWnWW5WWWWW1,1bbb  ;;;;;;;;;;;W;;;;;;;;;",
";;;;;;;;;;;;;;;;;;;;;:bWWWWb,bWWWWW4,$cTWWl;;;;;;;;;;;;;;;;;;;;;",
";;;;;;;;;;;;;;;;;;;;;nWWWWWW,WWWWWWxWxWWWWb3;;;;;;;;;;;;;;;;;;;;",
";;;;;;;;;;;;;;;;;;;;,EWWWWn1b1WWWWW,WWBWWWUz,;;;;;;;;;;;;;;;;;;;",
";;;;;;;;;;;;;;;;;;;;1WWWWC1W1,1WWW,W,WWYWWWb1;;;;;;;;;;;;;;;;;;;",
";;;;;;;;;;;;;;;;;;;;%IWWW0WW1Z#WWW,,,WhIYWWb1;;;;;;;;;;;;;;;;;;;",
";;;;;;;;;;;;;;;;;;;2In$$$kWWc1IWWWI,bbS3bWWbb<;;;;;;;;;;;;;;;;;;",
";;;;;;;;;;;;;;;;;;;1WWWbzhEWbWb11,IWbWb1bWWWb<;;;;;;;;;;;;;;;;;;",
";;;;;;;;;;;;;;;;;;;1WWWbxhEWbP#,,,1EbWb3bWWWb<;;;;;;;;;;;;;;;;;;",
";;;;;;;;;;;;;;;;;;;=WWWbbjWWcH1WWW5IcWb1bWWWb,;;;;;;;;;;;;;;;;;;",
";;;;;;;;;;;;;;;;;;3WWWnb3TWWWI31111EWWbz3MWWxx1;;;;;;;;;;;;;;;;W",
";;;;;;;;;;;;;W;;;;X11W131VWWWEIWWWWWWmb31bWW11 ;;;;;;;;;;;;;;;;;",
";;;;;;;;;;;;;;;;;;Xbb1113911WWWWWWWWb=1z111111X;;;;;;;;;;;;;;;;;",
";;;;;;;;;;;;;;;;;;Xbbx11 bxb111111111nxx bbb11X;;;;;;;;;;;;;;;;;",
";;;;;;;;;;;;;;;;;;Xbb$1 3JWWWWWWWWWWEbbb1 bb11X;;;;;;;;;;;;W;;;;",
";;;;;;;;;;;;;;;;;;X1111 1PWWWWWWnWWWWWbb1 b311X;;;;;;;;;;;;W;;;;",
";;;;;;;;;;;;;;;;;;;  1 ;1WWWWWWb1WWWWWbb1; 1  ;;;;;;;;;;;;;;;;;;",
";W;;;;;;;;;;;;;;;;;;; ;;1WWWWWbx1cWWWWbb1;; ;;;;;;;;;;;;;;;;;;;;",
";;;;;;;;;;;;;;;;;;;;;;;;1WWWWWbx3nWWWWKb1;;;;;;;;;;;;;;;;;;;;;;;",
";;;;;;;;;;;;;;;;;;;;;;;;1WWWWWbx3nWWWWIb1;;;;;;;;;;;;;;;;;;;;;;;",
";;;;;;;;;;;;;;;;;;;;;;;;1WWWWWcx1cWWWWWb1;;;;;;;;;W;;;;;;;;;;;;;",
";;;;;;;;;;;W;;;;;;;;;;;;11WWWW>1,1FWWWn11;;;;;;;;;;;;;;;;;;;;;;;",
";;;;;;;;;;;;;;;;;;;;;;;;1Liaiixx1Fpaaidb1;;;;;;;;;;;;;;;;;;;;;;;",
";;;;;;;;;;;;;;;;;;;;;;;;1WWWWIbx1WYWWWbb1;;;;;;;;;;;;;;;;;;;;;;;",
";;;;;;;;;;;;;;;;;;;;;;;;       b1n       ;;;;;;;;;;;;;;;;;;;;;;;",
";;;;;;;;;;;;;;;;;;;;;;; bbbbbl1 1 bbbbb11 ;;;;;;;;;;;;;;;;;;;;;;",
";;;;;;;;;;;;;;;;;;;;;;Xczzzzzz11 zzzzzzz11O;;;;;;;;;;;;;;;;;;;;;",
";;;;;;;;;;;;;;;;;;;;;; bbbbbz1$1 bbbbbk111O;;;;;;;;;;;;;;;;;;;;;",
";;;;;;;;;;;;;;;;;;;;;;X111111111 111111111o;;;;;;;;;;;;;;;;;;;;;",
";;;;;;;;;;;;;;;;;;;;;;         .;         X;;;;;;;;;;;;;;;;;;;;;",
";;;;W;;;;;;;;;;;;;;;;;;;;;;;;;;;;;;;;;;;;;;;;;;;;;;;;;;;;;;;;;;;",
";;;;;;;;;;;;;;;;;;;;;;;;;;;;;;;;;;;;;;;;;;;;;;;;;;;;;;W;;;;;;;;;",
";;;;;;;;;;;;;;;;;;;;;;W;;;;;;;;;;;;;;;;;;;;;;;;;;;;;;;;;;;;;;;;;",
";;;;;;;;;;;;;;;;;;;;;;;;;;;;;;;;;;;;;;;;;;;;;;;;;;;;;;;;;;;;;;;;",
";;;;;;;;;;;;W;;;;;;;;;;;;;;;;;;;;;;;;;;;;;;;;;;;;;;;;;;;;;;;;;;;",
";;;;;;;;;;;;;;;;;;;;;;;;;;;;;;;;;;;;;;;;;;;;;;;;;;;;;;;;;;;;;;;;",
";;;;;;;;;;;;;;;;;;;;;;;;;;;;;;;;A;;;;;;;;;;;;;;;;;;;;;;;;A;;;;;;",
";;;;;;;;;;;;;;;;;;;;;;;;;;;;;;;;;;;;;;;;;;;;;;;;;;;;;;;;;;;;;;;;",
";;;;;;;;;;;;;;;;;;;;;;;;;;;;;;;;;;;;;;;;;;;;;;;;;;;;;;;;;;;;;;;;",
";;;;;;;;;;;;;;;;;;;;;;;;;;;;;;;;;;;;;;;;;;;;;;;;;;;;;;;;;;;;;;;;"
};
