/* XPM */
static const char *collect5[] = {
/* columns rows colors chars-per-pixel */
"64 64 49 1 ",
"  c black",
". c #030504",
"X c #070606",
"o c #0A0908",
"O c #0A0F0C",
"+ c #0E1411",
"@ c #171412",
"# c #181513",
"$ c #181616",
"% c #1B1A16",
"& c #151F19",
"* c #1F1B18",
"= c #221B18",
"- c #221E1A",
"; c #291F1C",
": c #18241D",
"> c #25211E",
", c #29231F",
"< c #030E21",
"1 c #1F2E26",
"2 c #232723",
"3 c #2A2521",
"4 c #2D2824",
"5 c #2C2D27",
"6 c #312D29",
"7 c #342F2B",
"8 c #223128",
"9 c #293229",
"0 c #38332F",
"q c #2A3E33",
"w c #2D4337",
"e c #344438",
"r c #38463D",
"t c #344D3F",
"y c #46403C",
"u c #364E40",
"i c #385344",
"p c #3F5548",
"a c #425549",
"s c #4A574E",
"d c #4D5A4F",
"f c #625E5B",
"g c #7E7168",
"h c #7F746A",
"j c #82756B",
"k c #8C7C71",
"l c #907F73",
"z c #978477",
"x c #9B8779",
/* pixels */
"<<<<<<<<<<<<<<<<<<<<<<<<<<<<<<<<<<<<<<<<<<<<<<<<<<<<<<<<<<<<<<<<",
"<<<<<<<<<<<<<<<<<<<<<<<<<<<<<<<<<<<<<<<<<<<<<<<<<<<<<<<<<<<<<<<<",
"<<<<<<<<<<<<<<<<<<<<<<<<<<<<<<<<<<<<<<<<<<<<<<<<<<<<<<<<<<<<<<<<",
"<<<<<<<<<<<<<<<<<<<<<<<<<<<<<<<<<<<<<<<<<<<<<<<<<<<<<<<<<<<<<<<<",
"<<<<<<<<<<<<<<<<<<<<<<<<<<<<<<<<<<<<<<<<<<<<<<<<<<<<<<<<<<<<<<<<",
"<<<<<<<<<<<<<<<<<<<<<<<<<<<<<<<<<<<<<<<<<<<<<<<<<<<<<<<<<<<<<<<<",
"<<<<                   $ffffffffffffffffffffffffff  <<<<<<<<<<<<",
"<<<<  XooooX           2ffffffffffffffffffffffffff  <<<<<<<<<<<<",
"<<<<  @****@  1qqqqqqqqrffjkkkkkkkkkkkkkkkkkkkkjff6#  <<<<<<<<<<",
"<<<<  *3333*  qiiiiiiiiaffkxxxxxxxxxxzlkkkklzxxkff0-  <<<<<<<<<<",
"<<<<  *3333*  qiiiiiiiiaffkxxxxxxxxxxlfffffflxxkff0>-#  <<<<<<<<",
"<<<<  *3333*  qiiiiiiiiaffkxxxxxxxxxxkffffffkxxkff033-  <<<<<<<<",
"<<<<  *3333*  qiiiiiiiiaffkxxxxxxxxxxkffssffkxxkff033>-#  <<<<<<",
"<<<<  *3333*  qiiiiiiiiaffkxxxxxxxxxxkffaaffkxxkff03333-  <<<<<<",
"<<<<  *3333*  qiiiiiiiiaffkxxxxxxxxxxkffaaffkxxkff03333>-#  <<<<",
"<<<<  *3333*  qiiiiiiiiaffkxxxxxxxxxxkffssffkxxkff0333333*  <<<<",
"<<<<  *3333*  qiiiiiiiiaffkxxxxxxxxxxkffffffkxxkff0333333*  <<<<",
"<<<<  *3333-  9euiiiiiipffhlzxxxxxxxxlfffffflzlgff7333333*  <<<<",
"<<<<  *3333>-=  eiiiiiiipdfflxxxxxxxxzlkkkklzlffy74333333*  <<<<",
"<<<<  *333333;  9qqqqqqqqrffjkkkkkkkkkkkkkkkkjff033333333*  <<<<",
"<<<<  *333333,;=          ffffffffffffffffffffff033333333*  <<<<",
"<<<<  *33333333-          ffffffffffffffffffffff733333333*  <<<<",
"<<<<  *33333333>-********>6000000000000000000007433333333*  <<<<",
"<<<<  *33333333333333333333333333333333333333333333333333*  <<<<",
"<<<<  *33333333333333333333333333333333333333333333333333*  <<<<",
"<<<<  *33333333333333333333333333333333333333333333333333*  <<<<",
"<<<<  *33333333333333333333333333333333333333333333333333*  <<<<",
"<<<<  *33333333333333333333333333333333333333333333333333*  <<<<",
"<<<<  *33333333333333333333333333333333333333333333333333*  <<<<",
"<<<<  *33333333333333333333333333333333333333333333333333*  <<<<",
"<<<<  *33333333333333333333333333333333333333333333333333*  <<<<",
"<<<<  *333333>-******************************->3333333333*  <<<<",
"<<<<  *333333-                                -3333333333*  <<<<",
"<<<<  *3333>-%                                %->33333333*  <<<<",
"<<<<  *3333-  8qqqqqqqqqqqqqqqqqqqqqqqqqqqqqq8  -33333333*  <<<<",
"<<<<  *33>-%  wiiiiiiiiiiiiiiiiiiiiiiiiiiiiiiw  %->333333*  <<<<",
"<<<<  *33-  8wtiiiiiiiiiiiiiiiiiiiiiiiiiiiiiitw8  -333333*  <<<<",
"<<<<  *33*  qiiiiiitwqqqqqqqqqqqqqqqqqqwtiiiiiiq  *333333*  <<<<",
"<<<<  *33*  qiiiiiiw:                 +:wiiiiiiq  *333333*  <<<<",
"<<<<  *33*  qiiiitw1O                   1wtiiiiq  *333333*  <<<<",
"<<<<  *33*  qiiiiw:  O1qqqqqqqqqqqqqq1    wiiiiq  *333333*  <<<<",
"<<<<  *33*  qiiiiq   &8qqqqqqqqqqqqqq8&O  qiiiiq  *333333*  <<<<",
"<<<<  *33*  qiiiiq  18               &81  qiiiiq  *333333*  <<<<",
"<<<<  *33*  qiiiiq  qw               :wq  qiiiiq  *333333*  <<<<",
"<<<<  *33*  qiiiiq  qtwqqqqqqqqqqqqqqwtq  qiiiiq  *333333*  <<<<",
"<<<<  *33*  qiiiiq  qtwqqqqqqqqqqqqqqwtq  qiiiiq  *333333*  <<<<",
"<<<<  *33*  qiiiiq  qw               :wq  qiiiiq  *333333*  <<<<",
"<<<<  *33*  qiiiiq  18               &81  qiiiiq  *333333*  <<<<",
"<<<<  *33*  qiiiiq   &8qqqqqqqqqqqqqq8    qiiiiq  *333333*  <<<<",
"<<<<  *33*  qiiiiw:  O1qqqqqqqqqqqqqq1  O:wiiiiq  *333333*  <<<<",
"<<<<  *33*  qiiiitw1O                 .O1wtiiiiq  *333333*  <<<<",
"<<<<  *33*  qiiiiiiw:                 +:wiiiiiiq  *333553*  <<<<",
"<<<<  *33*  qiiiiiitwqqqqqqqqqqqqqqqqqqwtiiiiiiq  *335  5*  <<<<",
"<<<<  *33*  qiiiiiiiiiiiiiiiiiiiiiiiiiiiiiiiiiiq  *335  5*  <<<<",
"<<<<  *33*  qiiiiiiiiiiiiiiiiiiiiiiiiiiiiiiiiiiq  *333553*  <<<<",
"<<<<  @**@  1qqqqqqqqqqqqqqqqqqqqqqqqqqqqqqqqqq1  @******@  <<<<",
"<<<<  X                                           XooooooX  <<<<",
"<<<<                                                        <<<<",
"<<<<<<<<<<<<<<<<<<<<<<<<<<<<<<<<<<<<<<<<<<<<<<<<<<<<<<<<<<<<<<<<",
"<<<<<<<<<<<<<<<<<<<<<<<<<<<<<<<<<<<<<<<<<<<<<<<<<<<<<<<<<<<<<<<<",
"<<<<<<<<<<<<<<<<<<<<<<<<<<<<<<<<<<<<<<<<<<<<<<<<<<<<<<<<<<<<<<<<",
"<<<<<<<<<<<<<<<<<<<<<<<<<<<<<<<<<<<<<<<<<<<<<<<<<<<<<<<<<<<<<<<<",
"<<<<<<<<<<<<<<<<<<<<<<<<<<<<<<<<<<<<<<<<<<<<<<<<<<<<<<<<<<<<<<<<",
"<<<<<<<<<<<<<<<<<<<<<<<<<<<<<<<<<<<<<<<<<<<<<<<<<<<<<<<<<<<<<<<<"
};
