/* XPM */
static const char *collect3[] = {
/* columns rows colors chars-per-pixel */
"64 64 43 1 ",
"  c #030E21",
". c #000150",
"X c #000156",
"o c #000158",
"O c #0D0E5A",
"+ c #13135A",
"@ c #26265D",
"# c #010262",
"$ c #060765",
"% c #020368",
"& c #02036E",
"* c #080968",
"= c #08096E",
"- c #1A1964",
"; c #1B1C65",
": c #14146A",
"> c #14146C",
", c #1A1A6A",
"< c #030470",
"1 c #202168",
"2 c #292A6F",
"3 c #302D68",
"4 c #292A71",
"5 c #2E2F73",
"6 c #37387A",
"7 c #3C3D7D",
"8 c #625E5B",
"9 c #5D5A63",
"0 c #5C5966",
"q c #424172",
"w c #4E4E7F",
"e c #504F7C",
"r c #545374",
"t c #585576",
"y c #82756B",
"u c #80736E",
"i c #8C7C71",
"p c #907F73",
"a c #978477",
"s c #9B8779",
"d c #454684",
"f c #4B4C85",
"g c #4A4B88",
/* pixels */
"                                                                ",
"                                                                ",
"                                                                ",
"                                                                ",
"                                                                ",
"                                                                ",
"    ....................88888888888888888888888888..            ",
"    ....................88888888888888888888888888..            ",
"    ..#%%%%#..266666666q88yiiiiiiiiiiiiiiiiiiiiy88-#..          ",
"    ..%<<<<%..6gggggggge88issssssssssapiiiipassi88,%..          ",
"    ..%<<<<%..6gggggggge88issssssssss8888888pssi88,&%#..        ",
"    ..%<<<<%..6gggggggge88issssssssss8888888issi88,<<%..        ",
"    ..%<<<<%..6gggggggge88issssssssss889rr88issi88,<<&%#..      ",
"    ..%<<<<%..6gggggggge88issssssssss880ee88issi88,<<<<%..      ",
"    ..%<<<<%..6gggggggge88issssssssss880ee88issi88,<<<<&%#..    ",
"    ..%<<<<%..6gggggggge88issssssssss889rr88issi88,<<<<<<%..    ",
"    ..%<<<<%..6gggggggge88issssssssss8888888issi88,<<<<<<%..    ",
"    ..%<<<<%..47dggggggw88upassssssss8888888pa8888><<<<<<%..    ",
"    ..%<<<<&%$..7ggggggfwt88pssssssssapiiiipap883>=<<<<<<%..    ",
"    ..%<<<<<<%..466666666q88yiiiiiiiiiiiiiiiiy88,<<<<<<<<%..    ",
"    ..%<<<<<<&%$.........@8888888888888888888888,<<<<<<<<%..    ",
"    ..%<<<<<<<<%.........+8888888888888888888888><<<<<<<<%..    ",
"    ..%<<<<<<<<&%%%%%%%%%*:,,,,,,,,,,,,,,,,,,,,>=<<<<<<<<%..    ",
"    ..%<<<<<<<<<<<<<<<<<<<<<<<<<<<<<<<<<<<<<<<<<<<<<<<<<<%..    ",
"    ..%<<<<<<<<<<<<<<<<<<<<<<<<<<<<<<<<<<<<<<<<<<<<<<<<<<%..    ",
"    .o%<<<<<<<<<<<<<<<<<<<<<<<<<<<<<<<<<<<<<<<<<<<<<<<<<<%..    ",
"    .o%<<<<<<<<<<<<<<<<<<<<<<<<<<<<<<<<<<<<<<<<<<<<<<<<<<%..    ",
"    .o%<<<<<<<<<<<<<<<<<<<<<<<<<<<<<<<<<<<<<<<<<<<<<<<<<<%..    ",
"    .o%<<<<<<<<<<<<<<<<<<<<<<<<<<<<<<<<<<<<<<<<<<<<<<<<<<%..    ",
"    .o%<<<<<<<<<<<<<<<<<<<<<<<<<<<<<<<<<<<<<<<<<<<<<<<<<<%..    ",
"    .o%<<<<<<<<<<<<<<<<<<<<<<<<<<<<<<<<<<<<<<<<<<<<<<<<<<%..    ",
"    .o%<<<<<<&%%%%%%%%%%%%%%%%%%%%%%%%%%%%%%%%&<<<<<<<<<<%..    ",
"    .o%<<<<<<%................................%<<<<<<<<<<%..    ",
"    .o%<<<<&%$................................$%&<<<<<<<<%..    ",
"    .o%<<<<%..46666666666666666666666666666664..<<<<<<<<<%..    ",
"    .o%<<&%$..7gggggggggggggggggggggggggggggg7..<<&<<<<<<%..    ",
"    .o%<<%..47dggggggggggggggggggggggggggggggd74..%<<<<<<%..    ",
"    .o%<<%..6ggggggd76666666666666666667dgggggg6..%<<<<<<%..    ",
"    .o%<<%..6gggggg.....................7gggggg6..%<<<<<<%..    ",
"    .o%<<%..6ggggd7.....................27dgggg6..%<<<<<<%..    ",
"    .o%<<%..6gggg7...O2666666666666662....7gggg6..%<<<<<<%..    ",
"    .o%<<%..6gggg6..O;5666666666666665....6gggg6..%<<<<<<%..    ",
"    .o%<<%..6gggg6..25................52..6gggg6..%<<<<<<%..    ",
"    .o%<<%..6gggg6..67................76..6gggg6..%<<<<<<%..    ",
"    .o%<<%..6gggg6..6d7666666666666667d6..6gggg6..%<<<<<<%..    ",
"    .o%<<%..6gggg6..6d7666666666666667d6..6gggg6..%<<<<<<%..    ",
"    .o%<<%..6gggg6..67................76..6gggg6..%<<<<<<%..    ",
"    .o%<<%..6gggg6..25................52..6gggg6..%<<<<<<%..    ",
"    .o%<<%..6gggg6....5666666666666665....6gggg6..%<<<<<<%..    ",
"    .o%<<%..6gggg7....2666666666666662..O17gggg6..%<<<<<<%..    ",
"    .o%<<%..6ggggd72O...................27dgggg6..%<<<<<<%..    ",
"    .o%<<%..6gggggg71...................7gggggg6..%<<<..<%..    ",
"    .o%<<%..6ggggggd76666666666666666667dgggggg6..%<<<..<%..    ",
"    .o%<<%..6gggggggggggggggggggggggggggggggggg6..%<<<<<<%..    ",
"    .o%<<%..6gggggggggggggggggggggggggggggggggg6..%<<<<<<%..    ",
"    .X#%%#..266666666666666666666666666666666662..#%%%%%%#..    ",
"    ........................................................    ",
"    ........................................................    ",
"                                                                ",
"                                                                ",
"                                                                ",
"                                                                ",
"                                                                ",
"                                                                "
};
