/* XPM */
static const char *collect4[] = {
/* columns rows colors chars-per-pixel */
"64 64 38 1 ",
"  c #250707",
". c #260808",
"X c #290A0A",
"o c #3D0303",
"O c #310E0E",
"+ c #351010",
"@ c #3D1414",
"# c #030E21",
"$ c #450202",
"% c #410505",
"& c #480101",
"* c #4D0000",
"= c #490707",
"- c #500000",
"; c #510505",
": c #411616",
"> c #481A1A",
", c #4C1918",
"< c #4C1C1C",
"1 c #501211",
"2 c #541716",
"3 c #542020",
"4 c #582222",
"5 c #572F2E",
"6 c #5A3433",
"7 c #602626",
"8 c #632B2B",
"9 c #642828",
"0 c #633231",
"q c #633534",
"w c #633F3E",
"e c #625E5B",
"r c #827168",
"t c #82756B",
"y c #8C7C71",
"u c #907F73",
"i c #978477",
"p c #9B8779",
/* pixels */
"################################################################",
"################################################################",
"################################################################",
"################################################################",
"################################################################",
"################################################################",
"####....................eeeeeeeeeeeeeeeeeeeeeeeeee..############",
"####....................eeeeeeeeeeeeeeeeeeeeeeeeee..############",
"####..o$$$$o..>333333335eetyyyyyyyyyyyyyyyyyyyytee,o..##########",
"####..$----$..399999999qeeyppppppppppiuyyyyuippyee2&..##########",
"####..$----$..399999999qeeyppppppppppueeeeeeuppyee2*&o..########",
"####..$----$..399999999qeeyppppppppppyeeeeeeyppyee2--&..########",
"####..$----$..399999999qeeyppppppppppyeewweeyppyee2--*&o..######",
"####..$----$..399999999qeeyppppppppppyeeqqeeyppyee2----&..######",
"####..$----$..399999999qeeyppppppppppyeeqqeeyppyee2----*&o..####",
"####..$----$..399999999qeeyppppppppppyeewweeyppyee2------$..####",
"####..$----$..399999999qeeyppppppppppyeeeeeeyppyee2------$..####",
"####..$----&..>479999990eeruippppppppueeeeeeuiuee61------$..####",
"####..$----*&%..49999998eeeeuppppppppiuyyyyuiueee1;------$..####",
"####..$------&..>33333333eeetyyyyyyyyyyyyyyyytee2--------$..####",
"####..$------*&%..........eeeeeeeeeeeeeeeeeeeeee2--------$..####",
"####..$--------&..........eeeeeeeeeeeeeeeeeeeee61--------$..####",
"####..$--------*&$$$$$$$$=1222222222222222222221;--------$..####",
"####..$--------------------------------------------------$..####",
"####..$--------------------------------------------------$..####",
"####..$--------------------------------------------------$..####",
"####..$--------------------------------------------------$..####",
"####..$--------------------------------------------------$..####",
"####..$--------------------------------------------------$..####",
"####..$--------------------------------------------------$..####",
"####..$--------------------------------------------------$..####",
"####..$------*&$$$$$$$$$$$$$$$$$$$$$$$$$$$$$$&*----------$..####",
"####..$------&................................&----------$..####",
"####..$----*&%................................%&*--------$..####",
"####..$----&..>333333333333333333333333333333>..&--------$..####",
"####..$--*&%..49999999999999999999999999999994..%&*------$..####",
"####..$--&..>4799999999999999999999999999999974>..&------$..####",
"####..$--$..399999974333333333333333333479999993..$------$..####",
"####..$--$..39999994...................:49999993..$------$..####",
"####..$--$..3999974>...................O>4799993..$------$..####",
"####..$--$..399994...O>33333333333333>....499993..$------$..####",
"####..$--$..399993...@<33333333333333<....399993..$------$..####",
"####..$--$..399993..><...............@<>..399993..$------$..####",
"####..$--$..399993..34...............:43..399993..$------$..####",
"####..$--$..399993..37433333333333333473..399993..$------$..####",
"####..$--$..399993..37433333333333333473..399993..$------$..####",
"####..$--$..399993..34...............:43..399993..$------$..####",
"####..$--$..399993..><...............@<>..399993..$------$..####",
"####..$--$..399993....<33333333333333<....399993..$------$..####",
"####..$--$..399994....>33333333333333>..O:499993..$---..-$..####",
"####..$--$..3999974>..................XO>4799993..$---..-$..####",
"####..$--$..39999994..................+:49999993..$------$..####",
"####..$--$..399999974333333333333333333479999993..$------$..####",
"####..$--$..399999999999999999999999999999999993..$------$..####",
"####..$--$..399999999999999999999999999999999993..$------$..####",
"####..o$$o..>3333333333333333333333333333333333>..o$$$$$$o..####",
"####........................................................####",
"####....................................................... ####",
"################################################################",
"################################################################",
"################################################################",
"################################################################",
"################################################################",
"################################################################"
};
