/* XPM */
static const char *collect2[] = {
/* columns rows colors chars-per-pixel */
"64 64 44 1 ",
"  c #193400",
". c #233F09",
"X c #030E21",
"o c #2C500B",
"O c #2F540E",
"+ c #32590F",
"@ c #2E4B12",
"# c #314F15",
"$ c #345C10",
"% c #375C14",
"& c #38571C",
"* c #3A5A1D",
"= c #3C5B1F",
"- c #386212",
"; c #3B6614",
": c #3D6518",
"> c #3E5A22",
", c #4A5838",
"< c #406120",
"1 c #426421",
"2 c #436325",
"3 c #446425",
"4 c #466728",
"5 c #4D6F2E",
"6 c #4A6132",
"7 c #50613B",
"8 c #546F39",
"9 c #556D3C",
"0 c #517332",
"q c #527134",
"w c #535747",
"e c #5A5F4D",
"r c #625E5B",
"t c #586943",
"y c #586049",
"u c #5E6153",
"i c #656753",
"p c #65605C",
"a c #7F7567",
"s c #82756B",
"d c #8C7C71",
"f c #907F73",
"g c #978477",
"h c #9B8779",
/* pixels */
"XXXXXXXXXXXXXXXXXXXXXXXXXXXXXXXXXXXXXXXXXXXXXXXXXXXXXXXXXXXXXXXX",
"XXXXXXXXXXXXXXXXXXXXXXXXXXXXXXXXXXXXXXXXXXXXXXXXXXXXXXXXXXXXXXXX",
"XXXXXXXXXXXXXXXXXXXXXXXXXXXXXXXXXXXXXXXXXXXXXXXXXXXXXXXXXXXXXXXX",
"XXXXXXXXXXXXXXXXXXXXXXXXXXXXXXXXXXXXXXXXXXXXXXXXXXXXXXXXXXXXXXXX",
"XXXXXXXXXXXXXXXXXXXXXXXXXXXXXXXXXXXXXXXXXXXXXXXXXXXXXXXXXXXXXXXX",
"XXXXXXXXXXXXXXXXXXXXXXXXXXXXXXXXXXXXXXXXXXXXXXXXXXXXXXXXXXXXXXXX",
"XXXX                    rrrrrrrrrrrrrrrrrrrrrrrrrr  XXXXXXXXXXXX",
"XXXX                    rrrrrrrrrrrrrrrrrrrrrrrrrr  XXXXXXXXXXXX",
"XXXX  o++++o  &222222226rrsddddddddddddddddddddsrr>o  XXXXXXXXXX",
"XXXX  +;;;;+  2000000009rrdhhhhhhhhhhrrrrrrrghhdrr3$  XXXXXXXXXX",
"XXXX  +;;;;+  2000000009rrdhhhhhhhhhhrrrrrrrfhhdrr3-$o  XXXXXXXX",
"XXXX  +;;;;+  2000000009rrdhhhhhhhhhhrrruurrdhhdrr3;;$  XXXXXXXX",
"XXXX  +;;;;+  2000000009rrdhhhhhhhhhhrruttrrdhhdrr3;;-$o  XXXXXX",
"XXXX  +;;;;+  2000000009rrdhhhhhhhhhhrru99rrdhhdrr3;;;;$  XXXXXX",
"XXXX  +;;;;+  2000000009rrdhhhhhhhhhhrru99rrdhhdrr3;;;;-$o  XXXX",
"XXXX  +;;;;+  2000000009rrdhhhhhhhhhhrruttrrdhhdrr3;;;;;;+  XXXX",
"XXXX  +;;;;+  2000000009rrdhhhhhhhhhhrrrrrrrdhhdrr3;;;;;;+  XXXX",
"XXXX  +;;;;$  *450000008rrrrrhhhhhhhhrrrrrrrfgfarr1;;;;;;+  XXXX",
"XXXX  +;;;;-$O  4000000q8rrrrhhhhhhhhgfddddfgrrirr:;;;;;;+  XXXX",
"XXXX  +;;;;;;$  *222222226errddddddddddddddddrry3;;;;;;;;+  XXXX",
"XXXX  +;;;;;;-$O          wrrrrrrrrrrrrrrrrrrrpy3;;;;;;;;+  XXXX",
"XXXX  +;;;;;;;;$          ,rrrrrrrrrrrrrrrrrrry71;;;;;;;;+  XXXX",
"XXXX  +;;;;;;;;-$++++++++%<333333333333333333331:;;;;;;;;+  XXXX",
"XXXX  +;;;;;;;;;;;;;;;;;;;;;;;;;;;;;;;;;;;;;;;;;;;;;;;;;;+  XXXX",
"XXXX  +;;;;;;;;;;;;;;;;;;;;;;;;;;;;;;;;;;;;;;;;;;;;;;;;;;+  XXXX",
"XXXX  +;;;;;;;;;;;;;;;;;;;;;;;;;;;;;;;;;;;;;;;;;;;;;;;;;;+  XXXX",
"XXXX  +;;;;;;;;;;;;;;;;;;;;;;;;;;;;;;;;;;;;;;;;;;;;;;;;;;+  XXXX",
"XXXX  +;;;;;;;;;;;;;;;;;;;;;;;;;;;;;;;;;;;;;;;;;;;;;;;;;;+  XXXX",
"XXXX  +;;;;;;;;;;;;;;;;;;;;;;;;;;;;;;;;;;;;;;;;;;;;;;;;;;+  XXXX",
"XXXX  +;;;;;;;;;;;;;;;;;;;;;;;;;;;;;;;;;;;;;;;;;;;;;;;;;;+  XXXX",
"XXXX  +;;;;;;;;;;;;;;;;;;;;;;;;;;;;;;;;;;;;;;;;;;;;;;;;;;+  XXXX",
"XXXX  +;;;;;;-$++++++++++++++++++++++++++++++$-;;;;;;;;;;+  XXXX",
"XXXX  +;;;;;;$                                $;;;;;;;;;;+  XXXX",
"XXXX  +;;;;-$O                                O$-;;;;;;;;+  XXXX",
"XXXX  +;;;;$  *222222222222222222222222222222*  $;;;;;;;;+  XXXX",
"XXXX  +;;-$O  40000000000000000000000000000004  O$-;;;;;;+  XXXX",
"XXXX  +;;$  *4500000000000000000000000000000054*  $;;;;;;+  XXXX",
"XXXX  +;;+  200000054222222222222222222450000002  +;;;;;;+  XXXX",
"XXXX  +;;+  20000004                   #40000002  +;;;;;;+  XXXX",
"XXXX  +;;+  2000054&                   .&4500002  +;;;;;;+  XXXX",
"XXXX  +;;+  200004    &22222222222222&    400002  +;;;;;;+  XXXX",
"XXXX  +;;+  200002    =22222222222222=    200002  +;;;;;;+  XXXX",
"XXXX  +;;+  200002  &=               @=&  200002  +;;;;;;+  XXXX",
"XXXX  +;;+  200002  24               #42  200002  +;;;;;;+  XXXX",
"XXXX  +;;+  200002  25422222222222222452  200002  +;;;;;;+  XXXX",
"XXXX  +;;+  200002  25422222222222222452  200002  +;;;;;;+  XXXX",
"XXXX  +;;+  200002  24               #42  200002  +;;;;;;+  XXXX",
"XXXX  +;;+  200002  &=               @=&  200002  +;;;;;;+  XXXX",
"XXXX  +;;+  200002   @=22222222222222=    200002  +;;;;;;+  XXXX",
"XXXX  +;;+  200004   .&22222222222222&  .#400002  +;;;;;;+  XXXX",
"XXXX  +;;+  2000054&                   .&4500002  +;;  ;;+  XXXX",
"XXXX  +;;+  20000004                   #40000002  +;;  ;;+  XXXX",
"XXXX  +;;+  200000054222222222222222222450000002  +;;;;;;+  XXXX",
"XXXX  +;;+  200000000000000000000000000000000002  +;;;;;;+  XXXX",
"XXXX  +;;+  200000000000000000000000000000000002  +;;;;;;+  XXXX",
"XXXX  o++o  &2222222222222222222222222222222222&  o++++++o  XXXX",
"XXXX                                                        XXXX",
"XXXX                                                        XXXX",
"XXXXXXXXXXXXXXXXXXXXXXXXXXXXXXXXXXXXXXXXXXXXXXXXXXXXXXXXXXXXXXXX",
"XXXXXXXXXXXXXXXXXXXXXXXXXXXXXXXXXXXXXXXXXXXXXXXXXXXXXXXXXXXXXXXX",
"XXXXXXXXXXXXXXXXXXXXXXXXXXXXXXXXXXXXXXXXXXXXXXXXXXXXXXXXXXXXXXXX",
"XXXXXXXXXXXXXXXXXXXXXXXXXXXXXXXXXXXXXXXXXXXXXXXXXXXXXXXXXXXXXXXX",
"XXXXXXXXXXXXXXXXXXXXXXXXXXXXXXXXXXXXXXXXXXXXXXXXXXXXXXXXXXXXXXXX",
"XXXXXXXXXXXXXXXXXXXXXXXXXXXXXXXXXXXXXXXXXXXXXXXXXXXXXXXXXXXXXXXX"
};
