/* XPM */
static const char *collectible2[] = {
/* columns rows colors chars-per-pixel */
"19 17 22 1 ",
"  c #170625",
". c #46020B",
"X c #651228",
"o c #6E2D2F",
"O c #4F4C0F",
"+ c #776E2B",
"@ c #AE3319",
"# c #F8103B",
"$ c #CD4C10",
"% c #EA790E",
"& c #FF2A54",
"* c #FF426B",
"= c #9B890E",
"- c #F39B29",
"; c #A7C62C",
": c #FFC237",
"> c #FFDF59",
", c #FF788F",
"< c #B8A792",
"1 c #D5D0A9",
"2 c #F8F2D4",
"3 c None",
/* pixels */
"3333333333333333333",
"3333333333333  3333",
"33333333333  *< 333",
"333333333  ,,#< 333",
"3333333  ,,**#< 33 ",
"33333  ,,**,*#1 33 ",
"3    ,,****o&#1 33 ",
" =1#,****,**#1O 3 @",
" OO1#**,*X*&#1+  %$",
" O=1#&*.*&&#1O 3 >%",
" =;O2#&&&##1+ 33 :-",
" +O=O2###11O 333 -:",
"3  ++O211O+ 3333 $-",
"333  +O+O  333333 $",
"33333    333333333 ",
"3333333333333333333",
"3333333333333333333"
};
