/* XPM */
static const char *collect1[] = {
/* columns rows colors chars-per-pixel */
"64 64 43 1 ",
"  c #030E21",
". c #625E5B",
"X c #79675B",
"o c #B33B0A",
"O c #B5400F",
"+ c #AA4918",
"@ c #BB4B19",
"# c #AE561D",
"$ c #BE511E",
"% c #B35C1D",
"& c #B85A18",
"* c #BA5C18",
"= c #A7542D",
"- c #A25F2E",
"; c #C24D09",
": c #C5530E",
"> c #C2550E",
", c #C85309",
"< c #C95509",
"1 c #CD5909",
"2 c #CF5C09",
"3 c #C85C0E",
"4 c #C35C28",
"5 c #C6612D",
"6 c #CC6C37",
"7 c #CF723C",
"8 c #816B5B",
"9 c #B8754B",
"0 c #A87B5B",
"q c #AC7E5C",
"w c #887466",
"e c #82756B",
"r c #8C7C71",
"t c #907F73",
"y c #D47D46",
"u c #978477",
"i c #9B8779",
"p c #D7824B",
"a c #C0855B",
"s c #C8895B",
"d c #DD8D55",
"f c #D88F5B",
"g c #E0935B",
/* pixels */
"                                                                ",
"                                                                ",
"                                                                ",
"                                                                ",
"                                                                ",
"                                                                ",
"    oooooooooooooooooooo..........................oo            ",
"    oooooooooooooooooooo..........................oo            ",
"    oo;,,,,;oo6yyyyyyyy9..errrrrrrrrrrrrrrrrrrre..#;oo          ",
"    oo,2222,ooygggggggga..riiiiiiiiiiutrrrrtuiir..%<oo          ",
"    oo,2222,ooygggggggga..riiiiiiiiii.......tiir..%1<;oo        ",
"    oo,2222,ooygggggggga..riiiiiiiiii.......riir..%22<oo        ",
"    oo,2222,ooygggggggga..riiiiiiiiii..X00..riir..%221<;oo      ",
"    oo,2222,ooygggggggga..riiiiiiiiii..8aa..riir..%2222<oo      ",
"    oo,2222,ooygggggggga..riiiiiiiiii..8aa..riir..%22221<;oo    ",
"    oo,2222,ooygggggggga..riiiiiiiiii..X00..riir..%222222,oo    ",
"    oo,2222,ooygggggggga..riiiiiiiiii.......riir..%222222,oo    ",
"    oo,2222<oo6pdggggggs....uiiiiiiii.......tutw..*222222,oo    ",
"    oo,22221<:oopggggggfsq..tiiiiiiiiutrrrrtut..-*3222222,oo    ",
"    oo,222222<oo6yyyyyyyy9..errrrrrrrrrrrrrrre..%22222222,oo    ",
"    oo,2222221<oooooooooo=......................%22222222,oo    ",
"    oo,22222222oooooooooo+......................*22222222,oo    ",
"    oo,222222221<,,,,,,,,>&%%%%%%%%%%%%%%%%%%%%*322222222,oo    ",
"    oo,22222222222222222222222222222222222222222222222222,oo    ",
"    oo,22222222222222222222222222222222222222222222222222,oo    ",
"    oo,22222222222222222222222222222222222222222222222222,oo    ",
"    oo,22222222222222222222222222222222222222222222222222,oo    ",
"    oo,22222222222222222222222222222222222222222222222222,oo    ",
"    oo,22222222222222222222222222222222222222222222222222,oo    ",
"    oo,22222222222222222222222222222222222222222222222222,oo    ",
"    oo,22222222222222222222222222222222222222222222222222,oo    ",
"    oo,2222221<,,,,,,,,,,,,,,,,,,,,,,,,,,,,,,<12222222222,oo    ",
"    oo,222222ooooooooooooooooooooooooooooooooo<2222222222,oo    ",
"    oo,22221<ooooooooooooooooooooooooooooooooo:<122222222,oo    ",
"    oo,2222<oo6yyyyyyyyyyyyyyyyyyyyyyyyyyyyyy6oo<22222222,oo    ",
"    oo,221<:oopggggggggggggggggggggggggggggggpoo:<1222222,oo    ",
"    oo,22<oo6pdggggggggggggggggggggggggggggggdp6oo<222222,oo    ",
"    oo,22,ooyggggggdpyyyyyyyyyyyyyyyyyypdggggggyoo,222222,oo    ",
"    oo,22,ooyggggggp5oooooooooooooooooo5pggggggyoo,222222,oo    ",
"    oo,22,ooyggggdp6@ooooooooooooooooooo6pdggggyoo,222222,oo    ",
"    oo,22,ooyggggpoooo6yyyyyyyyyyyyyy6oooopggggyoo,222222,oo    ",
"    oo,22,ooyggggyoooo7yyyyyyyyyyyyyy74@ooyggggyoo,222222,oo    ",
"    oo,22,ooyggggyoo67oooooooooooooooo76ooyggggyoo,222222,oo    ",
"    oo,22,ooyggggyooypoooooooooooooooopyooyggggyoo,222222,oo    ",
"    oo,22,ooyggggyooydpyyyyyyyyyyyyyypdyooyggggyoo,222222,oo    ",
"    oo,22,ooyggggyooydpyyyyyyyyyyyyyypdyooyggggyoo,222222,oo    ",
"    oo,22,ooyggggyooypoooooooooooooooopyooyggggyoo,222222,oo    ",
"    oo,22,ooyggggyoo67oooooooooooooooo76ooyggggyoo,222222,oo    ",
"    oo,22,ooyggggyoooo7yyyyyyyyyyyyyy7ooooyggggyoo,222222,oo    ",
"    oo,22,ooyggggp5@oo6yyyyyyyyyyyyyy6oo@5pggggyoo,222222,oo    ",
"    oo,22,ooyggggdp6@OooooooooooooooooO@6pdggggyoo,222222,oo    ",
"    oo,22,ooyggggggp5$oooooooooooooooo$5pggggggyoo,222222,oo    ",
"    oo,22,ooyggggggdpyyyyyyyyyyyyyyyyyypdggggggyoo,222oo2,oo    ",
"    oo,22,ooyggggggggggggggggggggggggggggggggggyoo,222oo2,oo    ",
"    oo,22,ooyggggggggggggggggggggggggggggggggggyoo,222222,oo    ",
"    oo;,,;oo6yyyyyyyyyyyyyyyyyyyyyyyyyyyyyyyyyy6oo;,,,,,,;oo    ",
"    oooooooooooooooooooooooooooooooooooooooooooooooooooooooo    ",
"    oooooooooooooooooooooooooooooooooooooooooooooooooooooooo    ",
"                                                                ",
"                                                                ",
"                                                                ",
"                                                                ",
"                                                                ",
"                                                                "
};
