/* XPM */
static const char *collectible1[] = {
/* columns rows colors chars-per-pixel */
"32 16 154 2 ",
"   c #150623",
".  c #170825",
"X  c #1C0C26",
"o  c #1E0E28",
"O  c #25132B",
"+  c #2A152C",
"@  c #2B192E",
"#  c #251932",
"$  c #2B1C33",
"%  c #2B1F38",
"&  c #312137",
"*  c #3C2333",
"=  c #442A37",
"-  c #492F3B",
";  c #452D3A",
":  c #4A333C",
">  c #52393F",
",  c #4B3441",
"<  c #513D46",
"1  c #53404A",
"2  c #59474F",
"3  c #614143",
"4  c #6C4948",
"5  c #75524E",
"6  c #7C5750",
"7  c #7D5A53",
"8  c #7E6557",
"9  c #7F6658",
"0  c #E66E0D",
"q  c #E9750F",
"w  c #EA780F",
"e  c #E6741E",
"r  c #E67520",
"t  c #896658",
"y  c #8B6C5D",
"u  c #846859",
"i  c #8C715E",
"p  c #9A725E",
"a  c #977360",
"s  c #987A61",
"d  c #997663",
"f  c #A27A63",
"g  c #F28C0D",
"h  c #F79C0E",
"j  c #F8A00B",
"k  c #FCAD0D",
"l  c #FEBE0B",
"z  c #FBA911",
"x  c #FAA21C",
"c  c #FDB113",
"v  c #FEBB11",
"b  c #E7853C",
"n  c #F69F33",
"m  c #FDB427",
"M  c #F6A037",
"N  c #F7A238",
"B  c #FFCB0E",
"V  c #FFCD13",
"C  c #FFCD1B",
"Z  c #FFD41B",
"A  c #FFD91A",
"S  c #FFD432",
"D  c #9A897A",
"F  c #A88766",
"G  c #AF8468",
"H  c #A98A6C",
"J  c #A5836D",
"K  c #B38E69",
"L  c #AD9473",
"P  c #AD9178",
"I  c #B69978",
"U  c #BAA079",
"Y  c #E68946",
"T  c #E88A42",
"R  c #EB954D",
"E  c #F19F4B",
"W  c #F4A043",
"Q  c #FDB847",
"!  c #FCB848",
"~  c #F7AF57",
"^  c #FCBA57",
"/  c #EB9E60",
"(  c #D2A178",
")  c #EFA967",
"_  c #EEA96A",
"`  c #F0AA67",
"'  c #F6B566",
"]  c #F9BC68",
"[  c #EFAE72",
"{  c #F0B477",
"}  c #F6BD72",
"|  c #FFCF4B",
" . c #FFCB52",
".. c #FFD350",
"X. c #FFD559",
"o. c #FDC467",
"O. c #FED163",
"+. c #FCC97D",
"@. c #FFDC78",
"#. c #B59E80",
"$. c #B89C80",
"%. c #ACA08F",
"&. c #BCA582",
"*. c #B4A188",
"=. c #B8A78D",
"-. c #B5A184",
";. c #ACA39A",
":. c #BAAD96",
">. c #BCB2A2",
",. c #C2AB88",
"<. c #C6B28E",
"1. c #DFB580",
"2. c #C2B197",
"3. c #DABC91",
"4. c #DCC39C",
"5. c #FBCE83",
"6. c #FCD089",
"7. c #E7C697",
"8. c #F2C892",
"9. c #E9D19D",
"0. c #FAD496",
"q. c #F5D499",
"w. c #FFE086",
"e. c #DAC6A4",
"r. c #E7D4AE",
"t. c #ECD4AB",
"y. c #F8D5A0",
"u. c #FCDCA3",
"i. c #F4D6AE",
"p. c #F3D9AB",
"a. c #F3D8A5",
"s. c #E0D0B5",
"d. c #E6DCBC",
"f. c #F9DEB1",
"g. c #FEE3A0",
"h. c #FCE4A8",
"j. c #FEEAAB",
"k. c #EFE3B3",
"l. c #FAE5B3",
"z. c #FEEBB1",
"x. c #FCEBBA",
"c. c #FFF1B6",
"v. c #FEF0BA",
"b. c #F6E5C2",
"n. c #FDEEC3",
"m. c #FCEFCB",
"M. c #FFF4C4",
"N. c #FDF4CF",
"B. c #FFF9CB",
"V. c #FFFBD5",
"C. c #FFFADD",
"Z. c #FDF4D1",
"A. c #FFFCE3",
"S. c None",
/* pixels */
"S.S.S.S.S.S.S.S.S.S.S.S.S.S.S.S.S.S.S.S.S.S.S.S.S.S.S.S.S.S.S.S.",
"S.S.S.S.S.S.S.S.S.S.S.S.S.S.S.S.S.S.S.S.S.S.S.S.S.S.S.S.S.S.S.S.",
"S.S.S.S.S.S.S.S.S.S.S.S.S.S.+ + @ $ % % % % $ @ + + S.S.S.S.S.S.",
"S.S.S.S.S.S.O O O O # # # , 7 f L &.:.>.>.:.I K f 6 - + S.S.S.S.",
"S.S.S.S.O ; 5 p F L %.;.;.>.s.b.n.j.@.X.X. .Q ^ } 1.I y : S.S.S.",
"S.S.S.: u #.e.q.O.| X.O.o.+.u.g.@...S Z V l k x n ' u.r.$.u :   ",
"  : 8 I r.z.w.X.S Z B l k x N M x z C Z V v z g 0 Y i.C.n.,.<   ",
"  1 2.Z.A.l.! c V A V l k g 0 r E ! m z h g q r T { l.m.t.P ,   ",
"  1 2.N.A.m.0.^ m k j g w e b ) 0.g.6.} ~ E R ) y.x.l.3.d 3 *   ",
"  : 9 -.d.A.A.n.5.] ' ` / [ 0.h.a.p.x.v.j.j.j.j.x.f.8.G : . S.S.",
"S.S.X 1 <.M.V.V.B.M.M.x.p.4.=.D y t s U 9.z.c.h.8.( p 4 * S.S.S.",
"S.S.S.: i ,.k.M.l.7.&.H a 5 - O o X O > y H L H p 5 = O S.S.S.S.",
"S.S.S.S.@ 2 D *.J 7 : O O O S.S.S.S.S.S.@ O O O O O S.S.S.S.S.S.",
"S.S.S.S.S.S.& $ + + S.S.S.S.S.S.S.S.S.S.S.S.S.S.S.S.S.S.S.S.S.S.",
"S.S.S.S.S.S.S.S.S.S.S.S.S.S.S.S.S.S.S.S.S.S.S.S.S.S.S.S.S.S.S.S.",
"S.S.S.S.S.S.S.S.S.S.S.S.S.S.S.S.S.S.S.S.S.S.S.S.S.S.S.S.S.S.S.S."
};
