/* XPM */
static const char *server[] = {
/* columns rows colors chars-per-pixel */
"32 32 12 1 ",
"  c #171919",
". c #1F2421",
"X c #343E37",
"o c #495758",
"O c #405761",
"+ c #A75C64",
"@ c #22B14C",
"# c #738182",
"$ c #A0AEB8",
"% c #DB8592",
"& c #CBBCE7",
"* c #D2D2D2",
/* pixels */
"................................",
"XXXXXXXXXXXXXXXXXXXXXXXXXXXXXXX.",
"o.o.o.o.o.o.o.o.o.o.o.o.o.o.o.o.",
"oXoXoXoXoXoXoXoXoXoXoXoXoXoXoXo.",
"#ooooooooooo#oooooooooooooooooo.",
"###############################.",
"#ooooooooooo#ooooooooooooooooooX",
"$###########$##################.",
"***$$$$$$$$$***$$$$$$$$$$$$$$$$.",
"###ooooooooo###oooooooooooooooo.",
"#          X#          Xo#O#+#o.",
"o      @@  Xo      @@  Xo#####o.",
"XXoXoXoXoXoXXXoXoXoXoXoXXXXXXXX.",
"................................",
"#ooooooooooo#oooooooooooooooooo.",
"###############################.",
"#ooooooooooo#ooooooooooooooooooX",
"$###########$##################.",
"***$$$$$$$$$***$$$$$$$$$$$$$$$$.",
"###ooooooooo###oooooooooooooooo.",
"#          X#          Xo#O#%#o.",
"o      @@  Xo      @@  Xo#####o.",
"XXoXoXoXoXoXXXoXoXoXoXoXXXXXXXX.",
"................................",
"###############################.",
"#ooooooooooo#ooooooooooooooooooX",
"$###########$##################.",
"***$$$$$$$$$***$$$$$$$$$$$$$$$$.",
"###ooooooooo###oooooooooooooooo.",
"#          X#          Xo#&#O#o.",
"o          Xo          Xo#####o.",
"XXoXoXoXoXoXXXoXoXoXoXoXXXXXXXX."
};
