/* XPM */
static const char *collect3[] = {
/* columns rows colors chars-per-pixel */
"32 32 6 1 ",
"  c #260808",
". c #500000",
"X c #642828",
"o c #625E5B",
"O c #9B8779",
"+ c None",
/* pixels */
"++++++++++++++++++++++++++++++++",
"++++++++++++++++++++++++++++++++",
"++++++++++++++++++++++++++++++++",
"++          ooooooooooooo ++++++",
"++ ... XXXXXoOOOOOOOOOOOo. +++++",
"++ ... XXXXXoOOOOOOoooOOo.. ++++",
"++ ... XXXXXoOOOOOOoXoOOo... +++",
"++ ... XXXXXoOOOOOOoXoOOo.... ++",
"++ ... XXXXXoOOOOOOoooOOo.... ++",
"++ .... XXXXXoOOOOOOOOOo..... ++",
"++ .....     ooooooooooo..... ++",
"++ .......................... ++",
"++ .......................... ++",
"++ .......................... ++",
"++ .......................... ++",
"++ .......................... ++",
"++ ....                ...... ++",
"++ ... XXXXXXXXXXXXXXXX ..... ++",
"++ .. XXXXXXXXXXXXXXXXXX .... ++",
"++ .. XXXX          XXXX .... ++",
"++ .. XXX  XXXXXXXX  XXX .... ++",
"++ .. XXX X        X XXX .... ++",
"++ .. XXX XXXXXXXXXX XXX .... ++",
"++ .. XXX X        X XXX .... ++",
"++ .. XXX  XXXXXXXX  XXX .... ++",
"++ .. XXXX          XXXX .... ++",
"++ .. XXXXXXXXXXXXXXXXXX .. . ++",
"++ .. XXXXXXXXXXXXXXXXXX .... ++",
"++                            ++",
"++++++++++++++++++++++++++++++++",
"++++++++++++++++++++++++++++++++",
"++++++++++++++++++++++++++++++++"
};
