/* XPM */
static const char *monster[] = {
/* columns rows colors chars-per-pixel */
"32 32 115 2 ",
"   c black",
".  c #020100",
"X  c #030200",
"o  c #080600",
"O  c #090700",
"+  c #0D0A01",
"@  c #140F01",
"#  c #1B1501",
"$  c #1C1502",
"%  c #251A02",
"&  c #302503",
"*  c #312603",
"=  c #352803",
"-  c #372903",
";  c #3F3003",
":  c #242425",
">  c #2B2A27",
",  c #473704",
"<  c #4E3B04",
"1  c #513400",
"2  c #553502",
"3  c #5B4605",
"4  c #5C4605",
"5  c #5D4705",
"6  c #674E04",
"7  c #6A5004",
"8  c #6B5206",
"9  c #6E5005",
"0  c #6F5405",
"q  c #6F5505",
"w  c #785C07",
"e  c #7A5D07",
"r  c #7F6F3E",
"t  c #856705",
"y  c #846407",
"u  c #846507",
"i  c #886705",
"p  c #8C6707",
"a  c #8D6B05",
"s  c #8B6A08",
"d  c #946B07",
"f  c #9B7607",
"g  c #A97907",
"h  c #A67F09",
"j  c #BA7B06",
"k  c #927B35",
"l  c #A97324",
"z  c #AC840A",
"x  c #AD840A",
"c  c #B3880A",
"v  c #B4890A",
"b  c #B88B09",
"n  c #BE910A",
"m  c #BF910B",
"M  c #BC963B",
"N  c #CB8B0B",
"B  c #D88A06",
"V  c #CC9A0B",
"C  c #D89108",
"Z  c #ED9D07",
"A  c #D4A20C",
"S  c #DEA20B",
"D  c #DEAB0C",
"F  c #E3AF0D",
"G  c #EBAB0B",
"H  c #FFA007",
"J  c #FFA308",
"K  c #FFA408",
"L  c #FFA508",
"P  c #FFA608",
"I  c #FAAB0A",
"U  c #FFA809",
"Y  c #FFA909",
"T  c #FFAA09",
"R  c #FFAB09",
"E  c #FFAC09",
"W  c #FFAE09",
"Q  c #FFAD0A",
"!  c #FFAE0A",
"~  c #FFAF0A",
"^  c #ECB60D",
"/  c #FFB00A",
"(  c #FFB10A",
")  c #FFB20B",
"_  c #FFB30B",
"`  c #FFB40B",
"'  c #FFB50B",
"]  c #FFB60B",
"[  c #FFB60C",
"{  c #FFB70C",
"}  c #FFB80B",
"|  c #FFB80C",
" . c #FFBA0C",
".. c #FFBB0D",
"X. c #FFBC0D",
"o. c #FFBE0D",
"O. c #FFBF0D",
"+. c #FFAE10",
"@. c #FFBA11",
"#. c #FFBE13",
"$. c #CD8C20",
"%. c #F6BF23",
"&. c #FFC00D",
"*. c #FFC10E",
"=. c #FFC20E",
"-. c #FFC30E",
";. c #FFC50E",
":. c #F8C222",
">. c #FBC520",
",. c #FAC522",
"<. c #F8C327",
"1. c #F8C424",
"2. c #F0C33E",
"3. c #F8CB3A",
"4. c None",
/* pixels */
"4.4.4.4.4.4.4.4.4.4.4.4.4.4.4.4.4.4.4.4.4.4.4.4.4.4.4.4.4.4.4.4.",
"4.4.4.4.4.4.4.4.4.4.4.4.4.4.4.4.4.4.4.4.4.4.4.4.4.4.4.4.4.4.4.4.",
"4.4.4.4.4.4.4.4.4.4.4.4.4.4.4.4.4.4.4.4.4.4.4.4.4.4.4.4.4.4.4.4.",
"4.4.4.4.4.4.4.4.4.4.4.4.4.4.4.4.4.4.4.4.4.4.4.4.4.4.4.4.4.4.4.4.",
"4.4.4.4.4.4.4.4.4.4.4.4.4.4.4.4.4.4.4.4.4.4.4.4.4.4.4.4.4.4.4.4.",
"4.4.4.4.4.4.4.4.4.4.4.4.4.4.4.4.4.4.4.4.4.4.4.4.4.4.4.4.4.4.4.4.",
"4.4.4.4.4.4.4.4.4.4.4.4.4.4.4.4.4.4.4.4.4.4.4.4.4.4.4.4.4.4.4.4.",
"4.4.4.4.4.4.4.4.4.4.4.4.4.4.4.4.4.4.4.4.4.4.4.4.J R 4.4.4.4.4.4.",
"4.4.4.4.4.4.4.4.4.4.4.4.4.4.4.4.4.4.4.4.4._ R R { ' R 4.4.4.4.4.",
"4.4.4.4.4.4.4.4.4.4.4.4.4.4.4.4.4.4.4._ R W  .*.4.X.W 4.4.4.4.4.",
"4.4.4.4.4.4.4.4.4.4.4.4.4.n s y c ^ ' W  .*.4.4.4._ W 4.4.4.4.4.",
"4.4.4.4.4.4.4.4.4.4.4.D e #     o < V ;.4.4.4.*._ H 4.4.4.4.4.4.",
"4.4.4.4.4.4.4.4.4.4.4.e   @ 6 i 8 @ - A ;.*.X.W R 4.4.4.4.4.4.4.",
"4.4.4.4.4.4.4.4.4.4.n # + f ,.2.1.v % d *.' P 4.4.4.4.4.4.4.4.4.",
"4.4.4.4.4.4.4.4.4.} d   6 :.k : k #.B j I R 4.4.4.4.4.4.4.4.4.4.",
"4.4.4.4.4.4.4.X.R W p   y 2.> 1 N +.g , 4.4.4.4.4.4.4.4.4.4.4.4.",
"4.4.4.4.4.4.{ W { 4.h O 6 %.l $.M ,.0 4 4.4.4.4.4.4.4.4.4.4.4.4.",
"4.4.4.4.4.{ P  .4.4.F 3 9 Z @.3.<.v & x 4.4.4.4.4.4.4.4.4.4.4.4.",
"4.4.4.4.4.W  .4.4.*.*.G C 2 8 a 0 & y 4.4.4.4.4.4.4.4.4.4.4.4.4.",
"4.4.4.4.*.W X.*. ._ W H S e ; - 4 x 4.4.4.4.4.4.4.4.4.4.4.4.4.4.",
"4.4.4.4.*.' R R P _ 4.4.4.4.4.4.4.4.4.4.4.4.4.4.4.4.4.4.4.4.4.4.",
"4.4.4.4.4.4.4.4.4.4.4.4.4.4.4.4.4.4.4.4.4.4.4.4.4.4.4.4.4.4.4.4.",
"4.4.4.4.4.4.4.4.4.4.4.4.4.4.4.4.4.4.4.4.4.4.4.4.4.4.4.4.4.4.4.4.",
"4.4.4.4.4.4.4.4.4.4.4.4.4.4.4.4.4.4.4.4.4.4.4.4.4.4.4.4.4.4.4.4.",
"4.4.4.4.4.4.4.4.4.4.4.4.4.4.4.4.4.4.4.4.4.4.4.4.4.4.4.4.4.4.4.4.",
"4.4.4.4.4.4.4.4.4.4.4.4.4.4.4.4.4.4.4.4.4.4.4.4.4.4.4.4.4.4.4.4.",
"4.4.4.4.4.4.4.4.4.4.4.4.4.4.4.4.4.4.4.4.4.4.4.4.4.4.4.4.4.4.4.4.",
"4.4.4.4.4.4.4.4.4.4.4.4.4.4.4.4.4.4.4.4.4.4.4.4.4.4.4.4.4.4.4.4.",
"4.4.4.4.4.4.4.4.4.4.4.4.4.4.4.4.4.4.4.4.4.4.4.4.4.4.4.4.4.4.4.4.",
"4.4.4.4.4.4.4.4.4.4.4.4.4.4.4.4.4.4.4.4.4.4.4.4.4.4.4.4.4.4.4.4.",
"4.4.4.4.4.4.4.4.4.4.4.4.4.4.4.4.4.4.4.4.4.4.4.4.4.4.4.4.4.4.4.4.",
"4.4.4.4.4.4.4.4.4.4.4.4.4.4.4.4.4.4.4.4.4.4.4.4.4.4.4.4.4.4.4.4."
};
