/* XPM */
static const char *monster_moove[] = {
/* columns rows colors chars-per-pixel */
"64 64 136 2 ",
"   c #010205",
".  c #020813",
"X  c #030E21",
"o  c #1D1A24",
"O  c #221D24",
"+  c #231B2B",
"@  c #211230",
"#  c #251A35",
"$  c #242124",
"%  c #26202A",
"&  c #322622",
"*  c #2D273A",
"=  c #2D2839",
"-  c #312839",
";  c #771116",
":  c #7C1315",
">  c #220243",
",  c gray28",
"<  c gray31",
"1  c #676767",
"2  c gray50",
"3  c #90041B",
"4  c #AF0606",
"5  c #AC0A0D",
"6  c #BC0B0B",
"7  c #DC1C14",
"8  c #ED0F0A",
"9  c #F10202",
"0  c #E7140E",
"q  c #E9120D",
"w  c #CD291D",
"e  c #F22E07",
"r  c #FD2F00",
"t  c #E53310",
"y  c #CD2822",
"u  c #CC3725",
"i  c #DC4013",
"p  c #FE4000",
"a  c #ED560B",
"s  c #EE5B09",
"d  c #FF5200",
"f  c #FE5E00",
"g  c #D3781F",
"h  c #FA6002",
"j  c #FD6F00",
"k  c #EF740A",
"l  c #FE7300",
"z  c #FF7C00",
"x  c #FE7313",
"c  c #FE731C",
"v  c #CA4626",
"b  c #C85524",
"n  c #CF7822",
"m  c #EC6E2C",
"M  c #FE7224",
"N  c #FE722E",
"B  c #FF7232",
"V  c #FD7B32",
"C  c #5FC246",
"Z  c #4BFF47",
"A  c #69FF43",
"S  c #FF8100",
"D  c #FF8D01",
"F  c #FE8009",
"G  c #FF9001",
"H  c #FF9B00",
"J  c #FE8415",
"K  c #FE8E12",
"L  c #FE801E",
"P  c #FE8D1E",
"I  c #FE9215",
"U  c #FE9C14",
"Y  c #FD9719",
"T  c #FE9D1E",
"R  c #FFA401",
"E  c #FFAB00",
"W  c #FAA60C",
"Q  c #FFB200",
"!  c #FEBB02",
"~  c #FFBB0C",
"^  c #FFBB12",
"/  c #FFBB1B",
"(  c #F99F21",
")  c #F99A2B",
"_  c #FC8133",
"`  c #FA8933",
"'  c #F79C35",
"]  c #F6A426",
"[  c #FDA423",
"{  c #FEAB26",
"}  c #F7A229",
"|  c #F6AE2C",
" . c #FDAB2A",
".. c #FFBC24",
"X. c #FEB42B",
"o. c #FFBB2A",
"O. c #FEA431",
"+. c #F5AD35",
"@. c #F3B337",
"#. c #F5BC36",
"$. c #FFBB32",
"%. c #F2BD38",
"&. c #F8CF00",
"*. c #E9F102",
"=. c #F7FF02",
"-. c #F7FF12",
";. c #F7FF1C",
":. c #FDC423",
">. c #FDC824",
",. c #F9D325",
"<. c #FEC532",
"1. c #FDCC33",
"2. c #F7D430",
"3. c #FCD031",
"4. c #FBD836",
"5. c #DEFF36",
"6. c #F8E422",
"7. c #F9E52A",
"8. c #F7F22D",
"9. c #F7FF2E",
"0. c #F7ED36",
"q. c #F9E930",
"w. c #E1FF33",
"e. c #EEFF32",
"r. c #F7FF30",
"t. c #F7FF3A",
"y. c gray56",
"u. c #979797",
"i. c #9F9F9F",
"p. c #B7B7B7",
"a. c gray75",
"s. c gray78",
"d. c #FCE7CD",
"f. c #E4E3D8",
"g. c #F3E9E1",
"h. c #FCFFEA",
/* pixels */
"X X X X X X X X X X X X X X X X X X X X X X X X X X X X X X X X X X X X X X X X X X X X X X X X X X X X X X X X X X X X X X X X ",
"X Z X X X X X X X X X X X X X X X X X X X X X X X X X X X X X X X X X X X X X X X X X X X X X X X X X X X X X X X X X X X X X X ",
"X r.<.r.X X X X X X X X X X X X X X X X X X X X X X X X X X X X X X X X X X X X X X X X X X X X X X X X X X X X X X X X X X X X ",
"X r.$.l $.X X X X X X X X X X X X X X X 1 X X X X X X X X X X X X X X X X X X X X X X X X X X X X X X X X X X X X X X X X X X X ",
"X 6 ..l j ^ r.X X X X X X X X X X X X X X X X X X X X X X X X X X X X p.. X X X X X X X X X X X X X X X X X X X X X X X X X X X ",
"X X =.X.#.c l $.X X X X X X X X X X X X X X X X X X X X X X X X X X X X X X X X X X X X X X X y.X X X X X X X X X X X X X X X X ",
"X X $ 9.%.c l $.$.w.X X X X X X X X X X X X X X X X X X X X X X X X X X X X X X X X X X X X X X X X X X X X X X X X X X X X X X ",
"X X X X r.$.l z $.$.r.X X X X X X X X X X X X X X X X X X X X X X X X X X X X X X X X X X X X X X X X X X X X X X X X X X X X X ",
"X X X X 9 $.$.$.$.$.$.$.$ X X X X X X X X X X X X X X X X X X X X X X X X X X X X X X X X X X X X X X X X X X X X X X X X X X X ",
"X X X X X -.$.$.$.$.4.$.$.X X X X X X X X X X X X X X X X X X X X X X X X X X X X X X X X X X X X X X X X X X X X X s.X X X X X ",
"X X X X X X 9.$.$.$.$.r.r._ X X X X X X X X X X X X X X X X X X X X X X X X X X X X X X X X X X X X X X X X X X X X X X X X X X ",
"X X X X X X X 8.$.$.$.$.$.$.$.l r.X X X X X X X X X X X X X X X X X X X X X X X X X X X X X X X X X X X X X X X X X X X X X X X ",
"X X X X X X X X $.$.$.$.$.$.$.#.l $.X X X X X X X X X X X X X X X X X X X X X X X X X X X X X X X X X X X X X X X X X X X X X X ",
"X X X X X X X X ;.$.$.$.$.$.$.#.B l $.r.X X X X X X X X X X X X X X X X X X X X X X X X X X X a.  X X X X X X X X X X X X X X X ",
"X X X X X X X X X X G $.$.$.l $.$.$.l $.$.r.X X X X X X X X X X X X X X X X X X X X X X X X X X X X X X X X X X X X X X X X X X ",
"X X X X X X X X X X d o.$.$.$.l $.$.#.M $.$.t.r.7.o.$.$.r.r.:.$.$.t.r.r.-.X X X X X X X X X X X X X X X X X X X X X X X X X X X ",
"X X X X X X X X X X X o.$.$.$.$.! $.#.M l z / $.$.$.l H $.#.V l l l l %.l $.r.X X X X X X X X X X X X X X X X X X X X X X X X X ",
"X X X X X X X X X X X X e.E $.$.r.l $.$.$.@.c l $.o.$.l l l l l g y w w l w w w l X X X X X X X X X X X X X X X X X X X X X X X ",
"X X X X X X X X X X X X X X $.$.$.r.j ~ $.@.c l l o.l v w 0 l l g y w w w w w w w p X X X X X X X X X X X X X X X X X X X X X X ",
"X X X X X X X X X X X X X X l $.$.$.r.l $.@.O O O O O O O O O O O O O O O w w w w w w l X X X X X X X X X X X X X X X X X X X X ",
"X X X X X X X X X X X X X X X l ! $.r.r.O O O O $ $ $ $ $ $ $ $ $ $ $ $ $ O w w w w w w f X X X X X X X X X X X X X X X X X X X ",
"X X X X X X X X X X X X X X X X l $.$.r.O O O $ $ $ $ $ $ $ $ $ $ $ $ $ $ $ O w w w w w w $.X X X X X X X X X X X X X X X X X X ",
"X X X X X X X X X X X X X X X X *.l X...r.O % $ $ $ $ & g.g.g.g.g.g.g.g.& $ $ $ O w w w w j C X X X X X X X X X X X X X X X X X ",
"X X X X X X X X X X X X X X X X X X l ~ r.r.r.$ $ $ g.h.* = = = = = = g.h.g.$ $ O O w w w w l X X X X X X X X X X X X X X X X X ",
"X X X X X X X i.X X X X X X X X X X j l $.r.r.r.$ g.g.= = = = = = = = = = h.g.O O O w w w w 8 X X X X X X X X X X X X X X X X X ",
"X X X X X X X   X X X X X X X X X X l 0.l X.r.r.g.f.= = = = = = = = = = = = d.g.$ $ O w w w q ! X X X X X X X X X X X X X X X X ",
"X X X X X X X X X X X X X X X X X X #.O O l / r.r.h.= = = = = = = = = = = = = g.g.O O O w l w l X X X X X X X X X X X X X X X X ",
"X X X X X X X X X X X X X X X X X 9.#.O $ O / $.r.r.= = = = = = = = = = = = = = h.g.O O w w w l r.X X X X X X X X X X X X X X X ",
"X X X X X X X X X X X X X X X X X { | O $ $ 6.{ X.r.Q = = = = = = = = = = = = = g.g.O O u w h S r.X X X X X X X X X X X < X X X ",
"X X X X X X X X X X X X X X X X X w l O $ $ g.- D $.r.Q = = = = = = = = = = = = = g.O O _ w l l r.X X X X X X X X X X X X X X X ",
"X X X X X X X X X X X X X X X X X w l O $ g.g.= = o.$.r.Q = = = = = = = = = = = = g.O O f w l l r.X X X X X X X X X X X X X X X ",
"X X X X X X X X X X X X X X X X X i k O $ g.g.= = = [ q.r.Q = = = = = = = = = = = g.O O H l e l $.X X X X X X X X X X X X X X X ",
"X X X X X X X X X X X X X X X X X l n O $ g.g.= = = = H $.r.Q = = = = = = = = = = g.O O H l l l $.X X X X X X X X X X X X X X X ",
"X X X X X X X X X X X X X X X X X l n O $ g.g.= = = = = $.$.r.Q = = = = = = = = = g.O O &.l l l $.X X X X X X X X X X X X X X X ",
"X X X X X X X X X X X X X X X X X a 7 O $ g.g.= = = = = = T $.r.Q = = = = = = = = g.O O ! l l D $.X X X X X X X X X X X X X X X ",
"X X X X X X X X X X X X X X X X X l w O $ $ g.* = = = = = = Q $.r.h.= = = = = = g.g.O O H l l ! $.X X X X X X X X X X X X X X X ",
"X X X X X X X X X X X X X X X X X $.w O O $ g.g.= = = = = = = $.$.r.h.= = = = = g.g.O O H l l ! $.X X X X X X X X X X X X X X X ",
"X X X X X X X X X X X X X X X X X X w w O $ $ g.g.= = = = = = = T $.r.Q = = = g.g.O O O [ I $.U $.X X X X X X X X X X X X X X X ",
"X X X X X X y.X X X X X X X X X X X w w w $ $ O g.g.= = = = = = = ~ $.r.r.* g.g.O O O O _ $.#.l $.X X X X X X X X X X X X X X X ",
"X X X X X X X X X X X X X X X X X X 4 w w O $ $ g.g.= = = = = = = = $.$.r.r.g.+ O O O O E l #.N $.X X X X X X X X X X X X X X X ",
"X X X X X X X X X X X X X X X X X X : w w O O O $ g.g.g.* = = = = = = #...r.r.Q O O O O Y Y Y Y $.X X X X X X X X X X X X X X X ",
"X X X X X X X X X X X X X X X X X X 3 l w w O O O O O g.g.g.h.h.h.g.g.g.$.$.$.r.r.O O O _ l l ! $.r.X X X X X X X X 1 X X X X X ",
"X X X X X X X X X X X X X X X X X X X X w w w w O O O O O g.g.g.g.g.O O O $.$.$.r.r.# O _ $.l ! $.r.X X X X X X X X X X X X X X ",
"X X X X X X X X X X X X X X X X X X X X X b w w w O O O O O O O O O O O O O 2.o.$.r.r.O U $.( P K $.r.O X X X X X X X X X X X X ",
"X X X X X X X X X X X X X X X X X X X X X X l w w O O O O O O O O O O O O O $.o.$.$.$.r.>.$.#.N l j t.X X X X X X X X X X X X X ",
"X X X X X X X X X X X X X X X X X X X X X X X X w w w w w w l w l l l $.$.l S ..$.$.$.$.r.$.#.N l l ~ r.O X X X X X X X X X X X ",
"X X X X X X X X X X X X X X X X X X X X X X X X X Q Q m w t a s l l l [ ,.Q Q Q Q W [ $.1.r.q.O.[ ] l 3.r.X X X X X X X X X X X ",
"X X X X X X X X X X X X X X X X X X X X X X X X X X X X X X X X X X X X X X X X X X 9.$.$.$.$...$.%.l l <.o X X X X X X X X X X ",
"X X X X X X X X X X X X X X X X X X X X X X X X X X X X X X X X X X X X X X X X X X X ; _ l $.t.$.%.M l z @ O X X X X X X X X X ",
"X X X X X X X X X X X X X X X X X X X X X X X X X X X X X X X X X X X X X X X X X X X o r.{  .$.1.$. .{ } J o X X X X X X X X X ",
"X X X X 2 X X X X X X X X X X X X X X X X X X X X X X X X X X X X X X X X X X X X X X X X X #.l $.$.t.$.+.x $.o X X X X X X X X ",
"X X X X X X X X X X X X X X 1 X X X X X X X X X X X X X X X X X X X X X X X X X X X X X X X 5 N l $.$.$.$.x l r.X X X X X X X X ",
"X X X X X X X X X X X X X X X X X X X X X X X X X X X X X X X X X X X X X X X X X X X X X X X X { l L F $.$.{ ) r.o X X X X X X ",
"X X X X X X X X X X X X X X X X X X X X X X X X X X X X X X X X X X X X X X X X X X X X X X X X X 5.l l z $.$.l l r.o X X X X X ",
"X X X X X X X X X X X X X X X X X X X X X X X X X X X X X X X X X X X X X X X X X X X X X X X X X X x l z / $.' l l o o X X X X ",
"X X X X X X X X X X X X X X X X X X X X X X X X X X X X X X X X X X X X X X X X X X X X X X X X X X X X +.x l G X.l R o X X X X ",
"X X X X X X X X X X X X X X X X X X X X X X X X X X X X X X y.X X X X X X X X X X X X X X X X X X X X X r x $.G o.$.l $.o X X X ",
"X X X X X X X X X X X X X X X X X X X X X X X X X X X X X X X X X X X X X X X X X X X X X X X X X X X X X X $.$.o.$.` l A X X X ",
"X X X X X X X X X X X X X X X X X X X X X X X X X X X X X X X X X X X X X X X X X X X u.X X X X X X X X X X X j $.l R $.$.> X X ",
"X X X X X X X X X X X X X X X X X X X X X X X X X X X X X X X X X X X X X X X X X X X X X X X X X X X X X X X X X $.l $.l t.X X ",
"X X X X X X X X X X X X X X X X X X X X X X X X X X X X X X X X X X X X X X X X X X X X X X X X X X X X X X X X X X r.l #.$.r.X ",
"X X X X X X X X X X X , X X X X X X X X X X X X X X X X X X X X X X X X X X X X X X X X X X X X X X X X X X X X X X X X X $.r.o ",
"X X X X X X X X X X X X X X X X X X X X X X X X X X X X X X X X X X X X X X X X X X X X X X X X X X X X X X X X X X X X X r.r.X ",
"X X X X X X X X X X X X X X X X X X X X X X X X X X X X X X X X X X X X X X X X X X X X X X X X X X X X X X X X X X X X X o o o "
};
