/* XPM */
static const char *monster[] = {
/* columns rows colors chars-per-pixel */
"64 64 136 2 ",
"   c #010205",
".  c #020813",
"X  c #030E21",
"o  c #1D1A24",
"O  c #221D24",
"+  c #231B2B",
"@  c #211230",
"#  c #251A35",
"$  c #242124",
"%  c #26202A",
"&  c #322622",
"*  c #2D273A",
"=  c #2D2839",
"-  c #312839",
";  c #771116",
":  c #7C1315",
">  c #220243",
",  c gray28",
"<  c gray31",
"1  c #676767",
"2  c gray50",
"3  c #90041B",
"4  c #AF0606",
"5  c #AC0A0D",
"6  c #BC0B0B",
"7  c #DC1C14",
"8  c #ED0F0A",
"9  c #F10202",
"0  c #E7140E",
"q  c #E9120D",
"w  c #CD291D",
"e  c #F22E07",
"r  c #FD2F00",
"t  c #E53310",
"y  c #CD2822",
"u  c #CC3725",
"i  c #DC4013",
"p  c #FE4000",
"a  c #ED560B",
"s  c #EE5B09",
"d  c #FF5200",
"f  c #FE5E00",
"g  c #D3781F",
"h  c #FA6002",
"j  c #FD6F00",
"k  c #EF740A",
"l  c #FE7300",
"z  c #FF7C00",
"x  c #FE7313",
"c  c #FE731C",
"v  c #CA4626",
"b  c #C85524",
"n  c #CF7822",
"m  c #EC6E2C",
"M  c #FE7224",
"N  c #FE722E",
"B  c #FF7232",
"V  c #FD7B32",
"C  c #5FC246",
"Z  c #4BFF47",
"A  c #69FF43",
"S  c #FF8100",
"D  c #FF8D01",
"F  c #FE8009",
"G  c #FF9001",
"H  c #FF9B00",
"J  c #FE8415",
"K  c #FE8E12",
"L  c #FE801E",
"P  c #FE8D1E",
"I  c #FE9215",
"U  c #FE9C14",
"Y  c #FD9719",
"T  c #FE9D1E",
"R  c #FFA401",
"E  c #FFAB00",
"W  c #FAA60C",
"Q  c #FFB200",
"!  c #FEBB02",
"~  c #FFBB0C",
"^  c #FFBB12",
"/  c #FFBB1B",
"(  c #F99F21",
")  c #F99A2B",
"_  c #FC8133",
"`  c #FA8933",
"'  c #F79C35",
"]  c #F6A426",
"[  c #FDA423",
"{  c #FEAB26",
"}  c #F7A229",
"|  c #F6AE2C",
" . c #FDAB2A",
".. c #FFBC24",
"X. c #FEB42B",
"o. c #FFBB2A",
"O. c #FEA431",
"+. c #F5AD35",
"@. c #F3B337",
"#. c #F5BC36",
"$. c #FFBB32",
"%. c #F2BD38",
"&. c #F8CF00",
"*. c #E9F102",
"=. c #F7FF02",
"-. c #F7FF12",
";. c #F7FF1C",
":. c #FDC423",
">. c #FDC824",
",. c #F9D325",
"<. c #FEC532",
"1. c #FDCC33",
"2. c #F7D430",
"3. c #FCD031",
"4. c #FBD836",
"5. c #DEFF36",
"6. c #F8E422",
"7. c #F9E52A",
"8. c #F7F22D",
"9. c #F7FF2E",
"0. c #F7ED36",
"q. c #F9E930",
"w. c #E1FF33",
"e. c #EEFF32",
"r. c #F7FF30",
"t. c #F7FF3A",
"y. c gray56",
"u. c #979797",
"i. c #9F9F9F",
"p. c #B7B7B7",
"a. c gray75",
"s. c gray78",
"d. c #FCE7CD",
"f. c #E4E3D8",
"g. c #F3E9E1",
"h. c #FCFFEA",
/* pixels */
"X X X X X X X X X X X X X X X X X X X X X X X X X X X X X X X X X X X X X X X X X X X X X X X X X X X X X X X X X X X X X X X X ",
"X X X X X X X X X X X X X X X X X X X X X X X X X X X X X X X X X X X X X X X X X X X X X X X X X X X X X X X X X X X X X X Z X ",
"X X X X X X X X X X X X X X X X X X X X X X X X X X X X X X X X X X X X X X X X X X X X X X X X X X X X X X X X X X X X r.<.r.X ",
"X X X X X X X X X X X X X X X X X X X X X X X X X X X X X X X X X X X X X X X X X X X 1 X X X X X X X X X X X X X X X $.l $.r.X ",
"X X X X X X X X X X X X X X X X X X X X X X X X X X X . p.X X X X X X X X X X X X X X X X X X X X X X X X X X X X r.^ j l ..6 X ",
"X X X X X X X X X X X X X X X X y.X X X X X X X X X X X X X X X X X X X X X X X X X X X X X X X X X X X X X X X $.l c #.X.=.X X ",
"X X X X X X X X X X X X X X X X X X X X X X X X X X X X X X X X X X X X X X X X X X X X X X X X X X X X X X w.$.$.l c %.9.$ X X ",
"X X X X X X X X X X X X X X X X X X X X X X X X X X X X X X X X X X X X X X X X X X X X X X X X X X X X X r.$.$.z l $.r.X X X X ",
"X X X X X X X X X X X X X X X X X X X X X X X X X X X X X X X X X X X X X X X X X X X X X X X X X X X $ $.$.$.$.$.$.$.9 X X X X ",
"X X X X X s.X X X X X X X X X X X X X X X X X X X X X X X X X X X X X X X X X X X X X X X X X X X X X $.$.4.$.$.$.$.-.X X X X X ",
"X X X X X X X X X X X X X X X X X X X X X X X X X X X X X X X X X X X X X X X X X X X X X X X X X X _ r.r.$.$.$.$.9.X X X X X X ",
"X X X X X X X X X X X X X X X X X X X X X X X X X X X X X X X X X X X X X X X X X X X X X X X r.l $.$.$.$.$.$.$.8.X X X X X X X ",
"X X X X X X X X X X X X X X X X X X X X X X X X X X X X X X X X X X X X X X X X X X X X X X $.l #.$.$.$.$.$.$.$.X X X X X X X X ",
"X X X X X X X X X X X X X X X   a.X X X X X X X X X X X X X X X X X X X X X X X X X X X r.$.l B #.$.$.$.$.$.$.;.X X X X X X X X ",
"X X X X X X X X X X X X X X X X X X X X X X X X X X X X X X X X X X X X X X X X X X r.$.$.l $.$.$.l $.$.$.G X X X X X X X X X X ",
"X X X X X X X X X X X X X X X X X X X X X X X X X X X -.r.r.t.$.$.:.r.r.$.$.o.7.r.t.$.$.M #.$.$.l $.$.$.o.d X X X X X X X X X X ",
"X X X X X X X X X X X X X X X X X X X X X X X X X r.$.l %.l l l l V #.$.H l $.$.$./ z l M #.$.! $.$.$.$.o.X X X X X X X X X X X ",
"X X X X X X X X X X X X X X X X X X X X X X X l w w w l w w y g l l l l l $.o.$.l c @.$.$.$.l r.$.$.E e.X X X X X X X X X X X X ",
"X X X X X X X X X X X X X X X X X X X X X X p w w w w w w w y g l l 0 w v l o.l l c @.$.~ j r.$.$.$.X X X X X X X X X X X X X X ",
"X X X X X X X X X X X X X X X X X X X X l w w w w w w O O O O O O O O O O O O O O O @.$.l r.$.$.$.l X X X X X X X X X X X X X X ",
"X X X X X X X X X X X X X X X X X X X f w w w w w w O $ $ $ $ $ $ $ $ $ $ $ $ $ O O O O r.r.$.! l X X X X X X X X X X X X X X X ",
"X X X X X X X X X X X X X X X X X X $.w w w w w w O $ $ $ $ $ $ $ $ $ $ $ $ $ $ $ O O O r.$.$.l X X X X X X X X X X X X X X X X ",
"X X X X X X X X X X X X X X X X X C j w w w w O $ $ $ & g.g.g.g.g.g.g.g.& $ $ $ $ % O r...X.l *.X X X X X X X X X X X X X X X X ",
"X X X X X X X X X X X X X X X X X l w w w w O O $ $ g.h.g.= = = = = = * h.g.$ $ $ r.r.r.~ l X X X X X X X X X X X X X X X X X X ",
"X X X X X X X X X X X X X X X X X 8 w w w w O O O g.h.= = = = = = = = = = g.g.$ r.r.r.$.l j X X X X X X X X X X i.X X X X X X X ",
"X X X X X X X X X X X X X X X X ! q w w w O $ $ g.d.= = = = = = = = = = = = f.g.r.r.X.l 0.l X X X X X X X X X X   X X X X X X X ",
"X X X X X X X X X X X X X X X X l w l w O O O g.g.= = = = = = = = = = = = = h.r.r./ l O O #.X X X X X X X X X X X X X X X X X X ",
"X X X X X X X X X X X X X X X r.l w w w O O g.h.= = = = = = = = = = = = = = r.r.$./ O $ O #.9.X X X X X X X X X X X X X X X X X ",
"X X X < X X X X X X X X X X X r.S h w u O O g.g.= = = = = = = = = = = = = Q r.X. .6.$ $ O | { X X X X X X X X X X X X X X X X X ",
"X X X X X X X X X X X X X X X r.l l w _ O O g.= = = = = = = = = = = = = Q r.$.D - g.$ $ O l w X X X X X X X X X X X X X X X X X ",
"X X X X X X X X X X X X X X X r.l l w f O O g.= = = = = = = = = = = = Q r.$.o.= = g.g.$ O l w X X X X X X X X X X X X X X X X X ",
"X X X X X X X X X X X X X X X $.l e l H O O g.= = = = = = = = = = = Q r.q.[ = = = g.g.$ O k i X X X X X X X X X X X X X X X X X ",
"X X X X X X X X X X X X X X X $.l l l H O O g.= = = = = = = = = = Q r.$.H = = = = g.g.$ O n l X X X X X X X X X X X X X X X X X ",
"X X X X X X X X X X X X X X X $.l l l &.O O g.= = = = = = = = = Q r.$.$.= = = = = g.g.$ O n l X X X X X X X X X X X X X X X X X ",
"X X X X X X X X X X X X X X X $.D l l ! O O g.= = = = = = = = Q r.$.T = = = = = = g.g.$ O 7 a X X X X X X X X X X X X X X X X X ",
"X X X X X X X X X X X X X X X $.! l l H O O g.g.= = = = = = h.r.$.Q = = = = = = * g.$ $ O w l X X X X X X X X X X X X X X X X X ",
"X X X X X X X X X X X X X X X $.! l l H O O g.g.= = = = = h.r.$.$.= = = = = = = g.g.$ O O w $.X X X X X X X X X X X X X X X X X ",
"X X X X X X X X X X X X X X X $.U $.I [ O O O g.g.= = = Q r.$.T = = = = = = = g.g.$ $ O w w X X X X X X X X X X X X X X X X X X ",
"X X X X X X X X X X X X X X X $.l #.$._ O O O O g.g.* r.r.$.~ = = = = = = = g.g.O $ $ w w w X X X X X X X X X X X y.X X X X X X ",
"X X X X X X X X X X X X X X X $.N #.l E O O O O + g.r.r.$.$.= = = = = = = = g.g.$ $ O w w 4 X X X X X X X X X X X X X X X X X X ",
"X X X X X X X X X X X X X X X $.Y Y Y Y O O O O Q r.r...#.= = = = = = * g.g.g.$ O O O w w : X X X X X X X X X X X X X X X X X X ",
"X X X X X 1 X X X X X X X X r.$.! l l _ O O O r.r.$.$.$.g.g.g.h.h.h.g.g.g.O O O O O w w l 3 X X X X X X X X X X X X X X X X X X ",
"X X X X X X X X X X X X X X r.$.! l $._ O # r.r.$.$.$.O O O g.g.g.g.g.O O O O O w w w w X X X X X X X X X X X X X X X X X X X X ",
"X X X X X X X X X X X X O r.$.K P ( $.U O r.r.$.o.2.O O O O O O O O O O O O O w w w b X X X X X X X X X X X X X X X X X X X X X ",
"X X X X X X X X X X X X X t.j l N #.$.>.r.$.$.$.o.$.O O O O O O O O O O O O O w w l X X X X X X X X X X X X X X X X X X X X X X ",
"X X X X X X X X X X X O r.~ l l N #.$.r.$.$.$.$...S l $.$.l l l w l w w w w w w X X X X X X X X X X X X X X X X X X X X X X X X ",
"X X X X X X X X X X X r.3.l ] [ O.q.r.1.$.[ W Q Q Q Q ,.[ l l l s a t w m Q Q X X X X X X X X X X X X X X X X X X X X X X X X X ",
"X X X X X X X X X X o <.l l %.$...$.$.$.$.9.X X X X X X X X X X X X X X X X X X X X X X X X X X X X X X X X X X X X X X X X X X ",
"X X X X X X X X X O @ z l M %.$.t.$.l _ ; X X X X X X X X X X X X X X X X X X X X X X X X X X X X X X X X X X X X X X X X X X X ",
"X X X X X X X X X o J } {  .$.1.$. .{ r.o X X X X X X X X X X X X X X X X X X X X X X X X X X X X X X X X X X X X X X X X X X X ",
"X X X X X X X X o $.x +.$.t.$.$.l #.X X X X X X X X X X X X X X X X X X X X X X X X X X X X X X X X X X X X X X X X X 2 X X X X ",
"X X X X X X X X r.l x $.$.$.$.l N 5 X X X X X X X X X X X X X X X X X X X X X X X X X X X X X X X 1 X X X X X X X X X X X X X X ",
"X X X X X X o r.)  .$.$.F L l { X X X X X X X X X X X X X X X X X X X X X X X X X X X X X X X X X X X X X X X X X X X X X X X X ",
"X X X X X o r.l l $.$.z l l 5.X X X X X X X X X X X X X X X X X X X X X X X X X X X X X X X X X X X X X X X X X X X X X X X X X ",
"X X X X o o l l ' $./ z l x X X X X X X X X X X X X X X X X X X X X X X X X X X X X X X X X X X X X X X X X X X X X X X X X X X ",
"X X X X o R l X.G l x +.X X X X X X X X X X X X X X X X X X X X X X X X X X X X X X X X X X X X X X X X X X X X X X X X X X X X ",
"X X X o $.l $.o.G $.x r X X X X X X X X X X X X X X X X X X X X X y.X X X X X X X X X X X X X X X X X X X X X X X X X X X X X X ",
"X X X A l ` $.o.$.$.X X X X X X X X X X X X X X X X X X X X X X X X X X X X X X X X X X X X X X X X X X X X X X X X X X X X X X ",
"X X > $.$.R l $.j X X X X X X X X X X X u.X X X X X X X X X X X X X X X X X X X X X X X X X X X X X X X X X X X X X X X X X X X ",
"X X t.l $.l $.X X X X X X X X X X X X X X X X X X X X X X X X X X X X X X X X X X X X X X X X X X X X X X X X X X X X X X X X X ",
"X r.$.#.l r.X X X X X X X X X X X X X X X X X X X X X X X X X X X X X X X X X X X X X X X X X X X X X X X X X X X X X X X X X X ",
"o r.$.X X X X X X X X X X X X X X X X X X X X X X X X X X X X X X X X X X X X X X X X X X X X X X X X X , X X X X X X X X X X X ",
"X r.r.X X X X X X X X X X X X X X X X X X X X X X X X X X X X X X X X X X X X X X X X X X X X X X X X X X X X X X X X X X X X X ",
"o o o X X X X X X X X X X X X X X X X X X X X X X X X X X X X X X X X X X X X X X X X X X X X X X X X X X X X X X X X X X X X X "
};
