/* XPM */
static const char *ibm5150[] = {
/* columns rows colors chars-per-pixel */
"64 64 80 1 ",
"  c black",
". c #030E21",
"X c #1E1C21",
"o c #252421",
"O c #232127",
"+ c #252426",
"@ c #292725",
"# c #2A2825",
"$ c #2E2C27",
"% c #23222A",
"& c #252328",
"* c #272528",
"= c #22212C",
"- c #24222C",
"; c #28262B",
": c #29262C",
"> c #2F2C2A",
", c #2D2A2D",
"< c #302D2A",
"1 c #312F2F",
"2 c #32302A",
"3 c #32302D",
"4 c #35332F",
"5 c #37342F",
"6 c #2F2C3E",
"7 c #302D3F",
"8 c #363430",
"9 c #373434",
"0 c #383631",
"q c #3B3735",
"w c #3B3833",
"e c #3C3833",
"r c #3E3A34",
"t c #35323D",
"y c #3F3B3B",
"u c #3F3A3C",
"i c #500000",
"p c #413D37",
"a c #433E38",
"s c #443F3A",
"d c #45403A",
"f c #43403D",
"g c #47423C",
"h c #4A453F",
"j c #333041",
"k c #494641",
"l c #4B4842",
"z c #504A44",
"x c #524C44",
"c c #59534D",
"v c #59544D",
"b c #5C564F",
"n c #625B52",
"m c #635C54",
"M c #665E57",
"N c #666057",
"B c #686056",
"V c #69625A",
"C c #6B655C",
"Z c #6C645C",
"A c #71675C",
"S c #746A5F",
"D c #6E6860",
"F c #726B63",
"G c #756D63",
"H c #756E66",
"J c #787066",
"K c #7A736A",
"L c #7C756C",
"P c #81786E",
"I c #817A70",
"U c #847D74",
"Y c #878076",
"T c #8D857B",
"R c #90887D",
"E c #9C968E",
"W c #A59E95",
"Q c #A9A39B",
"! c #ACA59D",
"~ c #F3E9E1",
/* pixels */
"..............ZKKKKKKKKKKKKKKKKKKKKKKKKKKKKKKKKKKK..............",
"..............FKKKKKKKKKKKKKKKKKKKKKKKKKKKKKKKKKKK..............",
"............KKKKKKKKKKKKKKKKKKKKKKKKKKKKKKKKKKKKKKKK............",
"............KKKKKKKKKKKKKKKKKKKKKKKKKKKKKKKKKKKKKKKK............",
"............KK!!!!!!!!!!!!!!!!!!!!!!!!!!!!!!!!!!!!KK............",
"............KK!!!!!!!!!!!!!!!!!!!!!!!!!!!!!!!!!!!!KK............",
"............KK!!KKKKKKKKKKKKKKKKKKKKKKKKKKKKKKKK!!KK............",
"............KK!!KKKKKKKKKKKKKKKKKKKKKKKKKKKKKKKK!!KK............",
"............KK!!KKr>*OOOOOOOOOO&*::::,4wazKKKKKK!!KK............",
"............KK!!KK9;-================%+>rxKKKKKK!!KK............",
"............KK!!KKt~  ~~ ~   ~ ~~   ~ %*rxKiiiKK!!KK............",
"............KK!!KKj ~~     ~ ~~ ~ ~~~~=OqxKiiiKK!!KK............",
"............KK!!KK7    ~~~  ~ ~~~     =OqxKKKKKK!!KK............",
"............KK!!KK6~~ ~   ~~ ~ ~ ~~  ~=OqxKKKKKK!!KK............",
"............KK!!KK6~ ~~~~ ~   ~ ~~~~  =OqxKKKKKK!!KK............",
"............KK!!KK6  ~ ~ ~ ~ ~    ~~~ =OqxKKKKKK!!KK............",
"............KK!!KK6~~    ~~     ~   ~~=OqxKiiiKK!!KK............",
"............KK!!KK6 ~~~~ ~~~~  ~  ~ ~~=OqxKiiiKK!!KK............",
"............KK!!KK6      ~   ~ ~~~ ~~ =OqxKKKKKK!!KK............",
"............KK!!KK7  ~ ~   ~ ~  ~  ~  =OqxKKKKKK!!KK............",
"............KK!!KKj ~~ ~~~ ~~   ~~~~  =OqxKiiiKK!!KK............",
"............KK!!KKt~~  ~          ~~ ~-*rxKiiiKK!!KK............",
"............KK!!KK9  ~ ~ ~ ~~ ~~ ~   ~;>rxKKKKKK!!KK............",
"............KK!!KKr      ~~ ~ ~~   ~~ 15pzKKKKKK!!KK............",
"............KK!!KKhryuuuuuuuuuuuuuuuuyrpdhKKKKKK!!KK............",
"............KK!!KKKKKKKKKKKKKKKKKKKKKKKKKKKKKKKK!!KK............",
"............KK!!KKKKKKKKKKKKKKKKKKKKKKKKKKKKKKKK!!KK............",
"............KK!!!!!!!!!!!!!!!!!!!!!!!!!!!!!!!!!!!!KK............",
"............KKK!!!!!!!!!!!!!!!!!!!!!!!!!!!!!!!!!!!KK............",
"............KKKKKKKKKKKKKKKKKKKKKKKKKKKKKKKKKKKKKKKK............",
"..............KKKKKKKKKKKKKKKKKKKKKKKKKKKKKKKKKKKK..............",
"..............cccccvvbbvvccccccccccccccvvbbvvccccc..............",
"..............3333340ee043333333333333340ee0433333..............",
"..............w88880rrrr0888888888888880rrrr08888w..............",
"..........KKJKKKKKKKKKKKKKKKKKKKKKKKKKKKKKKKKKKKKKKKKK..........",
"..........KKKKKKKKKKKKKKKKKKKKKKKKKKKKKKKKKKKKKKKKKKKK..........",
"........KKKKQQQQQQQQQQQEEEEEEEEEEEEEEEEQQQQQQQQQQQQQQQQQ........",
"........KKKKQQQQQQQQQQQQQQQQQQQQQQQQQQQQQQQQQQQQQQQQQQQQ........",
"........JIQQQQQQQQQQQQQQQQlffffffffffffffgkkgffgkkglQQQQ........",
"........JUEQlllllQQQQQQQQQgo@###################><<lQQQQ........",
"........JUQQ####lQQQQQQQQQk$ggggggggggggggggggggggglQQQQ........",
"........KKQQ#ii#lQQQQQQQQQl2ggggggggggggggggggggggglQQQQ........",
"........KKQQ#ii#lQQQQQQQQQl2ggXXggXXggggggXXggXXggglQQQQ........",
"........KKQQ####lQQQQQQQQQl>ggXXXXXXggssggXXXXXXggglQQQQ........",
"........KKQQQQQQQQQQQQQQQQl@XXiiXXiiXXrrXXiiXXiiXXglQQQQ........",
"........KKQlllllllllllllQQl@XXiiXXiiXXrrXXiiXXiiXXglQQQQ........",
"........KKQ############lQQl>ggXXXXXXggggggXXXXXXggglQQQQ........",
"........KKQ#ii##ii##ii#lQQl2ggXXggXXggggggXXggXXggglQQQQ........",
"........KKQ#ii##ii##ii#lQQl2ggggggggsgggggggggggggglQQQQ........",
"........FKQ############lQQl222222222222222222222222lQWQQ........",
"........mMZDZZFFZZFFZZFKILZNVCCCCCCCCCCCCCCCCCCCCCCFLYTR........",
"........MVZHKKKKKKKKKKKKKKKKKKKKKKKKKKKKKKKKKKKKKKKKKKKK........",
"......bMHKKKKKKKKKKKKKKKKKKKKKKKKKKKKKKKKKKKKKKKKKKKKKKKKK......",
"......MFKiiKKKKKKKKKKKKKKKKKKKKKKKKKKKKKKKKKKKKKKKKKKKKKKK......",
"....bMHKKiiKKKKKxxxxKKKKxxxxKKKKxxxxKKKKxxxxKKKKxxxxKKKKKKKK....",
"....MKKKKKKKKKKKxxxxKKKKxxxxKKKKxxxxKKKKxxxxKKKKxxxxKKKKKKKK....",
"..bMKKKKKKKGxxxxnBBnxxxxnBBnxxxxnBBnxxxxnBBnxxxxnVAVxxxxKKKKKK..",
"..MKKKKKKKFnxxxxnBBnxxxxnVAVxxxxVSSVxxxxVAVnxxxxnBBnxxxxKKKKKK..",
"bMKKKKKKxxxxnBBnxxxxnBBnxxxxVBBVxxxxVBBVxxxxnBBnxxxxnBBMxxxKKKKK",
"bMKKKKKKxxxxKKKKxxxxKKKKxxxxPPPPxxxxPKKKxxxxJPPJxxxxJPPJxxxKKKKK",
"bMKKKKKKKKKKKKKKKKKKKKKKKKKKKKKKKKKKKKKKKKKKKKKKKKKKKKKKKKKKKKKK",
"bnKKKKKKKKKKKKKKKKKKKKKKKxxxxxxxxxxxxxxxxxKKKKKKKKKKKKKKKKKKKKKK",
"bbnKKKKKKKKKKKKKKKKKKKKKKxxxxxxxxxxxxxxxxxKKKKKKKKKKKKKKKKKKKKKK",
"bbbmKKKKKKKKKKKKKKKKKKKKKKKKKKKKKKKKKKKKKKKKKKKKKKKKKKKKKKKKKKKK"
};
