/* XPM */
static const char *code[] = {
/* columns rows colors chars-per-pixel */
"64 64 27 1 ",
"  c black",
". c #260808",
"X c #193400",
"o c #030E21",
"O c #2A2521",
"+ c #500000",
"@ c #642828",
"# c #3B6614",
"$ c #517332",
"% c #000150",
"& c #102344",
"* c #030470",
"= c #385344",
"- c #B33B0A",
"; c #CF5C09",
": c #9B8779",
"> c #D58951",
", c #E0935B",
"< c #CB946C",
"1 c #4A4B88",
"2 c #B7B7B7",
"3 c #C6A48C",
"4 c #D7D7D7",
"5 c #DFDFDF",
"6 c #EDD3C1",
"7 c #E7E7E7",
"8 c white",
/* pixels */
"oooooooooooooooooooooooooooooooooooooooooooooooooooooooooooooooo",
"oooooooooooooooooooooooooooooooooooooooooooooooooooooooooooooooo",
"ooooooo4oooooooooooooooooooo8oooooooooooooooooooooooooooooo8oooo",
"oooooooooooooooooooooooooooooooooooooooooo8ooooooooooooooooooooo",
"oooooooooooooooooooooooooooooooooooooooooooooooooooooooooooooooo",
"oooooooooooooooooooooooooooooooooooooooooooooooooooooooooooooooo",
"oooooooooooooooooooooooooooooooooooooooooooooooooooooooooooooooo",
"oooooooooooooo5ooooooooooooooooooooooooooooooooooooooooooooooooo",
"oooooooooooooooooooooooooooooooooooooooooooooooooooooooooooooooo",
"oooooooooooooooooooooooooooooooooooooooooooooooooooooooooooooooo",
"oooooooooooooooooooooooo5ooooooooooooooooooooooooooooooooooooooo",
"oooooooooooooooooooooooooooooooooooooooooooooooooooooooo ooooooo",
"ooooooooooooooooooooooooooooooooooooooooooooooooooooooo = oooooo",
"oooooooooooooooooooooooooooooooooooooooooooooooooooooo ==O ooooo",
"ooooooooooooooooooooooooooooooooooooooooooooooooooooo ==OOO oooo",
"ooo7oooooooooooooooooooooooooooooooooooooooooooooooo ==OOOOO ooo",
"ooooooooooooooooooo2ooooooooooooooooooooooooooooooooo ==OOO oooo",
"ooooooooooooooooooooooooooooooooooooooooooooooo86ooooo ==O ooooo",
"ooooooooooooooooooooooooooooooooooooo.oooooo8oooooooooo = oooooo",
"oooooooooooooooooooooooooooooooooooo.@.oooo6oooooooooooo ooooooo",
"ooooooooooooooooooooooooooooooooooo.@@+.oooooooooooooooooooooooo",
"oooooooooooooooooooooooooooooooooo.@@+++.ooooooooooooooooooooooo",
"ooooooooooooooooooooooooooooooooo.@@+++++.oooooooooooooooooooooo",
"oooooooooooooooooooooooooooooooooo.@@+++.ooooooooooooooooooooooo",
"oooooooooo%oooooooooooooooooooooooo.@@+.ooooooooooooooooooooo7oo",
"ooooooooo%1%oooooooooooooooooooooooo.@.ooooooooooooooooooooooooo",
"oooooooo%11*%oooooooooooooooooooooooo.oooooooooooooooooooooooooo",
"ooooooo%11***%oooooooooooooooooo6ooooooooooooooooooooooooooooooo",
"oooooo%11*****%ooo8oooooooooooo8oooooooooooooooooooooooooooooooo",
"ooooooo%11***%ooooo8ooooooo&oooooooooooooooooooooooooooooooooooo",
"oooooooo%11*%ooooooooooooo&6&ooooooooooooooooooooooooooooooo7ooo",
"ooooooooo%1%ooooooooooooo&666&oooooooooooooooooooooooooooooooooo",
"oooooooooo%ooooooooooooo&6:::6&ooooooooooooooooooooooooooooooooo",
"ooooooooooooooooooooooo&66:::66&oooooooooooooooooooooooooooooooo",
"oooooooooooooooooooooooo&6:::6&ooooooooooooooooooooooooooooooooo",
"ooooooooooooooooooooooooo&666&oooooooooooooooooooooooooooooooooo",
"oooooooooooooooooooooooooo&6&ooooooooooooooooooooo&ooooooooooooo",
"oooooooooo8oooooooooooooooo&ooooooooooooooooooooo&6&oooooooooooo",
"oooooooooo8oooooooooooooooooooooooooooooooooooooo&6&oooooooooooo",
"o5ooooooooooooooooooooooooooooooooooooooooooooooo&6&oooooooooooo",
"ooooooooooooooooooooooooooooooooooooooooooooooooo&6&oooooooooooo",
"oooooooooooooooooooooooooooo8oooooooooooooooooooo&6&oooooooooooo",
"ooooooooooooooooooooooooooooo8oooooooooooooooooo&366&ooooooooooo",
"oooooooooooXooooooooooooooooooooooooooooooooo&&&3><36&&&oooooooo",
"ooooooooooX$Xooooooooooooooooooooooooooooooo&<<33><<6666&ooooooo",
"oooooooooX#$$Xooooooooooooooooooooooooooooooo&&&3>>>3&&&oooooooo",
"ooooooooX###$$Xooooooooooooooooooooooooooooooooo&333&ooooooooooo",
"oooooooX#####$$Xooooooooooooooooooooooooooooooooo&3&oooooooooooo",
"ooooooooX###$$Xoooooooooooooooooooooooooooooooooo&3&oooooooooooo",
"oooooooooX#$$Xooooooooooooooo-ooooooooooooooooooo&3&oooooooooooo",
"ooooooooooX$Xooooooooooooooo-,-oooooooooooooooooo&<&oooooooooooo",
"oooooooooooXooooooooooooooo-;,,-ooooooooooooooooo&<&oooooooooooo",
"ooooooooooooooooooo88ooooo-;;;,,-ooooooooooooooooo&oooooooo7oooo",
"ooooooooooooooooooooooooo-;;;;;,,-oooooooooooooooooooooooooooooo",
"oooooooooooooooooooooooooo-;;;,,-ooooooooooooooooooooooooooooooo",
"ooooooooooooooooooooooooooo-;,,-oooooooooooooooooooooooooooooooo",
"oooooooooooooooooooooooooooo-,-ooooooooooooooooooooooooooooooooo",
"ooooooooooooooooooooooooooooo-oooooooooooooooooooooooooooooooooo",
"oooooooooooooooooooooooooooooooooooooooooooooooooooooooooooooooo",
"ooooo4oooooooooooooooooooooooooooooooooooooooooooooooooooooooooo",
"ooooooooooooooooooooooooooooooooooooooooooooooooooooo5oooooooooo",
"oooooooooooooooooooooooooooooooooooooooo4ooooooooooooooooooooooo",
"oooooooooooooooooooooooooooooooooooooooooooooooooooooooooooooooo",
"oooooooooooooooooooooooooooooooooooooooooooooooooooooooooooooooo"
};
