/* XPM */
static const char *Space_Stars6[] = {
/* columns rows colors chars-per-pixel */
"64 64 9 1 ",
"  c #181425",
". c #171E33",
"X c #172634",
"o c #152742",
"O c #123A5F",
"+ c #133B5F",
"@ c #0B6FAE",
"# c #0099DB",
"$ c #2CE8F5",
/* pixels */
"                                   XX                           ",
"                                             O                  ",
"                   O          #                                 ",
"    O                        @$@                          #     ",
"                              #       @            @            ",
"                                                                ",
"                       o                                    #   ",
"                                                                ",
"      .                   .                           O         ",
"              O                                                 ",
"                                                                ",
"                                          #                     ",
"            O    @              O                   ...         ",
"                         @                         .ooo.        ",
"                              .                    .oOOo.       ",
"                                                   .oO@Oo.      ",
"                                                    .oOOo.      ",
"                                                     .ooo.      ",
"                           #       O         @        ...       ",
"         o                     @                                ",
"                     @         #                                ",
"       O                     @#$#@                            @ ",
"                               #                   O            ",
"                               @    #                           ",
"                       ...                                      ",
"                      .ooo.                                     ",
"                      .oOOo.                 O               O  ",
"                O     .oO@Oo.          .                        ",
"                       .oOOo.    O                              ",
"                        .ooo.             o         #     O     ",
"  .                      ...                                    ",
"                                                                ",
"          o                                                     ",
"                             O                                  ",
"                      #                                   @     ",
"                                                                ",
"    O                                        ...      O         ",
"                                            .ooo.   @           ",
"                  @                         .oOOo.  @           ",
"                                  .         .oO@Oo.#$#          ",
"                                             .oOOo. #           ",
"     .                                        .ooo. @           ",
"                                               ...              ",
"                       O               #                 #      ",
"          #                                                  O  ",
"         @$@                                                    ",
"          #                      O              O               ",
"                    .                                           ",
"                     .       .                                  ",
"                      .     .                                   ",
"                       o...o          .                         ",
"                       .ooo.                O                   ",
"                       .o@o.                                    ",
"              ...      .ooo.                         O          ",
"        O    .ooo.     ....o     O                              ",
"            .OoOo.    .     .                                   ",
"           .ooooo.           .                   O              ",
"           .oOoO.                                      O        ",
"           .Ooo.                                                ",
"            ...                                                 ",
"                                                                ",
"                                                                ",
"                                           .                    ",
"                                                                "
};
