/* XPM */
static const char *score_7[] = {
/* columns rows colors chars-per-pixel */
"64 64 215 2 ",
"   c #080B07",
".  c #0E0E0E",
"X  c #0F110F",
"o  c #0C0B12",
"O  c #100F10",
"+  c #0E1112",
"@  c #0A101C",
"#  c #121313",
"$  c #1C1D1D",
"%  c #1D201E",
"&  c #030E21",
"*  c #171E26",
"=  c #1A1E22",
"-  c #1E1D3A",
";  c #241D26",
":  c #241E29",
">  c #291E34",
",  c #1D2123",
"<  c #18232B",
"1  c #1B232D",
"2  c #1F2D33",
"3  c #1D2B36",
"4  c #153133",
"5  c #212121",
"6  c #2A2326",
"7  c #26252B",
"8  c #29252D",
"9  c #26292B",
"0  c #2A2A2D",
"q  c #252532",
"w  c #2A2432",
"e  c #222A34",
"r  c #2C2D31",
"t  c #28263A",
"y  c #2A2E39",
"u  c #313234",
"i  c #34353C",
"p  c #3B3B3D",
"a  c #3B6614",
"s  c #4E4B3F",
"d  c #321C4D",
"f  c #1E2C41",
"g  c #1C3544",
"h  c #1E354B",
"j  c #1E394F",
"k  c #1E3754",
"l  c #1E3854",
"z  c #2A2A41",
"x  c #32294C",
"c  c #263444",
"v  c #23354C",
"b  c #223B4E",
"n  c #383742",
"m  c #3E3D43",
"M  c #3C3C49",
"N  c #232451",
"B  c #2A2456",
"V  c #2C2159",
"C  c #31255E",
"Z  c #352859",
"A  c #342A5A",
"S  c #203751",
"D  c #223B51",
"F  c #3B3857",
"G  c #323C5B",
"H  c #281C65",
"J  c #352662",
"K  c #382961",
"L  c #2B3465",
"P  c #373464",
"I  c #353073",
"U  c #403E44",
"Y  c #443C4C",
"T  c #443755",
"R  c #452A65",
"E  c #463670",
"W  c #47367D",
"Q  c #583A7E",
"!  c #1A4155",
"~  c #25464E",
"^  c #3E4343",
"/  c #1D6B54",
"(  c #24724E",
")  c #2A675B",
"_  c #257559",
"`  c #374873",
"'  c #2C6863",
"]  c #424345",
"[  c #44454A",
"{  c #46484D",
"}  c #4A4B4D",
"|  c #4F504F",
" . c #51544F",
".. c #474A51",
"X. c #4D4E52",
"o. c #4A4159",
"O. c #534858",
"+. c #4F5054",
"@. c #525355",
"#. c #555954",
"$. c #525459",
"%. c #5A5D5A",
"&. c #524D6F",
"*. c #584275",
"=. c #564A72",
"-. c #605371",
";. c #6B697E",
":. c #219966",
">. c #9DA261",
",. c #3E3C89",
"<. c #24309E",
"1. c #2734A4",
"2. c #4C3A87",
"3. c #573B88",
"4. c #643B8C",
"5. c #3D4E8A",
"6. c #484284",
"7. c #5C4485",
"8. c #544C8E",
"9. c #554493",
"0. c #55439B",
"q. c #584A98",
"w. c #4D529B",
"e. c #595399",
"r. c #67538E",
"t. c #644B98",
"y. c #65529D",
"u. c #6C539B",
"i. c #6A6B82",
"p. c #747385",
"a. c #747289",
"s. c #736793",
"d. c #6D7093",
"f. c #544AA3",
"g. c #594FAC",
"h. c #5A55A5",
"j. c #674DA3",
"k. c #644DAD",
"l. c #6A57A5",
"z. c #6C53A9",
"x. c #7E57AA",
"c. c #7559A9",
"v. c #624EB3",
"b. c #6756B2",
"n. c #785BB8",
"m. c #5072A9",
"M. c #5474AC",
"N. c #5D74B3",
"B. c #5A7FB8",
"V. c #7662AE",
"C. c #6F71AD",
"Z. c #7769B5",
"A. c #6877B8",
"S. c #7474BA",
"D. c #6E72CA",
"F. c #7275C9",
"G. c #835DB7",
"H. c #945FBF",
"J. c #8666BB",
"K. c #9364BD",
"L. c #8871B5",
"P. c #917BB9",
"I. c #955FC6",
"U. c #806BC2",
"Y. c #9463C3",
"T. c #9963C4",
"R. c #9668C7",
"E. c #9C63CB",
"W. c #9D6ACD",
"Q. c #9773C7",
"!. c #A668CE",
"~. c #A867D7",
"^. c #B57ADF",
"/. c #B67FE4",
"(. c #BC7BE5",
"). c #5884B7",
"_. c #7989B9",
"`. c #6799B8",
"'. c #6B82C3",
"]. c #7384CA",
"[. c #7B9AC8",
"{. c #7C96D6",
"}. c #78A6CB",
"|. c #928C90",
" X c #9EAE92",
".X c #9185B9",
"XX c #949ABA",
"oX c #A98FB6",
"OX c #93A9B2",
"+X c #97A1BD",
"@X c #A4BABF",
"#X c #80C79C",
"$X c #C9D4AF",
"%X c #8A87C6",
"&X c #8A92D2",
"*X c #88AACB",
"=X c #8CADD7",
"-X c #90B0D2",
";X c #A6A7CC",
":X c #A6BDD6",
">X c #94C3D4",
",X c #A7C2DA",
"<X c #B3C9D7",
"1X c #BFDFDB",
"2X c #BCE0DB",
"3X c #CCDCC4",
"4X c #D5DECC",
"5X c #C9DDD5",
"6X c #D4E5CF",
"7X c #C9E3D7",
"8X c #E8E7CD",
"9X c #C7CAE5",
"0X c #F4C6FB",
"qX c #F8D9FB",
"wX c white",
/* pixels */
"& & & & & & & & & & & & & & & & & & & & & & & & & & & & & & & & & & & & & & & & & & & & & & & & & & & & & & & & & & & & & & & & ",
"& & & & & & & & & & & & & & & & & & & & & & & & & & & & & & & & wX& & & & & & & & & & & & & & & & & & & & & & & & & & & & & & & ",
"& & & & & & & & & & & & & & & & & & & & & & & & & & & & & & & & & & & & & & & & & & & & & & & & & & & & & & & & & & & & & & & & ",
"& & & & & & & & # p.p.+.@.& } } } } } 0 } } } } } 0 { } } { } 5 ] } } } } { u u +.X.X.X.X.X.u @.@.@.@.+.i.i.& & & & & & & & & & ",
"& & & & & & & & # p.a.@.X.] ] ] ] ] ] p p p p p p p p p p p p p } } 0 0 0 0 } 0 0 0 0 0 0 0 0 ] ] ] @.+.i.i.i.& & & & & & & & & ",
"& & wX& & & & & X p.a.X.{ ] p ] ] ] ] ] ] ] ] ] [ [ [ ] ] ] ] @.@.@.@.@.@.@.@.@.@.@.@.@.@.@.@.] ] ] @.+.i.i.i.& & & & & & & & & ",
"& & & & & & & & X p.a...{ ] $ r o r r 0 r r r r r r 0 0 0 0 [ @.@.@.@.@.@.@.@.@.@.@.$ $ $ 0 0 7 7 ] @.+.;.i.i.& & & & & wX& & & ",
"& & & & & & & & X p.a.[ [ ] = ; ; ; ; ; : : : : ; : 6 ; : : 5 | | . # # ! 4 9 = q w l.e.e.~ ~ 7 7 ] @.+.;.i.i.& & & & & & & & & ",
"& & & & & & & & X p.a.[ [ [ K.K.Y.Y.Y.d z.z.z.9.l.c.x z.b.c.w y 1 D D j g e q q.6.e.q.A.N.M.M.7 7 ] @.+.;.i.i.& & & & & & & & & ",
"& & & & & & & & X p.a.[ [ Y E.0X~.E.R.Z W q.s.s.c.c.Z 0.0.V.w y 1 ' ' h h e q j.t.j.R.%X.Xn.n.8 7 ] @.+.;.i.& & & & & & & & & & ",
"& & & & & & & & X p.p.[ [ Y E.0X!.E.E.Z W f.&X$XU.c.Z q.8XL.w y 1 _ ) h h e q z.c.R.T.9X5XJ.G.q 7 ] @.+.;.i.& & & & & & & & & & ",
"& & & & & & & & X p.a.[ { Y E.0X!.E.E.Z W f.&Xa J.c.Z q.8XL.w y 1 _ ) h h e q z.c.R.T.9X7XJ.G.q 7 ] @.+.i.i.& & & & & & & & & & ",
"& & & & & & & & X p.a.[ { Y E.qX!.E.E.Z W f.&Xa U.c.Z 0.8XL.> y 1 _ ' h h e q z.c.R.R.9X6XZ.G.w 8 ] @.+.i.i.& & & & & & & & & & ",
"& & & & & & & & # p.a.[ { Y W 7.G.4.4.K 2.0.q.O.l.c.Z f.n.P.> u 2 ~ ' g g 2 9 W 7.J.J.u.u.z.c.w 8 ] @.X.i.i.& & & & & & & & & & ",
"& & & & & & & & # p.a.[ { m `.>X).).).K 2.f.%Xh.S.Z.J v.F.V.t u i 4 ( ( ( _ _ 1 a ` 5.B.B.).B.w 7 ] $.X.i.i.i.& & & & & & & & & ",
"& & & & & & & & # p.a.[ { m M.[.N.N.N.Z 2.w.{.].D.C.J v.D.C.t u i   3X3X3X<.1.L L L 5.A.B.B.m.q 7 ] $.+.i.i.i.& & & & & & & & & ",
"& & & & & & & & # p.a.[ { m (.qXY.Y.Y.K 9.w.=X=Xd.s.J h._.&Xt u q b @ + + c 2 j.k.Y.Y.^./.Y.Y.8 6 ] $.X.i.i.& & wX& & & & & & & ",
"& & & & & & & & # p.a.[ { o.(.qXY.Y.Y.R q.w.*Xa *XC.J h.a +Xt u e b j S b v 1 y.k.T.T.^.(.Y.Y.8 7 ] $.X.i.i.& & & & & & & & & & ",
"& & & & & & & & # p.a.[ { o.(.qXY.Y.Y.R 8.w.-XOX}.C.J h.3X+Xt u e b S S S v 1 j.j.Y.T.^.(.I.Y.8 8 ] $.+.i.i.& & & & & & & & & & ",
"& & & & & & & & + p.p.] [ Y (.qXT.Y.Y.R 8.w.OXa }.C.J h.OXXXq u e D D S D v q j.j.j.T.^.(.I.Y.6 9 ] $.+.i.i.& & & & & & & & & & ",
"& & & & & & & & & p.p.] [ i -.|.E W W K B N s >.o.N B I I P q u e b c = = n 8 z z z -.oXoXx x w 9 ] $.+.i.i.i.& & & & & & & & & ",
"& & & & & & & & & p.a.] [ u %.%.%.%.&.q F G G G G G - - Z $.#.#.#.#.#.#.#.#.#.#.@.] ] ] ] ^ ^ 7 0 ] $.+.i.i.& & & & & & & & & & ",
"& & & & & & & & & a.a.] [ r , $ , , % % % % $ , , = = * = % @. . .@.9 9 9 9 } #.#.$ $ $ $ $ $ 7 7 ] $.+.i.i.& & & & & & & & & & ",
"& & & & & & & & & a.a.] [ M P 8.8.8.8.Z *.6.6.6.6.6.B 6.F G 7 X., < * * * n , m M t.t.t.q.q.q.8 9 ] $.+.i.i.& & & & & & & & & & ",
"& & & & & & & & & a.a.[ { F Q.%X;X&X[.Z h.h.*X*X=XS.B g.a a 8 y 2 v v v v c < y.u.x.:X1X:Xn.n.w 0 ] $.X.i.i.& & & & & & & & & & ",
"& & & & & & & & & a.a.[ { x Q.a a [.A.Z h.8.a :X-XS.B g.a a 6 y 2 S j b b c < y.u.x.:X1X>X].n.q 0 ] $.X.i.i.i.& & & & & & & & & ",
"& & & & & & & & & p.a.[ { x Q.a *X=X_.Z h.w.7X:X=XS.B g.a a 6 y e S S S b c * y.y.x.:X2X>X'.n.q 0 ] $.X.i.i.i.& & & & & & & & & ",
"& & wX& & & & & & a.a.] { n R =.3.3.3.Z 2.2.Q Q Q 9.B g.2.r.7 u 3 j k k j g < L K 7.7.*.3.3.3.8 0 ] $.X.i.i.i.& & & & & & & & & ",
"& & & & & & & & & p.a.] { n C.,XS.S.S.Z 3.2.[.F.F.e.V g.&X%X7 u 6X:.l l / / _ L 6.8.8.}.}.m.m.8 0 U $.X.i.i.i.& & & & & & & & & ",
"& & & & & & & & & p.a.[ { i C.>XA.A.S.Z 9.0.[.'.F.S.V g.]._.6 u  X#Xl k ) 4X4X` ,.8.8.).).m.M.8 7 U $.X.i.i.& & & & & & & & & & ",
"& & & & & & & & & p.p.[ { T ~.0XW.W.Q.K q.w.<X<X&XS.V g.]._.6 u u 3 l l j 3 , k.v.L..X7X;XT.Y.8 0 m $.X.i.i.& & & & & & & & & wX",
"& & & & & & & & & p.p.[ { T ~.0XW.W.Q.J q.,.<X@Xa S.V f.a  X7 q q ' l l k f , k.v.K..X5X;XT.H.w 0 U $.X.i.i.& & & & & & & & & & ",
"& & & & & & & & & a.a.[ { T ~.0XW.W.Q.C H I C @X|.c.V e.$XC 7 e 2 ) l j k g 1 k.v.L.P.5X;XK.K.8 0 m $.X.i.i.& & & & & & & & & & ",
"& & & & & & & & & a.a.[ { Y 5 5 5 5 5 5 5 5 5 5 5 5 5 5 5 5 5 5 5 5 5 5 5 5 5 5 5 5 5 5 5 5 5 8 0 m $.X.i.i.i.& & & & & & & & & ",
"& & & & & & & & & p.a.[ { u 5 5 5 5 5 5 5 5 5 5 5 5 5 5 5 5 5 5 5 5 5 5 5 5 5 5 5 5 5 5 5 5 5 9 0 m $.X.i.i.i.& & & & & & & & & ",
"& & & & & & & & & p.p.[ { 5 5 5 5 5 C C C C C C C C C C C C C C C C C C C C C C C C C C 5 5 5 7 8 m $.X.i.i.i.& & & & & & & & & ",
"& & & & & & & & & p.p.[ { m 5 5 5 5 C C C C C C C C C C C C C C C C C C C C C C C C C C 5 5 5 8 0 U $.X.i.i.i.& & & & & & & & & ",
"& & & & & & & & & p.p.[ { m 5 x.x.5 C C C C C C C C C *.*.*.*.*.*.*.*.*.*.C C C C C C C 5 *.5 w 0 ] $.X.i.i.& & & & & & & & & & ",
"& & & & & & & & & p.p.[ ..U 5 5 5 5 C C C C C C C C C *.*.*.*.*.*.*.*.*.*.C C C C C C C 5 5 5 w 0 ] $.X.i.i.& & & & & & & & & & ",
"& & & & & & & & & p.a.[ { Y 5 *.*.5 C C C C C C C C C x.x.x.x.x.x.x.x.*.*.C C C C C C C 5 x.5 w 0 ] @.X.i.i.& & & & & & & & & & ",
"& & & & & & & & & p.a.] ..Y 5 5 5 5 C C C C C C C C C C C C C C C C x.*.*.C C C C C C C 5 5 5 w 0 ] @.X.i.i.& & & & wX& & & & & ",
"& & & & & & & & & p.a.] ..Y 5 5 5 5 C C C C C C C C C C C C C C C C x.*.*.C C C C C C C 5 5 5 8 0 m @.X.i.i.i.& & & & & & & & & ",
"& & & & & & wX& & p.a.] { n 5 5 5 5 C C C C C C C C C C C C C C C C x.*.*.C C C C C C C 5 5 5 8 0 p @.X.i.i.i.& & & & & & & & & ",
"& & & & & & & & & p.a.] ..n 5 5 5 5 C C C C C C C C C C C C C C x.x.x.*.*.C C C C C C C 5 5 5 8 w p @.X.i.i.i.& & & & & & & & & ",
"& & & & & & & & & p.a.[ ..m 5 5 5 5 C C C C C C C C C C C C C C x.*.*.*.*.*.*.C C C C C 5 5 5 8 8 p @.X.i.i.i.& & & & & & & & & ",
"& & & & & & & & & p.a.] ..M 5 5 5 5 C C C C C C C C C C C C C C x.*.*.*.*.*.*.C C C C C 5 5 5 w w p @.X.i.i.& & & & & & & & & & ",
"& & & & & & & & & p.a.] ..M 5 5 5 5 C C C C C C C C C C C C C C x.x.x.*.*.C C C C C C C 5 5 5 w w p @.X.i.i.& & & & & & & & & & ",
"& & & & & & & & & p.a.] { m 5 5 5 5 C C C C C C C C C C C C C C C C x.*.*.C C C C C C C 5 5 5 w 0 p @.X.i.i.& & & & & & & & & & ",
"& & & & & & & & & p.a.] { n 5 5 5 5 C C C C C C C C C C C C C C C C x.*.*.C C C C C C C 5 5 5 w 8 p @.X.i.i.& & & & & & & & & & ",
"& & & & & & & & # p.a.] { n 5 5 5 5 C C C C C C C C C C C C C C C C x.*.*.C C C C C C C 5 5 5 8 0 p @.X.i.i.i.& & & & & & & & & ",
"& & & & & & & & # a.a.] { u 5 5 5 5 C C C C C C C C C C C C C C C C x.*.*.C C C C C C C 5 5 5 8 0 p @.X.i.i.i.& & & & & & & & & ",
"& & & & & & & & # p.a.] { i 5 5 5 5 C C C C C C C C C C C C C C C C x.*.*.C C C C C C C 5 5 5 7 8 p @.X.i.i.i.& & & & & & & & & ",
"& & & & & & & & # p.a.[ { M 5 5 5 5 C C C C C C C C C C C C C C C C x.*.*.C C C C C C C 5 5 5 w 0 p @.X.i.i.i.& & & & & & & & & ",
"& & & & & & & & # a.p.[ { T 5 5 5 5 C C C C C C C C C C C C C C C C C C C C C C C C C C 5 5 5 > 0 p @.X.i.i.& & & & & & & & & & ",
"& & & & & & & & # a.p.[ { T 5 5 5 5 C C C C C C C C C C C C C C C C C C C C C C C C C C 5 5 5 > 0 p @.X.i.i.& & & & & & & & & & ",
"& & & & & & & & # a.p.[ } T 5 5 5 5 C C C C C C C C C C C C C C C C C C C C C C C C C C 5 5 5 > 0 p @.X.i.i.& & & & & & & & & & ",
"& wX& & & & & & # p.p.[ { F 5 5 5 5 C C C C C C C C C C C C C C C C C C C C C C C C C C 5 5 5 8 0 p @.X.i.i.& & & & & & & & & & ",
"& & & & & & & & # p.p.[ ..F 5 5 5 5 5 5 5 5 5 5 5 5 5 5 5 5 5 5 5 5 5 5 5 5 5 5 5 5 5 5 5 5 5 : 0 p @.X.i.i.i.& & & & & & & & & ",
"& & & & & & & & # p.p.[ ..p 5 5 5 5 5 5 5 5 5 5 5 5 x.x.x.x.x.x.x.x.x.x.x.5 5 5 5 5 5 5 5 5 5 , r p @.X.i.i.i.& & & & & wX& & & ",
"& & & & & & & & # p.p.%...p 5 5 5 5 5 5 5 5 5 5 5 5 *.*.*.*.*.*.*.*.*.*.x.5 5 5 5 5 5 5 5 5 5 $ ^ m @.X.i.i.i.& & & & & & & & & ",
"& & & & & & & & # p.p.X.X.p # $ 5 5 5 $ 5 5 5 5 5 5 5 5 $ $ $ $ $ $ $ $ $ $ $ $ $ $ $ % $ $ $ $ { X.@.+.i.i.i.& & & & & & & & & ",
"& & & & & & & & & & & & & & & & & & & & & & & & & & & & & & & & & & & & & & & & & & & & & & & & . O O . . . . & & & & & & & & & ",
"& & & & & & & & & & & & & & & & & & wX& & & & & & & & & & & & & wX& & & & & & & & & & & & & & & & & & & & & & & & wX& & & & & & ",
"& & & & & & & & & & & & & & & & & & & & & & & & & & & & & & & & & & & & & & & & & & & & & & & & & & & & & & & & & & & & & & & & "
};
