/* XPM */
static const char *server[] = {
/* columns rows colors chars-per-pixel */
"64 64 234 2 ",
"   c #080B07",
".  c #0C0E0D",
"X  c #0E110F",
"o  c #0C0D13",
"O  c #100F10",
"+  c #0D1114",
"@  c #121313",
"#  c #131719",
"$  c #1C1D1E",
"%  c #1D211E",
"&  c #030E21",
"*  c #1C1E23",
"=  c #191E27",
"-  c #1A1E3C",
";  c #231E26",
":  c #241E29",
">  c #251D37",
",  c #1D2124",
"<  c #1D232B",
"1  c #1A262D",
"2  c #1E2934",
"3  c #1D243A",
"4  c #1D2B3B",
"5  c #153333",
"6  c #222223",
"7  c #2A2326",
"8  c #25252C",
"9  c #29252D",
"0  c #25292D",
"q  c #2A2A2D",
"w  c #252532",
"e  c #2A2432",
"r  c #232A33",
"t  c #2C2D31",
"y  c #25253B",
"u  c #29243B",
"i  c #242A3C",
"p  c #2A2C3B",
"a  c #303235",
"s  c #34343B",
"d  c #3B353B",
"f  c #3B3B3D",
"g  c #3B6614",
"h  c #48463E",
"j  c #291B4D",
"k  c #1E2C41",
"l  c #1C3644",
"z  c #1F354C",
"x  c #1E394F",
"c  c #1E3554",
"v  c #1D3A53",
"b  c #1F3158",
"n  c #262A46",
"m  c #2A2A42",
"M  c #32284C",
"N  c #253444",
"B  c #23344D",
"V  c #213A4E",
"C  c #3E3D43",
"Z  c #3A3945",
"A  c #292457",
"S  c #36285A",
"D  c #213352",
"F  c #2B3255",
"G  c #213C51",
"H  c #37385A",
"J  c #2B2B61",
"K  c #332C64",
"L  c #392863",
"P  c #2A3465",
"I  c #393668",
"U  c #2F3177",
"Y  c #393777",
"T  c #403E44",
"R  c #443C4C",
"E  c #442B5D",
"W  c #443557",
"Q  c #452B64",
"!  c #463B6A",
"~  c #463778",
"^  c #50357B",
"/  c #1E4456",
"(  c #264240",
")  c #3C4245",
"_  c #244855",
"`  c #196A4F",
"'  c #24724E",
"]  c #2B665A",
"[  c #257559",
"{  c #374571",
"}  c #2C6863",
"|  c #306163",
" . c #424345",
".. c #474844",
"X. c #494A46",
"o. c #44454A",
"O. c #46484D",
"+. c #4B4C4C",
"@. c #4E504F",
"#. c #51534D",
"$. c #484754",
"%. c #4D4E52",
"&. c #524958",
"*. c #4F5054",
"=. c #525355",
"-. c #555954",
";. c #535459",
":. c #5A5D5A",
">. c #4E4B71",
",. c #594775",
"<. c #615571",
"1. c #6B697C",
"2. c #74637A",
"3. c #2C9C62",
"4. c #38A166",
"5. c #9DA261",
"6. c #3B3D85",
"7. c #24309E",
"8. c #2C3AAB",
"9. c #4B3D85",
"0. c #483A89",
"q. c #4D3D8B",
"w. c #563B88",
"e. c #503A96",
"r. c #6B3C91",
"t. c #3D4E8A",
"y. c #3742B6",
"u. c #484184",
"i. c #584489",
"p. c #534C8E",
"a. c #4D508C",
"s. c #574797",
"d. c #5C4C9C",
"f. c #4D529B",
"g. c #5A5497",
"h. c #6A4E90",
"j. c #634A98",
"k. c #65539C",
"l. c #68569B",
"z. c #72539C",
"x. c #526F95",
"c. c #6A6B82",
"v. c #747385",
"b. c #747289",
"n. c #716A93",
"m. c #564BA3",
"M. c #594FAB",
"N. c #4D53A1",
"B. c #5A54A7",
"V. c #5D52B4",
"C. c #684DA3",
"Z. c #644DAD",
"A. c #6755A5",
"S. c #6C54AB",
"D. c #7658A9",
"F. c #645AB2",
"G. c #795AB7",
"H. c #5168A4",
"J. c #4D77AB",
"K. c #5475AC",
"L. c #5978B6",
"P. c #6664AB",
"I. c #7762AC",
"U. c #797CAA",
"Y. c #6B6BB0",
"T. c #7964B3",
"R. c #6878B8",
"E. c #7474BA",
"W. c #6D74CC",
"Q. c #7275C9",
"!. c #8D57B2",
"~. c #8A5BB5",
"^. c #835CBA",
"/. c #8567A8",
"(. c #847BAB",
"). c #8767BA",
"_. c #9567BE",
"`. c #9169BC",
"'. c #8775B6",
"]. c #9579BB",
"[. c #A06FBF",
"{. c #8A5FC3",
"}. c #935DC4",
"|. c #8865C3",
" X c #9463C4",
".X c #9867C5",
"XX c #9C63CB",
"oX c #9C6ACD",
"OX c #9774C5",
"+X c #8F71DC",
"@X c #A469CD",
"#X c #A871CD",
"$X c #A86AD4",
"%X c #AB72DA",
"&X c #B675DD",
"*X c #9576E1",
"=X c #BB7BE5",
"-X c #5884B7",
";X c #668EB8",
":X c #7989B9",
">X c #7384CA",
",X c #7290CD",
"<X c #7B9AC8",
"1X c #79A6CA",
"2X c #928C90",
"3X c #97A994",
"4X c #A2AA98",
"5X c #928EB9",
"6X c #A98FB6",
"7X c #95A6B6",
"8X c #AAB9BA",
"9X c #80C79C",
"0X c #C7CFB1",
"qX c #CDE2B1",
"wX c #8C91CE",
"eX c #A99FD1",
"rX c #88AACB",
"tX c #8FACD2",
"yX c #ACB1CC",
"uX c #8FB0E2",
"iX c #EAB1FA",
"pX c #94C3D4",
"aX c #ACC7C9",
"sX c #A7C3D9",
"dX c #B4C8D7",
"fX c #BAD3D4",
"gX c #BCE0DB",
"hX c #CEDDCD",
"jX c #CDE4D4",
"kX c #E8E7CD",
"lX c #CBCEE5",
"zX c #F5C7FB",
"xX c #F8D9FB",
"cX c white",
/* pixels */
"& & & & & & & & & & & & & & & & & & & & & & & & & & & & & & & & & & & & & & & & & & & & & & & & & & & & & & & & & & & & & & & & ",
"& & & & & & & & & & & & & & & & & & & & & & & & & & & & & & & & cX& & & & & & & & & & & & & & & & & & & & & & & & & & & & & & & ",
"& & & & & & & & & & & & & & & & & & & & & & & & & & & & & & & & & & & & & & & & & & & & & & & & & & & & & & & & & & & & & & & & ",
"& & & & & & & & @ v.v.*.=.& +.+.+.+.+.q +.+.+.+.+.q O.+.+.O.+.6  .%.+.+.+.O.a a *.%.%.%.%.%.a =.=.=.=.*.c.c.& & & & & & & & & & ",
"& & & & & & & & @ v.b.=.%. . . . . . .f f f f f f f f f f f f f +.+.q q q q +.q q q q q q q q  . . .=.*.c.c.c.& & & & & & & & & ",
"& & cX& & & & & X v.b.%.O. .f  . . . . . . . . . .o... . . . .=.=.=.=.=.=.=.=.=.=.=.=.=.=.=.=. . . .=.*.c.c.c.& & & & & & & & & ",
"& & & & & & & & X v.b.%.O. .$ t o t t q t t t t t t q q q q o.=.=.=.=.=.=.=.=.=.=.=.$ $ $ q t 6 8  .=.*.1.c.c.& & & & & cX& & & ",
"& & & & & & & & X v.b.o.o. .* ; ; ; ; ; : : : : ; : 6 ; : : 6 @.@.. @ @ / 5 0 = r e A.g.g._ _ 8 8  .=.*.1.c.c.& & & & & & & & & ",
"& & & & & & & & X v.b.o.o.o._._. X X Xj S.S.S.s.D.D.M S.S.D.9 p < G G x l r w p.u.d.d.Y.L.K.K.8 8  .=.*.1.c.c.& & & & & & & & & ",
"& & & & & & & & X v.b.o.o.R XXzX$XXXXXS ~ s.n.n.D.D.S s.s.T.e p 1 } } z z i w C.j.C..XwX5XG.G.9 8  .=.*.1.c.& & & & & & & & & & ",
"& & & & & & & & X v.v.o.o.R XXzX@XXXXXS ~ m.wX0X|.D.S s.kX'.e p 1 [ ] z z r w S.D..X.XlXhX).^.w 8  .=.*.1.c.& & & & & & & & & & ",
"& & & & & & & & X v.b.o.O.R XXzX@XXXXXS ~ m.wXg |.D.S s.kX'.e p 1 [ ] z z r w S.D..X XlXjX).^.w 8  .=.*.c.c.& & & & & & & & & & ",
"& & & & & & & & X v.b.o.O.R XXxX@XXXXXS ~ m.wXg |.I.S s.kX'.> p 1 [ } z z r r S.D..X XlXjX).^.w 9  .=.*.c.c.& & & & & & & & & & ",
"& & & & & & & & @ v.b.o.O.R ^ i.~.r.r.L 9.s.g.&.D.D.S m.G.].> a 2 ( } l l r r 9.i.).).z.l.C.D.w 9  .=.%.c.c.& & & & & & & & & & ",
"& & & & & & & & @ v.b.o.O.C ;XpX-X-X-XL 9.m.wXB.E.T.L Z.Q.I.u a s 5 ' ' ' [ [ 1 g { t.L.L.-XL.w 8  .;.%.c.c.c.& & & & & & & & & ",
"& & & & & & & & @ v.b.o.O.C K.<XL.L.L.S 9.N.,X>XW.Y.L V.W.P.u a s   hXhXhX7.7.J P P t.R.L.L.H.w 8  .;.*.c.c.c.& & & & & & & & & ",
"& & & & & & & & @ v.b.o.O.C =XxX X X XL p.f.uXuXn.n.S B.:XwXu a w V + O + N 2 C.Z. X X&X=X X X9 7  .;.%.c.c.& & cX& & & & & & & ",
"& & & & & & & & @ v.b.o.O.$.=XxX X X XQ s.f.rXg rXY.K B.g 7Xu a r V x G V B < k.Z. X X&X=X X X9 8  .;.%.c.c.& & & & & & & & & & ",
"& & & & & & & & @ v.b.o.O.W =XxX X X XQ p.f.rX7X1XY.K B.hX7Xu a r V V V G B 2 C.C. X X&X=X X X9 9  .;.*.c.c.& & & & & & & & & & ",
"& & & & & & & & O v.v. .o.R =XxX X X XQ p.f.7Xg 1XY.K B.7X5Xw a 0 G G G G B w C.C.C. X&X=X}. X7 0  .;.*.c.c.& & & & & & & & & & ",
"& & & & & & & & & v.v. .o.s <.2X! ~ ~ K A A h 5.$.A A Y U K 9 a r V N = * Z 9 m m m <.6X6XF M w 0  .;.*.c.c.c.& & & & & & & & & ",
"& & & & & & & & & v.b. .o.a :.:.:.:.>.w H H H H H H > - F ;.-.-.-.-.-.-.-.-.-.-.=. . . . .) ) 8 q  .;.*.c.c.& & & & & & & & & & ",
"& & & & & & & & & b.b. .o.t , $ , , % % % % $ , , * * = * % =.#.#.=.0 0 0 0 +.-.-.$ $ $ $ $ $ 8 8  .;.*.c.c.& & & & & & & & & & ",
"& & & & & & & & & b.b. .o.C I p.p.p.p.S >.u.u.u.u.u.A u.H H 8 %., 1 = = = N , C Z j.j.j.s.s.s.9 0  .;.*.c.c.& & & & & & & & & & ",
"& & & & & & & & & b.b.o.O.H OXwXeXwX<XS B.B.rXtXtXE.A M.g g 9 p 2 B B V V N < k.z.D.yXgXyXG.G.w q  .;.%.c.c.& & & & & & & & & & ",
"& & & & & & & & & b.b.o.O.M OXg g <XR.S B.p.g yXtXE.A M.g g 7 p 2 G x V V N < k.l.D.yXgXpX>XG.w q  .;.%.c.c.c.& & & & & & & & & ",
"& & & & & & & & & v.b.o.O.M OXg rXuX:XS B.f.jXuXtXE.A M.g g 7 p r v D D V N = k.l.D.sXgXpX>XG.w q  .;.%.c.c.c.& & & & & & & & & ",
"& & cX& & & & & & b.b. .O.Z Q ,.w.w.w.S q.w.^ ^ ^ s.A M.q.h.9 a 4 x c c x l 1 P K i.i.,.w.w.w.9 q  .;.%.c.c.c.& & & & & & & & & ",
"& & & & & & & & & v.b. .O.Z U.sXE.E.E.S w.0.<XQ.Q.d.A M.wXwX9 a kX3.v v ` ` [ P u.p.p.1X1XJ.J.9 q T ;.%.c.c.c.& & & & & & & & & ",
"& & & & & & & & & v.b.o.O.s U.pXR.R.E.S s.s.<X>XQ.E.A M.>X:X7 a 3X9Xv c ] hXhX{ 0.p.p.-X-XK.K.9 8 T ;.%.c.c.& & & & & & & & & & ",
"& & & & & & & & & v.b.o.O.W $XzXoXoXOXL s.f.dXdXwXE.A M.>X:X6 a a 4 v v x 4 , Z.V.).5XjXeX X X9 q C ;.%.c.c.& & & & & & & & & cX",
"& & & & & & & & & v.b.o.O.W $XzXoXoXOXL s.6.dX8Xg E.A m.g 4X6 w w } v v c k , Z.V.`.5XjXeX X_.w q T ;.%.c.c.& & & & & & & & & & ",
"& & & & & & & & & b.b.o.O.W $XzXoXoXOXS J Y g 8X2XD.A f.qXg 6 r 2 ] v x c l < Z.V.`.].jXeX_._.9 q C ;.%.c.c.& & & & & & & & & & ",
"& & & & & & & & & b.b.o.O.R /.yXI.D.~ I ~ ! 5X5Xp.l.S Y K n 6 r 2 | v v c l < C.9.Y ! (./././.9 q C ;.%.c.c.c.& & & & & & & & & ",
"& & & & & & & & & v.b.o.O.a =.+.m m p p m m m m m m m m m p 6 r p 4 B B B 4 , y i i i i y m y 9 q C ;.%.c.c.c.& & & & & & & & & ",
"& & & & & & & & & v.v.o.O.6 6 6 6 6 6 6 6 6 < < < < < < 6 , 6 #.#.+.h h h y % * * * 6 6 ; , ; 8 9 C ;.%.c.c.c.& & & & & & & & & ",
"& & & & & & & & & v.v.o.O.C ! D.D.s.s.M A.A.A.A.l.j j.M.H h.9 #.=.# yXyX- 8.y.j S.j.~ d.d.0.G.9 q T ;.%.c.c.c.& & & & & & & & & ",
"& & & & & & & & & v.v.o.O.C `. XS.S.S.L w.u.S.G.G.D.L M.#X~.9 #.r N   X c b , i.s.Z.S.^.G.D.^.w q  .;.%.c.c.& & & & & & & & & & ",
"& & & & & & & & & v.v.o.%.T #XiX.X X XE 9.0.+X).|.T.L V.%X!.e w 4 V V x B z < i.s.Z.OX@XoXXX}.w q  .;.%.c.c.& & & & & & & & & & ",
"& & & & & & & & & v.v.o.O.T $XiXXX X XE q.e.*Xg ).T.L V.%X!.w w 4 V V V V z < i.Z.OX_.lXdX X}.w q  .=.%.c.c.& & & & & & & & & & ",
"& & & & & & & & & v.b. .O.T $XiX X X XS 9.0.*Xg ).T.L V.%X~.9 a 4 V V G V z < i.Z._.`.fXaX X}.w q  .=.%.c.c.& & & & cX& & & & & ",
"& & & & & & & & & v.b. .O.T $XiX X X XE 9.0.*Xg ).T.L V.%X~.9 a 4 x V V V z < p.Z._.].jXaX X}.9 q C =.%.c.c.c.& & & & & & & & & ",
"& & & & & & cX& & v.b. .O.Z j.D.j.i.i.Q 9.q.e.w.G.k.L e.i.i.9 a ` ` v x l 5 5 { I s.i.wXOXr.r.9 q f =.%.c.c.c.& & & & & & & & & ",
"& & & & & & & & & v.b. .%.Z ;XuXJ.L.L.Q q.U wXR.P.P.L V.W.F.9 a 0X0Xv x 4.4.4.] F I P.L.L.J.J.9 e f =.%.c.c.c.& & & & & & & & & ",
"& & & & & & & & & v.b.o.O.Z ;Xx.L.L.L.E 9.U 1X,XH.l.L V.W.F.< a X # v v ].].].I Y p.p.g.g.H.H.9 9 f =.%.c.c.c.& & & & & & & & & ",
"& & & & & & & & & v.b. .%.Z $XzX|.|.|.Q 9.6.rXg tXU.K M.qXz.r 0 r _ / G n n w d.j.`.).dXaX|.|.w w f =.%.c.c.& & & & & & & & & & ",
"& & & & & & & & & v.b. .$.Z $XzX X X XE 9.6.sXg rX(.K M.qXz.r 0 r / / G B n y j.j.`.`.dXaX|.{.w e f =.%.c.c.& & & & & & & & & & ",
"& & & & & & & & & v.b. .O.C $XzX X X XE 9.Y 1X0XtX(.K M.qXz.r q r / / G B n w j.d.`.`.dXg |.|.e q f =.%.c.c.& & & & & & & & & & ",
"& & & & & & & & & v.b. .O.Z $XzX X X XE 9.{ 3Xg U.'.I B.yXz.0 q r _ / G B n w q.q.`.`.dXg |.|.e 9 f =.%.c.c.& & & & & & & & & & ",
"& & & & & & & & @ v.b. .O.Z [.lXD.z.C.S S S $. .P Y - J J j 9 q r _ / G B n 8 J P p.p.>.a.a.a.9 q f *.%.c.c.c.& & & & & & & & & ",
"& & & & & & & & @ b.b. .O.s ;.;.H H H p i y y y y y y y w w q a ) _ 1 2 r < < 3 3 3 3 3 3 3 3 9 q f =.%.c.c.c.& & & & & & & & & ",
"& & & & & & & & @ v.b. .O.s * * , , * % 6 d ; 6 6 6 8 8 6 : +.+.#.+.X...X.+.a $ * = < * * * = 8 9 f =.%.c.c.c.& & & & & & & & & ",
"& & & & & & & & @ v.b.o.O.Z <.,.^ i.j.! l.S k.k.I.I.u A.A.A.a a =.o yX8X7XP U y.s.I s.d.d.>.G.w q f =.%.c.c.c.& & & & & & & & & ",
"& & & & & & & & @ b.v.o.O.W @X!.oXoX^.! Z.C.A.C.G.T.~ F.F.A.s a $ 8 .   o D c < G.G.^.}.}.{.G.> q f =.%.c.c.& & & & & & & & & & ",
"& & & & & & & & @ b.v.o.O.R @XzX@X@X^.~ ~ 9.dXg k.G.j P.1.g a a n D c c c D D < S.~.#X&X&XoXG.> q f =.%.c.c.& & & & & & & & & & ",
"& & & & & & & & @ b.v.o.O.R @XzX#X#X^.~ ~ 9.sXg 2.G.- Y.<.g a a i B D D D D B < S.~.#X&X&XoXG.> q f =.%.c.c.& & & & & & & & & & ",
"& cX& & & & & & @ v.v.o.O.H @XzX#X@X^.~ ! u.aX0X(.I.> g.>.8X* a i D D D D D B = S.G.D.&X&XoXG.9 q f =.%.c.c.& & & & & & & & & & ",
"& & & & & & & & @ v.v.o.%.H @Xj.i.,.D.H o n A A K > o n A A p a + 3 3 3 2 2 = . J P K z.C.A.G.: q f =.%.c.c.c.& & & & & & & & & ",
"& & & & & & & & @ v.v.o.%.f @ +.+.+.+.+.+.+.+.+.+.+.+.+.+.+.+.+.+.+.+.+.+.+.+.+.+.+.+.+.&.k.i , t f =.%.c.c.c.& & & & & cX& & & ",
"& & & & & & & & @ v.v.:.%.f @ +.+.+.+.X.X.+.X.X.+.+.X.+.+.+.+.+.+.+.+.+.+.+.@.*.+.+.+.+.+.$.r $ ) C =.%.c.c.c.& & & & & & & & & ",
"& & & & & & & & @ v.v.%.%.f @ $ 6 6 6 $ 6 6 % $ , 6 6 6 $ $ $ $ $ $ $ $ $ $ $ $ $ $ $ % $ $ $ $ O.%.=.*.c.c.c.& & & & & & & & & ",
"& & & & & & & & & & & & & & & & & & & & & & & & & & & & & & & & & & & & & & & & & & & & & & & & . O o . . . . & & & & & & & & & ",
"& & & & & & & & & & & & & & & & & & cX& & & & & & & & & & & & & cX& & & & & & & & & & & & & & & & & & & & & & & & cX& & & & & & ",
"& & & & & & & & & & & & & & & & & & & & & & & & & & & & & & & & & & & & & & & & & & & & & & & & & & & & & & & & & & & & & & & & "
};
