/* XPM */
static const char *boat_right[] = {
/* columns rows colors chars-per-pixel */
"32 32 15 1 ",
"  c #372719",
". c #252020",
"X c #4A301D",
"o c #08255D",
"O c #0D295E",
"+ c #030470",
"@ c #183260",
"# c #1D3561",
"$ c #1E4765",
"% c #B32326",
"& c #B72125",
"* c #E1C4B1",
"= c #E8CFB7",
"- c #E8CEB9",
"; c #DAD2C5",
/* pixels */
"ooooo####oo##o#o######ooo####ooo",
"ooooooo###oo#oooo######ooo####oo",
"#oooooo#####oooooooo####oo##oooo",
"Oo#oooooo#o#####oooo####oooooooo",
"o##ooooooooooo#oooo#####oooooooo",
"@####ooooooooooooooooooooooooo##",
"#####$$$###oooooo###ooo#######$#",
"##$$$$$#####$$## ##############$",
"################ ##$$$####$$$$$$",
"################ --$###$$$######",
"################ %%%####$$$$$$$#",
"$$##########$$$$ %%-########$$##",
"$$$$$##########$ ;*=-#####$$$##$",
"####$$$######### ;;%%$$####$####",
"#####$$$$$###$$# %%%#$$$####$$$#",
"####$$$####$$$$# %;--$$$$$$#####",
"$$$#$########### ;;-&###########",
"$$############## ;-&###########$",
"####$$$$$######$ -&&############",
"########$$$####$ &%$$$$#########",
"#####X########## &#$$$$$$$$$$X$#",
"$$###XX######### ########$$$XX$$",
"$####XX  #####$$ #########  XX$$",
"#####XXX .&&         &&.   XXX$#",
"#####XXX .&&   ++.   &&.  XXXX##",
"###ooXXXX...XXX++.XXX...XXXXX###",
"##ooooXXXXXXXXX...XXXXXXXXXXo###",
"##oooooXXXXXXXXXXXXXXXXXXXXoo###",
"###ooooooooooooooooooooooooo####",
"################################",
"################################",
"################################"
};
