/* XPM */
static const char *player_down[] = {
/* columns rows colors chars-per-pixel */
"32 32 60 1 ",
"  c #372719",
". c #1A283E",
"X c #2B2531",
"o c #2E2D37",
"O c #272C3A",
"+ c #202F3E",
"@ c #4A301D",
"# c #1A2C49",
"$ c #192D4E",
"% c #1D2F4F",
"& c #1B304E",
"* c #1D304E",
"= c #062557",
"- c #082557",
"; c #08255A",
": c #0C275B",
"> c #08255D",
", c #0D2A5B",
"< c #0D295E",
"1 c #1A2F52",
"2 c #1A2F54",
"3 c #1A3157",
"4 c #1F3456",
"5 c #1B3159",
"6 c #1C325A",
"7 c #1E355B",
"8 c #1D335C",
"9 c #1B345D",
"0 c #1D355E",
"q c #243246",
"w c #27354B",
"e c #21314C",
"r c #25334F",
"t c #29374A",
"y c #273A4B",
"u c #293949",
"i c #323A46",
"p c #383D46",
"a c #323D49",
"s c #203252",
"d c #223452",
"f c #203155",
"g c #22375A",
"h c #243A5F",
"j c #273D5D",
"k c #183260",
"l c #1D3561",
"z c #1F3860",
"x c #243B61",
"c c #233C61",
"v c #253C60",
"b c #214157",
"n c #254054",
"m c #22445E",
"M c #1E4765",
"N c #2A4062",
"B c #274A65",
"V c #334763",
"C c #8B0000",
"Z c #B3ABA4",
/* pixels */
">>>>>llll>>ll>l,hlllll>>>llll>>>",
">>>>>>>lll>>l>>000lllll>>>llll>>",
"l>>>>>>lllll>>>00->>llll>>ll>>>>",
"<>l>>>>>>l>llll@@=>>llll>>>>>>>>",
">ll>>>>>>:;;:;j@@4;0090l>>>>>>>>",
"kllll>>>&;;;;;;@@;;;;;;t>>>>>>ll",
"lllllMMMw@@@@@@@@@@@@@@illllllMl",
"llMMMMMl6ZZCZZC@@CZZCZZglllllllM",
"lllllllllZZCZZC@@CZZCZZxllMMMMMM",
"lllllllllZZCZZC@@CZZCZZBMMllllll",
"llllllll0ZZCZZC@@CZZCZZcMMMMMMMl",
"MMllllllzZZCZZC@@CZZCZZNllllMMll",
"MMMMMlllvZZCZZC@@CZZCZZVllMMMllM",
"llllMMMlfZZCZZC@@CZZCZZrlllMllll",
"lllllMMMaZZCZZC@@CZZCZZp7lllMMZl",
"llllMMM8l@@@@@@@@@@@@@@lbMMlllll",
"MMMMMlll%d @@      @@ d*9lllllll",
"MMMlllllll @@      @@ lllllllllM",
"lllMMMMMMl @@      @@ llllllllll",
"llllllllMm @@      @@ nlllllllll",
"llllllllld @@      @@ uMMMMMMMMl",
"MMllllllld @@@    @@@ qllMMMMMMM",
"Mllllllll4 @@@@@@@@@@ elllllllMM",
"lllllllll0 @@@@@@@@@@ 5lllllMMMl",
"llllllllll  @@@@@@@@  lllMMMllll",
"lllllllllls @@@@@@@@ yMMMMMMllll",
"llllllllll#  @@@@@@  +MMMMllllll",
"llllllllll5O  @@@@@ o1llllllllll",
"lllllllllll2X @@@@  $lllllllllll",
"llllllllllll2. @@  $llllllllllll",
"llllllllllllll    0lllllllllllll",
"lllllllllllllll53lllllllllllllll"
};
