/* XPM */
static const char *player_up[] = {
/* columns rows colors chars-per-pixel */
"32 32 55 1 ",
"  c #2E232A",
". c #39292C",
"X c #4A301D",
"o c #482528",
"O c #182742",
"+ c #1F2F47",
"@ c #192C4C",
"# c #1D3A4F",
"$ c #082357",
"% c #08265A",
"& c #08255D",
"* c #0D295E",
"= c #132A54",
"- c #122C55",
"; c #1E3457",
": c #1C3C53",
"> c #1B3359",
", c #1B345D",
"< c #1C345E",
"1 c #22354D",
"2 c #24364C",
"3 c #28394E",
"4 c #2C3D4F",
"5 c #373C44",
"6 c #243553",
"7 c #213656",
"8 c #243554",
"9 c #2A3B50",
"0 c #293C51",
"q c #223758",
"w c #253B5B",
"e c #273E59",
"r c #183260",
"t c #1D3561",
"y c #283F60",
"u c #1E425E",
"i c #394346",
"p c #3E4046",
"a c #24435B",
"s c #36475A",
"d c #1E4360",
"f c #1E4765",
"g c #284163",
"h c #294264",
"j c #2F4666",
"k c #2C5067",
"l c #2D5168",
"z c #3F516C",
"x c #454A4F",
"c c #484E5C",
"v c #40526D",
"b c #445C70",
"n c #940000",
"m c #865D33",
"M c #D3C6C4",
/* pixels */
"&&&&&tttt&&tt&t=7ttttt&&&tttt&&&",
"&&&&&&&ttt&&t&%XX,ttttt&&&tttt&&",
"t&&&&&&ttttt&&%XX$&&tttt&&tt&&&&",
"*&t&&&&&&t&tttwXX-&&tttt&&&&&&&&",
"&tt&&&&&&&&&&&sXXe&ttttt&&&&&&&&",
"rtttt&&-9++0+1xXXx2+4++9-&&&&&tt",
"tttttffiXXXXXXXXXXXXXXXX5tttttft",
"ttfffff3MMnnMnnMMnnMnnMM3ttttttf",
"tttttttyMMnnMnnMMnnMnnMMytffffff",
"tttttttgMMnnMnnMMnnMnnMMkftttttt",
"ttttttthMMnnMnnMMnnMnnMMlfffffft",
"fftttttjMMnnMnnMMnnMnnMMjtttfftt",
"fffffttzMMnnMnnMMnnMnnMMztfffttf",
"ttttfffvMMnnMnnMMnnMnnMMvttftttt",
"tttttffbMMnnMnnMMnnMnnMMvtttffft",
"ttttfffvMMnnMnnMMnnMnnMMbffttttt",
"fffffttcMMnnMnnMMnnMnnMMcttttttt",
"fffttt<pMMnnMnnMMnnMnnMMp<tttttf",
"tttffff:# XXXX    XXXX @@ttttttt",
"ttttttttf XXX      XXX ttttttttt",
"ttttttttq XX        XX affffffft",
"fftttttt6 XX        XX 6tfffffff",
"fttttttt8 XXX      XXX 8ttttttff",
"tttttttt; XXXX    XXXX ;ttttffft",
"tttttttt< XXXXX  XXXX  <tffftttt",
"ttttttttt  XXXXXXXXXX dffffftttt",
"ttttttttt> XXXXXXXXXX uffftttttt",
"ttttttttt<  XXXXXXXXo <ttttttttt",
"tttttttttt@  XXmmXX   tttttttttt",
"ttttttttttt@  XmmX. @ttttttttttt",
"tttttttttttt@  mm O@tttttttttttt",
"tttttttttttttt    tttttttttttttt"
};
