/* XPM */
static const char *player_up[] = {
/* columns rows colors chars-per-pixel */
"64 64 77 1 ",
"  c #020202",
". c #090002",
"X c #01040A",
"o c #000C0F",
"O c #070610",
"+ c #121416",
"@ c #151618",
"# c #17181A",
"$ c #191919",
"% c #201F1F",
"& c #2B1F1C",
"* c #1C201F",
"= c #24211C",
"- c #2D2119",
"; c #030E21",
": c #0D1C25",
"> c #1F1F21",
", c #1E2225",
"< c #1C232C",
"1 c #232323",
"2 c #292423",
"3 c #242528",
"4 c #27282A",
"5 c #2D2D2D",
"6 c #343434",
"7 c #3B6614",
"8 c #517332",
"9 c #17324B",
"0 c #3E3F41",
"q c #3F4144",
"w c #284059",
"e c #154668",
"r c #414244",
"t c gray29",
"y c #4F5356",
"u c #525354",
"i c #5F5F5F",
"p c #6F6F6F",
"a c #717172",
"s c #7A7A7A",
"d c #063EAD",
"f c #768289",
"g c #808183",
"h c #908E8F",
"j c #8B9399",
"k c #B4B7BA",
"l c gray73",
"z c #BCBFC2",
"x c #CECFD1",
"c c #CED3D7",
"v c #CFD5DB",
"b c #D3D4D6",
"n c #D9D6D2",
"m c #D2D6DA",
"M c #D3D8DB",
"N c #D1D8DE",
"B c #D6DBDE",
"V c #D8DAD9",
"C c #DBDCDE",
"Z c #DDDDDD",
"A c #EDD3C1",
"S c #D8DDE1",
"D c #E1E2E4",
"F c #E6E6E6",
"G c #E5E7EC",
"H c #E6EAEB",
"J c #EBEFF0",
"K c #EDEEF0",
"L c #F4F6F5",
"P c #F6F8FA",
"I c #F9F8F9",
"U c #F8FCFB",
"Y c #FFFFF8",
"T c #FAFAFC",
"R c #FCFAFD",
"E c #FBFDFC",
"W c white",
/* pixels */
";;;;;;;;;;;;;;;;;;;;;;;;;;;;;;;;;;;;;;;;;;;;;;;;;;;;;;;;;;;;;;;;",
";;;;;;;;;;;;;;;;;;;;;;;;;;;;;;;;;;;;;;;;;;;;;;;;;;;;;;;;;;;;;;;;",
";;;;;;;;;;;W;;;;;;;;;;;;;;;;;;;;;;;;;;;;;;;;;;;;;;;;;;;;;;;;;;;;",
";;;;;;;;;;;;;;;;;;;;;;;;;;;;;;;;;;;;;;;;;;;;;;;;;;;;;;;;;;;;;;;;",
";;;;;;;;;;;;;;;;;;;;;;;;;;;;;;;;;;;;;;;;;;;;;;;;;;;;;;;;;;;;;;;;",
";;;;;;;;;;;;;;;;;;;;;;;;;;;;;;;W;;;;;;;;;;;;;;;;;;;;;;;;;;W;;;;;",
";;;;;;;;;;;;;;;;;;;;;;;;;;;;;;;;;;;;;;;;;;;;;;;;;;;;;;;;;;;;;;;;",
";;;;;;;;;;;;;;;;;;;;;;;;;;;;;;;;;;;;;;;;;;;;;;;;;;;;;;;;;;;;;;;;",
";;;;W;;;;;;;;;;;;;;;;;;;;;;;;;;;;;;;;;;;;;;;;;;;;A;;;;;;;;;;;;;;",
";;;;;;;;;;;;;;;;;;;;;;;;;;;;;;;;;;;;;;;;;;;;;;;;;;;;;;;;;;;;;;;;",
";;;;;;;;;;;;;;;;;;;;;;;;;;;11111111111;;;;;;;;;;;;;;;;;;W;;;;;;;",
";;;;;;;;;;;;;;;;;;;;;;;;;e1WWWWWWWWWWW1;;;;;;;;;;;;;;;;;;;;;;;;;",
";;;;;;;;;;;;;;;;;;;;;;;;;MWWWWWWWWWWWWI3;;;;;;;;;;;;;;;;;;;;;;;;",
";;;;;;;;;;;;;;;;;;;;wnn93WWW655556565WWb,;;;;;;;;;;;;;;;;;;;;;;;",
";;;;;;;;;;;;;;;;;;;-Wbm1WW   aa       1mM ;;;;;;;;;;;;;;;;;;;;;;",
";;;;;;;;;;;;;;;;;;&YE,11W5 pap$$$##$   mm ;;;;;;;;;;;;;;;;;;;;;;",
";;;;;;;;;W;;;;;;;;,Wb;;2W5pa########## mm ;;;;;;;;;;;;;;;;;;;;;;",
";;;;;;;;;;;;;;;;;;;jG1h1W5r$$7W$$$7W$$@mv f;;;;;;;;;;;;;;;;;;;;;",
";;;ppppppppppppppp;1R*W1W5+@@7W@@@7W@@+mm W;;;;;;;;;;;;;;;;;;;;;",
";;;pdddddddppd#pdp;;3,W1W5 ###########imm W;;;;;;;;;;;;;;;;;;;;;",
";;;pddddddd$#dp#dp;;;1Wm15   @@@@@##pp c mW;;;;;;;;;;;;;;;;;;;;;",
";;;pdddddddddddddp;;;<WNyDr0      tu ru,qmW;;;;;;;;;;;;;;;;;;;;;",
";;;ppppppppppppppp;;;<Wmmr1mmmmmmmmmmv mvmW;;;;;;;;;;;;;;;;;;;;;",
";;;pWWWWWWWWWWWWWp;;;<Wv1bm1111111    b  mI;;;;;;;;;;;;;;;;;;;;;",
";;;pWWWWW$$WWWWWWp;;;<11WWbWW5WWWWW1,1mmm  ;;;;;;;;;;;W;;;;;;;;;",
";;;pWWWW@$$#WWWWWp;;;:mWWWWm,mWWWWW4,#bTWWx;;;;;;;;;;;;;;;;;;;;;",
";;;pWWW$W@@W$WWWWp;;;MWWWWWW,WWWWWWvWvWWWWm3;;;;;;;;;;;;;;;;;;;;",
";;;pWWWWW@@WWWWWWp;;,EWWWWM1m1WWWWW,WWBWWWUc,;;;;;;;;;;;;;;;;;;;",
";;;pWWWWW##WWWWWWp;;1WWWWC1W1,1WWW,W,WWYWWWm1;;;;;;;;;;;;;;;;;;;",
";;;pWWWWW##WWWWWWp;;%IWWWqWW1Z$WWW,,,WkIYWWm1;;;;;;;;;;;;;;;;;;;",
";;;pWWWWWWWWWWWWWp;2IM$$$zWWb1IWWWI,mmS3mWWmm<;;;;;;;;;;;;;;;;;;",
";;;pWWWWWWWWWWWWWp;1WWWmckEWmWm11,IWmWm1mWWWm<;;;;;;;;;;;;;;;;;;",
";;;ppppppppppppppp;1WWWmvkEWmP$,,,1EmWm3mWWWm<;;;;;;;;;;;;;;;;;;",
";;;;;;;;;1$81;;;;;;=WWWmmlWWbH1WWW5IbWm1mWWWm,;;;;;;;;;;;;;;;;;;",
";;;;;;;;;1$$81;;;;3WWWbm3TWWWI31111EWWmc3MWWvv1;;;;;;;;;;;;;;;;W",
";;;;;;;;;1$$811;;;X11W131VWWWEIWWWWWWmm31mWW11 ;;;;;;;;;;;;;;;;;",
";;;;;;;;;;1$$81;;; mm11$8881WWWWWWWWm=1c111111 ;;;;;;;;;;;;;;;;;",
";;;;;;;;;;;1$$11;; mmv88$88m111111111Mvv mvv11 ;;;;;;;;;;;;;;;;;",
";;;;;;;;;;;;1$881; mm#8$$JWWWWWWWWWWEmmm1 mm11 ;;;;;;;;;;;;W;;;;",
";;;;;;;;;;;;;1$$11 1$8$$$PWWWWWWbWWWWWmm1 m311 ;;;;;;;;;;;;W;;;;",
";;;;;;;;;;;;;11$881$8$$11WWWWWWm1WWWWWmm1; 1  ;;;;;;;;;;;;;;;;;;",
";W;;;;;;;;;;;;11$$88111;1WWWWWmv1bWWWWmm1;; ;;;;;;;;;;;;;;;;;;;;",
";;;;;;;;;;;;;;;;11111;;;1WWWWWmv3MWWWWKm1;;;;;;;;;;;;;;;;;;;;;;;",
";;;;;;;;;;;;;;;;;;;;;;;;1WWWWWmv3MWWWWIm1;;;;;;;;;;;;;;;;;;;;;;;",
";;;;;;;;;;;;;;;;;;;;;;;;1WWWWWbv1bWWWWWm1;;;;;;;;;W;;;;;;;;;;;;;",
";;;;;;;;;;;W;;;;;;;;;;;;11WWWW>1,1FWWWb11;;;;;;;;;;;;;;;;;;;;;;;",
";;;;;;;;;;;;;;;;;;;;;;;;1Lpsppvv1Fasspgm1;;;;;;;;;;;;;;;;;;;;;;;",
";;;;;;;;;;;;;;;;;;;;;;;;1WWWWImv1WYWWWmm1;;;;;;;;;;;;;;;;;;;;;;;",
";;;;;;;;;;;;;;;;;;;;;;;;       m1b       ;;;;;;;;;;;;;;;;;;;;;;;",
";;;;;;;;;;;;;;;;;;;;;;; mmmmmx1 1Xmmmmm11 ;;;;;;;;;;;;;;;;;;;;;;",
";;;;;;;;;;;;;;;;;;;;;;Xbcccccc11 ccccccc11O;;;;;;;;;;;;;;;;;;;;;",
";;;;;;;;;;;;;;;;;;;;;; mmmmmc1$1 mmmmmz111O;;;;;;;;;;;;;;;;;;;;;",
";;;;;;;;;;;;;;;;;;;;;;X111111111 111111111o;;;;;;;;;;;;;;;;;;;;;",
";;;;;;;;;;;;;;;;;;;;;;         .;         X;;;;;;;;;;;;;;;;;;;;;",
";;;;W;;;;;;;;;;;;;;;;;;;;;;;;;;;;;;;;;;;;;;;;;;;;;;;;;;;;;;;;;;;",
";;;;;;;;;;;;;;;;;;;;;;;;;;;;;;;;;;;;;;;;;;;;;;;;;;;;;;W;;;;;;;;;",
";;;;;;;;;;;;;;;;;;;;;;W;;;;;;;;;;;;;;;;;;;;;;;;;;;;;;;;;;;;;;;;;",
";;;;;;;;;;;;;;;;;;;;;;;;;;;;;;;;;;;;;;;;;;;;;;;;;;;;;;;;;;;;;;;;",
";;;;;;;;;;;;W;;;;;;;;;;;;;;;;;;;;;;;;;;;;;;;;;;;;;;;;;;;;;;;;;;;",
";;;;;;;;;;;;;;;;;;;;;;;;;;;;;;;;;;;;;;;;;;;;;;;;;;;;;;;;;;;;;;;;",
";;;;;;;;;;;;;;;;;;;;;;;;;;;;;;;;A;;;;;;;;;;;;;;;;;;;;;;;;A;;;;;;",
";;;;;;;;;;;;;;;;;;;;;;;;;;;;;;;;;;;;;;;;;;;;;;;;;;;;;;;;;;;;;;;;",
";;;;;;;;;;;;;;;;;;;;;;;;;;;;;;;;;;;;;;;;;;;;;;;;;;;;;;;;;;;;;;;;",
";;;;;;;;;;;;;;;;;;;;;;;;;;;;;;;;;;;;;;;;;;;;;;;;;;;;;;;;;;;;;;;;"
};
