/* XPM */
static const char *player[] = {
/* columns rows colors chars-per-pixel */
"64 64 78 1 ",
"  c #020202",
". c #090002",
"X c #01040A",
"o c #000C0F",
"O c #070610",
"+ c #121416",
"@ c #151618",
"# c #17181A",
"$ c #191919",
"% c #201F1F",
"& c #2B1F1C",
"* c #1C201F",
"= c #24211C",
"- c #2D2119",
"; c #030E21",
": c #0D1C25",
"> c #1F1F21",
", c #1E2225",
"< c #1C232C",
"1 c #232323",
"2 c #292423",
"3 c #242528",
"4 c #27282A",
"5 c #2D2D2D",
"6 c #343434",
"7 c #36531C",
"8 c #3B6614",
"9 c #517332",
"0 c #17324B",
"q c #3E3F41",
"w c #3F4144",
"e c #284059",
"r c #154668",
"t c #414244",
"y c gray29",
"u c #4F5356",
"i c #525354",
"p c #5F5F5F",
"a c #6F6F6F",
"s c #717172",
"d c #7A7A7A",
"f c #063EAD",
"g c #4879DA",
"h c #768289",
"j c #808183",
"k c #908E8F",
"l c #8B9399",
"z c #B4B7BA",
"x c gray73",
"c c #BCBFC2",
"v c #BFCBE2",
"b c #CECFD1",
"n c #CED3D7",
"m c #CFD5DB",
"M c #D3D4D6",
"N c #D9D6D2",
"B c #D2D6DA",
"V c #D3D9DC",
"C c #D8DAD9",
"Z c #DBDCDE",
"A c #DDDDDD",
"S c #EDD3C1",
"D c #D8DDE1",
"F c #E1E2E4",
"G c #E6E6E6",
"H c #E5E7EC",
"J c #E6EAEB",
"K c #EBEFF0",
"L c #EDEEF0",
"P c #F4F6F5",
"I c #F6F8FA",
"U c #F9F8F9",
"Y c #F8FCFB",
"T c #FFFFF8",
"R c #FAFAFC",
"E c #FCFAFD",
"W c #FBFDFC",
"Q c white",
/* pixels */
";;;;;;;;;;;;;;;;;;;;;;;;;;;;;;;;;;;;;;;;;;;;;;;;;;;;;;;;;;;;;;;;",
";;;;;;;;;;;;;;;;;;;;;;;;;;;;;;;;;;;;;;;;;;;;;;;;;;;;;;;;;;;;;;;;",
";;;;;;;;;;;Q;;;;;;;;;;;;;;;;;;;;;;;;;;;;;;;;;;;;;;;;;;;;;;;;;;;;",
";;;;;;;;;;;;;;;;;;;;;;;;;;;;;;;;;;;;;;;;;;;;;;;;;;;;;;;;;;;;;;;;",
";;;;;;;;;;;;;;;;;;;;;;;;;;;;;;;;;;;;;;;;;;;;;;;;;;;;;;;;;;;;;;;;",
";;;;;;;;;;;;;;;;;;;;;;;;;;;;;;;Q;;;;;;;;;;;;;;;;;;;;;;;;;;Q;;;;;",
";;;;;;;;;;;;;;;;;;;;;;;;;;;;;;;;;;;;;;;;;;;;;;;;;;;;;;;;;;;;;;;;",
";;;;;;;;;;;;;;;;;;;;;;;;;;;;;;;;;;;;;;;;;;;;;;;;;;;;;;;;;;;;;;;;",
";;;;Q;;;;;;;;;;;;;;;;;;;;;;;;;;;;;;;;;;;;;;;;;;;;S;;;;;;;;;;;;;;",
";;;;;;;;;;;;;;;;;;;;;;;;;;;;;;;;;;;;;;;;;;;;;;;;;;;;;;;;;;;;;;;;",
";;;;;;;;;;;;;;;;;;;;;;;;;;;11111111111;;;;;;;;;;;;;;;;;;Q;;;;;;;",
";;;;;;;;;;;;;;;;;;;;;;;;;r1QQQQQQQQQQQ1;;;;;;;;;;;;;;;;;;;;;;;;;",
";;;;;;;;;;;;;;;;;;;;;;;;;VQQQQQQQQQQQQU3;;;;;;;;;;;;;;;;;;;;;;;;",
";;;;;;;;;;;;;;;;;;;;eNN03QQQ655556565QQM,;;;;;;;;;;;;;;;;;;;;;;;",
";;;;;;;;;;;;;;;;;;;-QMB1QQ   ss       1BV ;;;;;;;;;;;;;;;;;;;;;;",
";;;;;;;;;;;;;;;;;;&TW,11Q5 asa$$$##$   BB ;;;;;;;;;;;;;;;;;;;;;;",
";;;;;;;;;Q;;;;;;;;,QM;;2Q5as########## BB ;;;;;;;;;;;;;;;;;;;;;;",
";;;;;;;;;;;;;;;;;;;lH1k1Q5t$$8Q$$$8Q$$@Bm h;;;;;;;;;;;;;;;;;;;;;",
";;;aaaaaaaaaaaaaaa;1E*Q1Q5+@@8Q@@@8Q@@+BB Q;;;;;;;;;;;;;;;;;;;;;",
";;;afffffffaaf#afa;;3,Q1Q5 ###########pBB Q;;;;;;;;;;;;;;;;;;;;;",
";;;afffffff$$fa#fa;;;1QB15   @@@@@##aa n BQ;;;;;;;;;;;;;;;;;;;;;",
";;;afffffffffffffa;;;<QVuFtq      yi ti,wBQ;;;;;;;;;;;;;;;;;;;;;",
";;;aaaaaaaaaaaaaaa;;;<QBBt1BBBBBBBBBBm BmBQ;;;;;;;;;;;;;;;;;;;;;",
";;;aggggggggggggga;;;<Qm1MB1111111    M  BU;;;;;;;;;;;;;;;;;;;;;",
";;;agvvgggvvggggga;;;<11QQMQQ5QQQQQ1,1BBB  ;;;;;;;;;;;Q;;;;;;;;;",
";;;agggggggggvvgga;;;:BQQQQB,BQQQQQ4,$MRQQb;;;;;;;;;;;;;;;;;;;;;",
";;;aggvvggggggggga;;;VQQQQQQ,QQQQQQmQmQQQQB3;;;;;;;;;;;;;;;;;;;;",
";;;aggggg99999ggga;;,WQQQQV1B1QQQQQ,QQVQQQYn,;;;;;;;;;;;;;;;;;;;",
";;;ag99999999999ga;;1QQQQZ1Q1,1QQQ,Q,QQTQQQB1;;;;;;;;;;;;;;;;;;;",
";;;a7777999999999a;;%UQQQwQQ1A$QQQ,,,QzUTQQB1;;;;;;;;;;;;;;;;;;;",
";;;a7777777777777a;2UV$$$cQQM1UQQQU,BBD3BQQBB<;;;;;;;;;;;;;;;;;;",
";;;a9999999999999a;1QQQBnzWQBQB11,UQBQB1BQQQB<;;;;;;;;;;;;;;;;;;",
";;;aaaaaaaaaaaaaaa;1QQQBmzWQBI$,,,1WBQB3BQQQB<;;;;;;;;;;;;;;;;;;",
";;;;;;;;;1$91;;;;;;=QQQBBxQQMJ1QQQ5UMQB1BQQQB,;;;;;;;;;;;;;;;;;;",
";;;;;;;;;1$$91;;;;3QQQMB3RQQQU31111WQQBn3VQQmm1;;;;;;;;;;;;;;;;Q",
";;;;;;;;;1$$911;;;X11Q131CQQQWUQQQQQQBB31BQQ11 ;;;;;;;;;;;;;;;;;",
";;;;;;;;;;1$$91;;; BB11$9991QQQQQQQQB=1n111111 ;;;;;;;;;;;;;;;;;",
";;;;;;;;;;;1$$11;; BBm99$99B111111111Vmm Bmm11 ;;;;;;;;;;;;;;;;;",
";;;;;;;;;;;;1$991; BB$9$$KQQQQQQQQQQWBBB1 BB11 ;;;;;;;;;;;;Q;;;;",
";;;;;;;;;;;;;1$$11 1$9$$$IQQQQQQMQQQQQBB1 B311 ;;;;;;;;;;;;Q;;;;",
";;;;;;;;;;;;;11$991$9$$11QQQQQQB1QQQQQBB1; 1  ;;;;;;;;;;;;;;;;;;",
";Q;;;;;;;;;;;;11$$99111;1QQQQQBm1MQQQQBB1;; ;;;;;;;;;;;;;;;;;;;;",
";;;;;;;;;;;;;;;;11111;;;1QQQQQBm3VQQQQLB1;;;;;;;;;;;;;;;;;;;;;;;",
";;;;;;;;;;;;;;;;;;;;;;;;1QQQQQBm3VQQQQUB1;;;;;;;;;;;;;;;;;;;;;;;",
";;;;;;;;;;;;;;;;;;;;;;;;1QQQQQMm1MQQQQQB1;;;;;;;;;Q;;;;;;;;;;;;;",
";;;;;;;;;;;Q;;;;;;;;;;;;11QQQQ>1,1GQQQM11;;;;;;;;;;;;;;;;;;;;;;;",
";;;;;;;;;;;;;;;;;;;;;;;;1Padaamm1GsddajB1;;;;;;;;;;;;;;;;;;;;;;;",
";;;;;;;;;;;;;;;;;;;;;;;;1QQQQUBm1QTQQQBB1;;;;;;;;;;;;;;;;;;;;;;;",
";;;;;;;;;;;;;;;;;;;;;;;;       B1M       ;;;;;;;;;;;;;;;;;;;;;;;",
";;;;;;;;;;;;;;;;;;;;;;; BBBBBb1 1XBBBBB11 ;;;;;;;;;;;;;;;;;;;;;;",
";;;;;;;;;;;;;;;;;;;;;;XMnnnnnn11 nnnnnnn11O;;;;;;;;;;;;;;;;;;;;;",
";;;;;;;;;;;;;;;;;;;;;; BBBBBn1$1 BBBBBc111O;;;;;;;;;;;;;;;;;;;;;",
";;;;;;;;;;;;;;;;;;;;;;X111111111 111111111o;;;;;;;;;;;;;;;;;;;;;",
";;;;;;;;;;;;;;;;;;;;;;         .;         X;;;;;;;;;;;;;;;;;;;;;",
";;;;Q;;;;;;;;;;;;;;;;;;;;;;;;;;;;;;;;;;;;;;;;;;;;;;;;;;;;;;;;;;;",
";;;;;;;;;;;;;;;;;;;;;;;;;;;;;;;;;;;;;;;;;;;;;;;;;;;;;;Q;;;;;;;;;",
";;;;;;;;;;;;;;;;;;;;;;Q;;;;;;;;;;;;;;;;;;;;;;;;;;;;;;;;;;;;;;;;;",
";;;;;;;;;;;;;;;;;;;;;;;;;;;;;;;;;;;;;;;;;;;;;;;;;;;;;;;;;;;;;;;;",
";;;;;;;;;;;;Q;;;;;;;;;;;;;;;;;;;;;;;;;;;;;;;;;;;;;;;;;;;;;;;;;;;",
";;;;;;;;;;;;;;;;;;;;;;;;;;;;;;;;;;;;;;;;;;;;;;;;;;;;;;;;;;;;;;;;",
";;;;;;;;;;;;;;;;;;;;;;;;;;;;;;;;S;;;;;;;;;;;;;;;;;;;;;;;;S;;;;;;",
";;;;;;;;;;;;;;;;;;;;;;;;;;;;;;;;;;;;;;;;;;;;;;;;;;;;;;;;;;;;;;;;",
";;;;;;;;;;;;;;;;;;;;;;;;;;;;;;;;;;;;;;;;;;;;;;;;;;;;;;;;;;;;;;;;",
";;;;;;;;;;;;;;;;;;;;;;;;;;;;;;;;;;;;;;;;;;;;;;;;;;;;;;;;;;;;;;;;"
};
